<svg width="153" height="375" viewBox="0 0 153 375" fill="none" xmlns="http://www.w3.org/2000/svg">
<path d="M73.8182 0.385254C60.994 0.385254 50.5957 10.6705 50.5957 23.3553C50.5957 36.0402 60.994 46.3254 73.8182 46.3254C86.6424 46.3254 97.0407 36.0402 97.0407 23.3553C97.0407 10.6705 86.6424 0.385254 73.8182 0.385254ZM74.9742 34.4917L74.9845 36.1171C74.9845 36.3427 74.7979 36.5324 74.5698 36.5324H73.0977C72.8696 36.5324 72.683 36.3478 72.683 36.1222V34.5122C68.08 34.1738 65.9132 31.5795 65.68 28.7595C65.6592 28.5185 65.851 28.3134 66.0947 28.3134H68.4895C68.6916 28.3134 68.8679 28.457 68.899 28.6518C69.1633 30.2771 70.4437 31.4923 72.74 31.7948V24.4782L71.4597 24.1552C68.7487 23.5143 66.1672 21.8428 66.1672 18.3768C66.1672 14.639 69.0389 12.6291 72.7089 12.2754V10.5834C72.7089 10.3578 72.8955 10.1732 73.1236 10.1732H74.5802C74.8083 10.1732 74.9949 10.3578 74.9949 10.5834V12.26C78.5457 12.6138 81.21 14.6647 81.521 17.8589C81.547 18.0999 81.3552 18.3101 81.1063 18.3101H78.7789C78.5716 18.3101 78.3953 18.1563 78.3694 17.9563C78.1621 16.4592 76.9491 15.2389 74.9742 14.9723V21.8582L76.2908 22.1607C79.6498 22.9811 81.9357 24.5705 81.9357 28.1288C81.9357 31.9896 79.0329 34.1431 74.9742 34.4917ZM69.3914 18.1409C69.3914 19.4433 70.2052 20.4533 71.9573 21.0788C72.2009 21.1763 72.4446 21.2532 72.7348 21.3352V14.9774C70.8221 15.2184 69.3914 16.2797 69.3914 18.1409ZM75.4303 25.073C75.2852 25.0422 75.14 25.0063 74.9742 24.9602V31.8153C77.1824 31.6205 78.7063 30.4207 78.7063 28.4108C78.7063 26.8367 77.8822 25.8113 75.4303 25.073Z" fill="#F9A540"/>
<circle cx="108.046" cy="84.6791" r="22.9701" fill="#F9A540"/>
<path d="M103.558 96.7481H106.129V92.8319H113.842V90.2212H106.129V87.6104H111.914C115.458 87.6104 118.342 84.6825 118.342 81.0835C118.342 77.4846 115.458 74.5566 111.914 74.5566H104.843C104.503 74.5566 104.176 74.6942 103.934 74.939C103.693 75.1838 103.558 75.5158 103.558 75.862V84.9997H99.7012V87.6104H103.558V90.2212H99.7012V92.8319H103.558V96.7481ZM106.129 77.1674H111.914C114.04 77.1674 115.771 78.9244 115.771 81.0835C115.771 83.2426 114.04 84.9997 111.914 84.9997H106.129V77.1674Z" fill="white"/>
<circle cx="41.3129" cy="84.8627" r="22.6449" fill="#F9A540"/>
<path d="M43.5348 81.5656H37.5155C38.4308 79.2355 40.539 77.904 43.2852 77.904C44.8386 77.904 46.2533 78.3479 47.557 79.2078V76.2952C46.2533 75.4907 44.6999 75.1024 42.9246 75.1024C40.7332 75.1024 38.8747 75.7126 37.349 76.9054C35.8234 78.0982 34.7693 79.6516 34.1868 81.5656H31.6348V83.7292H33.7429C33.7152 84.284 33.6875 84.7001 33.6875 85.0052C33.6875 85.4768 33.6875 85.8097 33.7152 86.0316H31.6348V88.1952H34.0481C34.5751 90.3312 35.6015 92.0232 37.1271 93.327C38.6805 94.603 40.6222 95.241 42.9246 95.241C44.9773 95.241 46.6694 94.7972 47.9731 93.8818V90.8305C46.6694 91.9123 45.0882 92.4393 43.2852 92.4393C40.3171 92.4393 38.1257 90.8582 37.349 88.1952H43.5348V86.0316H36.8497C36.822 85.6155 36.7942 85.2549 36.7942 84.9498C36.7942 84.5892 36.822 84.1731 36.8775 83.7292H43.5348V81.5656Z" fill="#F3F3F3"/>
<g style="mix-blend-mode:overlay" opacity="0.5">
<path fill-rule="evenodd" clip-rule="evenodd" d="M125.69 375C125.691 321.334 125.693 276.759 125.695 274.761C125.706 265.228 125.706 263.173 125.699 261.746C125.685 259.118 125.706 225.853 125.722 223.749C125.737 221.919 125.674 221.456 125.353 221.02L124.966 220.495L76.4586 220.443L27.9515 220.39L27.5484 220.902C27.0492 221.537 26.7597 225.01 27.0948 226.348C27.2354 226.91 27.2713 230.188 27.197 235.715C27.1343 240.391 27.0937 244.784 27.1072 245.477C27.1204 246.169 27.1273 247.752 27.1223 248.993C27.1172 250.234 27.1141 251.911 27.1152 252.719C27.1248 259.661 27.1248 261.409 27.1149 265.577C27.1116 266.991 27.1233 269.188 27.1412 270.458C27.159 271.728 27.1529 273.594 27.1277 274.604C27.1028 275.614 27.0864 278.141 27.0918 280.219C27.095 281.429 27.1021 323.51 27.1091 375H41.1461C41.1504 245.703 41.1905 239.847 41.5249 238.641C42.4746 235.216 44.8441 233.436 48.4791 233.416C49.888 233.408 50.4447 233.5 51.2034 233.868C52.6735 234.579 54.2335 236.238 54.8166 237.709L55.3156 238.969L55.29 249.465C55.276 255.238 55.2621 260.552 55.2596 261.274C55.2568 261.995 55.2531 264.097 55.2514 265.944C55.2495 267.792 55.2453 269.965 55.2417 270.773C55.2381 271.581 55.2493 272.88 55.2661 273.659C55.2831 274.439 55.2852 276.21 55.2709 277.595C55.2597 278.679 55.2543 319.349 55.2565 375H69.4031C69.438 319.114 69.466 279.17 69.4714 278.645C69.4783 277.952 69.4334 269.006 69.3715 258.765C69.2637 240.973 69.231 238.889 70.0938 237.286C70.2296 237.034 70.3876 236.793 70.571 236.506C71.2719 235.406 72.796 234.185 74.0337 233.731C75.1539 233.32 77.5876 233.332 78.8425 233.754C79.5991 234.009 80.2505 234.48 81.2674 235.51C82.4134 236.67 82.7337 237.153 83.0895 238.258C83.5121 239.571 83.5193 239.908 83.4296 254.399C83.379 262.538 83.3406 270.993 83.3442 273.187C83.3468 274.873 83.3756 317.162 83.4137 375H97.5422C97.5403 323.941 97.544 282.641 97.5564 280.01C97.5591 279.432 97.5614 277.165 97.5614 274.971V269.933C97.5614 269.356 97.5589 267.112 97.5555 264.947C97.5524 262.783 97.5623 260.539 97.5778 259.962C97.5932 259.384 97.557 254.675 97.4976 249.498C97.391 240.236 97.3969 240.059 97.8499 238.624C98.6726 236.017 99.8454 234.646 101.96 233.82C103.336 233.282 105.671 233.278 107.073 233.81C109.117 234.587 110.503 236.1 111.279 238.402C111.644 239.485 111.678 241.979 111.641 375H125.69ZM0 150.102C0 137.989 0.0319155 136.733 0.347435 136.384C0.682688 136.013 3.32399 136 76.3767 136C146.505 136 152.087 136.025 152.442 136.347C152.807 136.677 152.826 137.378 152.826 150.029C152.826 162.141 152.795 163.398 152.479 163.746C152.144 164.117 149.503 164.13 76.4498 164.13C6.32153 164.13 0.739567 164.105 0.383951 163.783C0.0197288 163.453 0 162.752 0 150.102ZM10.2841 175.899C11.183 174.156 13.1464 172.427 15.0954 171.664C16.0165 171.303 18.7485 171.288 76.6232 171.329L137.187 171.373L138.447 171.989C139.88 172.691 141.861 174.556 142.498 175.803C143.069 176.923 143.59 178.981 143.59 180.119C143.59 181.466 142.925 183.639 142.182 184.718C140.83 186.683 139.446 187.703 137.1 188.465L135.753 188.901H76.4132H17.0733L15.7266 188.465C13.3807 187.703 11.996 186.683 10.6443 184.718C9.90159 183.639 9.23676 181.466 9.23676 180.119C9.23676 179.012 9.75466 176.925 10.2841 175.899ZM22.8761 196.018C23.3988 196.006 24.0628 195.921 24.3515 195.828C25.141 195.574 128.286 195.717 129.944 195.975C133.183 196.478 136.033 198.936 136.974 202.04C137.369 203.339 137.378 205.922 136.993 207.19C136.047 210.308 133.914 212.32 130.578 213.24C129.012 213.672 128.899 213.673 76.4132 213.673C23.9276 213.673 23.8149 213.672 22.248 213.24C20.3322 212.711 19.233 212.09 17.9588 210.816C16.3106 209.168 15.5392 207.2 15.5392 204.646C15.5392 202.094 16.3627 200.122 18.2094 198.252C19.2624 197.186 21.6462 196.045 22.8761 196.018Z" fill="white"/>
</g>
</svg>
