<svg width="153" height="375" viewBox="0 0 153 375" fill="none" xmlns="http://www.w3.org/2000/svg">
<g style="mix-blend-mode:overlay" opacity="0.5">
<path fill-rule="evenodd" clip-rule="evenodd" d="M125.69 375C125.691 321.334 125.693 276.759 125.695 274.761C125.706 265.228 125.706 263.173 125.699 261.746C125.685 259.118 125.706 225.853 125.722 223.749C125.737 221.919 125.674 221.456 125.353 221.02L124.966 220.495L76.4586 220.443L27.9515 220.39L27.5484 220.902C27.0492 221.537 26.7597 225.01 27.0948 226.348C27.2354 226.91 27.2713 230.188 27.197 235.715C27.1343 240.391 27.0937 244.784 27.1072 245.477C27.1204 246.169 27.1273 247.752 27.1223 248.993C27.1172 250.234 27.1141 251.911 27.1152 252.719C27.1248 259.661 27.1248 261.409 27.1149 265.577C27.1116 266.991 27.1233 269.188 27.1412 270.458C27.159 271.728 27.1529 273.594 27.1277 274.604C27.1028 275.614 27.0864 278.141 27.0918 280.219C27.095 281.429 27.1021 323.51 27.1091 375H41.1461C41.1504 245.703 41.1905 239.847 41.5249 238.641C42.4746 235.216 44.8441 233.436 48.4791 233.416C49.888 233.408 50.4447 233.5 51.2034 233.868C52.6735 234.579 54.2335 236.238 54.8166 237.709L55.3156 238.969L55.29 249.465C55.276 255.238 55.2621 260.552 55.2596 261.274C55.2568 261.995 55.2531 264.097 55.2514 265.944C55.2495 267.792 55.2453 269.965 55.2417 270.773C55.2381 271.581 55.2493 272.88 55.2661 273.659C55.2831 274.439 55.2852 276.21 55.2709 277.595C55.2597 278.679 55.2543 319.349 55.2565 375H69.4031C69.438 319.114 69.466 279.17 69.4714 278.645C69.4783 277.952 69.4334 269.006 69.3715 258.765C69.2637 240.973 69.231 238.889 70.0938 237.286C70.2296 237.034 70.3876 236.793 70.571 236.506C71.2719 235.406 72.796 234.185 74.0337 233.731C75.1539 233.32 77.5876 233.332 78.8425 233.754C79.5991 234.009 80.2505 234.48 81.2674 235.51C82.4134 236.67 82.7337 237.153 83.0895 238.258C83.5121 239.571 83.5193 239.908 83.4296 254.399C83.379 262.538 83.3406 270.993 83.3442 273.187C83.3468 274.873 83.3756 317.162 83.4137 375H97.5422C97.5403 323.941 97.544 282.641 97.5564 280.01C97.5591 279.432 97.5614 277.165 97.5614 274.971V269.933C97.5614 269.356 97.5589 267.112 97.5555 264.947C97.5524 262.783 97.5623 260.539 97.5778 259.962C97.5932 259.384 97.557 254.675 97.4976 249.498C97.391 240.236 97.3969 240.059 97.8499 238.624C98.6726 236.017 99.8454 234.646 101.96 233.82C103.336 233.282 105.671 233.278 107.073 233.81C109.117 234.587 110.503 236.1 111.279 238.402C111.644 239.485 111.678 241.979 111.641 375H125.69ZM0 150.102C0 137.989 0.0319155 136.733 0.347435 136.384C0.682688 136.013 3.32399 136 76.3767 136C146.505 136 152.087 136.025 152.442 136.347C152.807 136.677 152.826 137.378 152.826 150.029C152.826 162.141 152.795 163.398 152.479 163.746C152.144 164.117 149.503 164.13 76.4498 164.13C6.32153 164.13 0.739567 164.105 0.383951 163.783C0.0197288 163.453 0 162.752 0 150.102ZM10.2841 175.899C11.183 174.156 13.1464 172.427 15.0954 171.664C16.0165 171.303 18.7485 171.288 76.6232 171.329L137.187 171.373L138.447 171.989C139.88 172.691 141.861 174.556 142.498 175.803C143.069 176.923 143.59 178.981 143.59 180.119C143.59 181.466 142.925 183.639 142.182 184.718C140.83 186.683 139.446 187.703 137.1 188.465L135.753 188.901H76.4132H17.0733L15.7266 188.465C13.3807 187.703 11.996 186.683 10.6443 184.718C9.90159 183.639 9.23676 181.466 9.23676 180.119C9.23676 179.012 9.75466 176.925 10.2841 175.899ZM22.8761 196.018C23.3988 196.006 24.0628 195.921 24.3515 195.828C25.141 195.574 128.286 195.717 129.944 195.975C133.183 196.478 136.033 198.936 136.974 202.04C137.369 203.339 137.378 205.922 136.993 207.19C136.047 210.308 133.914 212.32 130.578 213.24C129.012 213.672 128.899 213.673 76.4132 213.673C23.9276 213.673 23.8149 213.672 22.248 213.24C20.3322 212.711 19.233 212.09 17.9588 210.816C16.3106 209.168 15.5392 207.2 15.5392 204.646C15.5392 202.094 16.3627 200.122 18.2094 198.252C19.2624 197.186 21.6462 196.045 22.8761 196.018Z" fill="white"/>
</g>
<path d="M27.0311 86.1645C25.624 86.1645 24.4499 85.6893 23.5088 84.7391C22.5768 83.7797 22.1108 82.601 22.1108 81.2031C22.1108 79.8143 22.5814 78.6402 23.5225 77.6808C24.4636 76.7214 25.6605 76.2417 27.1133 76.2417C27.9448 76.2417 28.6437 76.3788 29.2102 76.6529C29.7767 76.9178 30.3158 77.3016 30.8275 77.8041L29.5666 79.2569C29.1554 78.8823 28.7671 78.6127 28.4016 78.4483C28.0453 78.2747 27.6113 78.1879 27.0996 78.1879C26.2955 78.1879 25.6285 78.4803 25.0986 79.065C24.5778 79.6407 24.3174 80.3533 24.3174 81.2031C24.3174 82.0437 24.5778 82.7564 25.0986 83.3411C25.6285 83.9259 26.2955 84.2183 27.0996 84.2183C27.6113 84.2183 28.0544 84.1269 28.429 83.9442C28.8036 83.7614 29.2011 83.4782 29.6214 83.0944L30.9645 84.5335C30.4437 85.0909 29.8772 85.502 29.2651 85.767C28.662 86.032 27.9174 86.1645 27.0311 86.1645ZM38.8765 85.0543C38.1181 85.7944 37.1724 86.1645 36.0394 86.1645C34.9064 86.1645 33.9608 85.799 33.2024 85.068C32.4532 84.3279 32.0785 83.4188 32.0785 82.3406C32.0785 81.2716 32.4577 80.3671 33.2161 79.627C33.9836 78.8869 34.9338 78.5168 36.0668 78.5168C37.1998 78.5168 38.1409 78.8869 38.8902 79.627C39.6485 80.3579 40.0277 81.2625 40.0277 82.3406C40.0277 83.4097 39.644 84.3142 38.8765 85.0543ZM36.0668 84.369C36.6425 84.369 37.1039 84.1772 37.4511 83.7934C37.7983 83.4005 37.9719 82.9163 37.9719 82.3406C37.9719 81.7833 37.7892 81.3082 37.4237 80.9153C37.0673 80.5132 36.6059 80.3122 36.0394 80.3122C35.4638 80.3122 35.0024 80.5087 34.6552 80.9016C34.308 81.2853 34.1344 81.765 34.1344 82.3406C34.1344 82.898 34.3125 83.3777 34.6689 83.7797C35.0344 84.1726 35.5003 84.369 36.0668 84.369ZM43.4412 78.6539V80.9564C43.4412 81.7604 43.7793 82.1625 44.4554 82.1625C44.9306 82.1625 45.4057 82.0437 45.8808 81.8061V78.6539H47.9777V86H45.8808V83.4371C45.2229 83.7569 44.5605 83.9168 43.8935 83.9168C43.1351 83.9168 42.5184 83.7112 42.0433 83.3C41.5682 82.8797 41.3306 82.295 41.3306 81.5457V78.6539H43.4412ZM56.6868 78.6539V86H54.6721V81.7239L51.8077 86H49.8478V78.6539H51.8625V82.9437L54.7269 78.6539H56.6868Z" fill="white"/>
<path d="M63.2476 31.2974V21.7035H65.5227L68.0445 25.7604L70.5663 21.7035H72.8414V31.2974H70.7445V25.034L68.0445 29.1319H67.9897L65.3171 25.0751V31.2974H63.2476ZM78.3944 31.4618C77.298 31.4618 76.3843 31.0918 75.6533 30.3517C74.9315 29.6116 74.5706 28.707 74.5706 27.638C74.5706 26.5781 74.936 25.6781 75.667 24.938C76.398 24.1888 77.3162 23.8142 78.4218 23.8142C79.6005 23.8142 80.5736 24.2436 81.3411 25.1025L80.1213 26.336C79.6096 25.8517 79.0386 25.6096 78.4081 25.6096C77.8964 25.6096 77.4716 25.806 77.1335 26.1989C76.7954 26.5918 76.6264 27.0715 76.6264 27.638C76.6264 28.2136 76.7954 28.6979 77.1335 29.0908C77.4807 29.4745 77.933 29.6664 78.4903 29.6664C79.066 29.6664 79.6279 29.406 80.1761 28.8852L81.3959 30.1187C80.9939 30.5573 80.5644 30.8908 80.1076 31.1192C79.6507 31.3476 79.0797 31.4618 78.3944 31.4618ZM82.7567 31.2974V23.9512H84.8399V26.9664L87.4714 23.9512H89.8698L87.1699 26.9664L90.2125 31.2974H87.7455L85.7856 28.5014L84.8399 29.5294V31.2974H82.7567Z" fill="white"/>
<path d="M105.951 86.1645C104.544 86.1645 103.37 85.6893 102.428 84.7391C101.496 83.7797 101.03 82.601 101.03 81.2031C101.03 79.8143 101.501 78.6402 102.442 77.6808C103.383 76.7214 104.58 76.2417 106.033 76.2417C106.864 76.2417 107.563 76.3788 108.13 76.6529C108.696 76.9178 109.235 77.3016 109.747 77.8041L108.486 79.2569C108.075 78.8823 107.687 78.6127 107.321 78.4483C106.965 78.2747 106.531 78.1879 106.019 78.1879C105.215 78.1879 104.548 78.4803 104.018 79.065C103.497 79.6407 103.237 80.3533 103.237 81.2031C103.237 82.0437 103.497 82.7564 104.018 83.3411C104.548 83.9259 105.215 84.2183 106.019 84.2183C106.531 84.2183 106.974 84.1269 107.349 83.9442C107.723 83.7614 108.121 83.4782 108.541 83.0944L109.884 84.5335C109.363 85.0909 108.797 85.502 108.185 85.767C107.582 86.032 106.837 86.1645 105.951 86.1645ZM111.574 86V76.4062H119.578V86H117.467V78.3112H113.684V86H111.574ZM125.32 84.369C125.841 84.369 126.265 84.1909 126.594 83.8345C126.923 83.4691 127.088 83.0168 127.088 82.4777C127.088 81.9477 126.914 81.4955 126.567 81.1209C126.229 80.7462 125.804 80.5589 125.292 80.5589C124.772 80.5589 124.347 80.7462 124.018 81.1209C123.689 81.4863 123.524 81.9386 123.524 82.4777C123.524 83.0076 123.693 83.4554 124.031 83.8208C124.379 84.1863 124.808 84.369 125.32 84.369ZM125.292 86.1645C124.05 86.1645 123.1 85.7898 122.442 85.0406C121.784 84.2822 121.455 83.1949 121.455 81.7787C121.455 81.2762 121.473 80.833 121.51 80.4493C121.546 80.0564 121.624 79.6407 121.743 79.2021C121.871 78.7635 122.04 78.3889 122.25 78.0782C122.469 77.7676 122.771 77.4889 123.154 77.2422C123.547 76.9955 124.009 76.8219 124.539 76.7214L128.472 75.995L128.801 77.6397L124.772 78.4346C123.657 78.663 123.063 79.2386 122.99 80.1615C123.163 79.8599 123.483 79.5813 123.949 79.3254C124.415 79.0605 124.986 78.928 125.662 78.928C126.613 78.928 127.43 79.266 128.116 79.9422C128.801 80.6183 129.144 81.4544 129.144 82.4503C129.144 83.4828 128.778 84.3599 128.047 85.0817C127.316 85.8036 126.398 86.1645 125.292 86.1645Z" fill="white"/>
<circle cx="40" cy="81" r="26.55" stroke="white" stroke-width="0.9"/>
<circle cx="77" cy="27" r="26.55" stroke="white" stroke-width="0.9"/>
<circle cx="115" cy="81" r="26.55" stroke="white" stroke-width="0.9"/>
</svg>
