<svg width="18" height="18" viewBox="0 0 18 18" fill="none" xmlns="http://www.w3.org/2000/svg">
<path fill-rule="evenodd" clip-rule="evenodd" d="M1.75 0C1.28587 0 0.840752 0.184375 0.512563 0.512563C0.184375 0.840752 0 1.28587 0 1.75V11.25C0 12.216 0.784 13 1.75 13H3.25C3.44891 13 3.63968 12.921 3.78033 12.7803C3.92098 12.6397 4 12.4489 4 12.25C4 12.0511 3.92098 11.8603 3.78033 11.7197C3.63968 11.579 3.44891 11.5 3.25 11.5H1.75C1.6837 11.5 1.62011 11.4737 1.57322 11.4268C1.52634 11.3799 1.5 11.3163 1.5 11.25V1.75C1.5 1.6837 1.52634 1.62011 1.57322 1.57322C1.62011 1.52634 1.6837 1.5 1.75 1.5H11.25C11.3163 1.5 11.3799 1.52634 11.4268 1.57322C11.4737 1.62011 11.5 1.6837 11.5 1.75V3.25C11.5 3.44891 11.579 3.63968 11.7197 3.78033C11.8603 3.92098 12.0511 4 12.25 4C12.4489 4 12.6397 3.92098 12.7803 3.78033C12.921 3.63968 13 3.44891 13 3.25V1.75C13 1.28587 12.8156 0.840752 12.4874 0.512563C12.1592 0.184375 11.7141 0 11.25 0H1.75ZM6.75 5C6.28587 5 5.84075 5.18437 5.51256 5.51256C5.18437 5.84075 5 6.28587 5 6.75V16.25C5 17.216 5.784 18 6.75 18H16.25C16.7141 18 17.1592 17.8156 17.4874 17.4874C17.8156 17.1592 18 16.7141 18 16.25V6.75C18 6.28587 17.8156 5.84075 17.4874 5.51256C17.1592 5.18437 16.7141 5 16.25 5H6.75ZM6.5 6.75C6.5 6.6837 6.52634 6.62011 6.57322 6.57322C6.62011 6.52634 6.6837 6.5 6.75 6.5H16.25C16.3163 6.5 16.3799 6.52634 16.4268 6.57322C16.4737 6.62011 16.5 6.6837 16.5 6.75V16.25C16.5 16.3163 16.4737 16.3799 16.4268 16.4268C16.3799 16.4737 16.3163 16.5 16.25 16.5H6.75C6.6837 16.5 6.62011 16.4737 6.57322 16.4268C6.52634 16.3799 6.5 16.3163 6.5 16.25V6.75Z" fill="#3D4B71"/>
</svg>
