<svg width="24" height="24" viewBox="0 0 24 24" fill="none" xmlns="http://www.w3.org/2000/svg">
<path d="M22.6667 0H1.33333C0.979711 0 0.640573 0.140476 0.390524 0.390524C0.140476 0.640573 0 0.979711 0 1.33333V22.6667C0 23.0203 0.140476 23.3594 0.390524 23.6095C0.640573 23.8595 0.979711 24 1.33333 24H12.82V14.72H9.70267V11.0867H12.82V8.42C12.82 5.32 14.7133 3.63067 17.4867 3.63067C18.4187 3.628 19.352 3.676 20.28 3.77333V7H18.3667C16.8627 7 16.5693 7.71733 16.5693 8.76667V11.08H20.1653L19.6987 14.7133H16.568V24H22.6667C23.0203 24 23.3594 23.8595 23.6095 23.6095C23.8595 23.3594 24 23.0203 24 22.6667V1.33333C24 0.979711 23.8595 0.640573 23.6095 0.390524C23.3594 0.140476 23.0203 0 22.6667 0Z" fill="#3D4B71"/>
</svg>
