<svg width="22" height="22" viewBox="0 0 22 22" fill="none" xmlns="http://www.w3.org/2000/svg">
<path d="M10.9534 0.0466309C8.787 0.0466309 6.66928 0.689035 4.86801 1.89261C3.06674 3.09618 1.66281 4.80686 0.83378 6.80833C0.00474591 8.80979 -0.212167 11.0121 0.210471 13.1369C0.633109 15.2616 1.67632 17.2133 3.20817 18.7452C4.74003 20.2771 6.69173 21.3203 8.81648 21.7429C10.9412 22.1655 13.1436 21.9486 15.145 21.1196C17.1465 20.2906 18.8572 18.8866 20.0608 17.0854C21.2643 15.2841 21.9067 13.1664 21.9067 11C21.9067 8.09499 20.7527 5.30895 18.6986 3.2548C16.6444 1.20064 13.8584 0.0466309 10.9534 0.0466309ZM6.25907 19.1211V17.5564C6.22471 16.8957 6.45162 16.248 6.89079 15.7532C7.32995 15.2584 7.94613 14.9562 8.60622 14.9119H13.3005C13.962 14.9562 14.5794 15.2595 15.0188 15.756C15.4582 16.2525 15.6842 16.9022 15.6477 17.5642V19.129C14.2225 19.9592 12.6027 20.3966 10.9534 20.3966C9.30405 20.3966 7.68422 19.9592 6.25907 19.129V19.1211ZM17.2124 17.9789V17.5016C17.2338 16.4349 16.8361 15.4024 16.1047 14.6257C15.3733 13.849 14.3665 13.3899 13.3005 13.3471H8.60622C7.53952 13.388 6.53158 13.8464 5.79978 14.6235C5.06797 15.4007 4.67094 16.4344 4.69431 17.5016V17.9632C3.27707 16.6956 2.27812 15.0275 1.82965 13.1797C1.38118 11.332 1.50433 9.39156 2.1828 7.6153C2.86127 5.83904 4.06308 4.31065 5.62921 3.23237C7.19533 2.1541 9.05195 1.57676 10.9534 1.57676C12.8548 1.57676 14.7114 2.1541 16.2775 3.23237C17.8437 4.31065 19.0455 5.83904 19.7239 7.6153C20.4024 9.39156 20.5256 11.332 20.0771 13.1797C19.6286 15.0275 18.6297 16.6956 17.2124 17.9632V17.9789Z" fill="#3D4B71"/>
<path d="M10.9529 3.95855C10.1792 3.95855 9.4229 4.18798 8.77959 4.61783C8.13628 5.04767 7.63488 5.65863 7.33879 6.37344C7.04271 7.08825 6.96524 7.87481 7.11618 8.63364C7.26713 9.39248 7.6397 10.0895 8.18679 10.6366C8.73388 11.1837 9.43092 11.5563 10.1898 11.7072C10.9486 11.8582 11.7352 11.7807 12.45 11.4846C13.1648 11.1885 13.7757 10.6871 14.2056 10.0438C14.6354 9.4005 14.8649 8.64417 14.8649 7.87047C14.8649 6.83296 14.4527 5.83795 13.7191 5.10432C12.9855 4.3707 11.9904 3.95855 10.9529 3.95855ZM10.9529 10.2176C10.4887 10.2176 10.0349 10.08 9.64893 9.82205C9.26294 9.56414 8.9621 9.19757 8.78445 8.76868C8.6068 8.3398 8.56032 7.86786 8.65088 7.41256C8.74145 6.95726 8.96499 6.53904 9.29325 6.21078C9.6215 5.88253 10.0397 5.65898 10.495 5.56842C10.9503 5.47785 11.4223 5.52433 11.8512 5.70198C12.28 5.87963 12.6466 6.18047 12.9045 6.56646C13.1624 6.95245 13.3001 7.40624 13.3001 7.87047C13.3001 8.49297 13.0528 9.08998 12.6126 9.53015C12.1724 9.97033 11.5754 10.2176 10.9529 10.2176Z" fill="#3D4B71"/>
</svg>
