<svg width="156" height="13" viewBox="0 0 156 13" fill="none" xmlns="http://www.w3.org/2000/svg">
<path d="M0 11.1414L1.20915 11.0621L1.50648 10.7251V1.48804L1.20915 1.21053L0 1.13124V0.100489H6.04575V1.15106L4.99517 1.23035L4.69784 1.50786V6.0273H5.09429L9.09835 1.46822L8.99924 1.25017L7.92885 1.13124V0.100489H12.4285V1.15106L11.0607 1.25017L7.84956 4.89744L11.6158 11.0225L12.9438 11.1216V12.1722H8.30547V11.4982L5.55019 6.97877H4.69784V10.7251L4.99517 11.0621L6.04575 11.1414V12.192H0V11.1414Z" fill="#3D4B71"/>
<path d="M19.6641 11.1401L20.7543 11.0608L21.0913 10.7238V1.4867L20.8534 1.20919L19.6641 1.1299V0.0991545H25.8089V1.14973L24.5998 1.22902L24.3024 1.50652V11.0013H27.355L27.5731 10.704L27.8704 8.40462H29.6346V12.2105H19.6641V11.1401Z" fill="#3D4B71"/>
<path d="M36.9492 11.1401L38.2575 11.0608L38.5548 10.7238V1.4867L38.2575 1.20919L36.9492 1.1299V0.0991545H43.3716V1.14973L42.0435 1.22902L41.7462 1.50653V10.7635L42.0435 11.1004L43.3716 11.1797V12.2303H36.9492V11.1401Z" fill="#3D4B71"/>
<path d="M50.8828 11.1401L52.092 11.0608L52.3893 10.7238V1.4867L52.092 1.20919L50.8828 1.1299V0.0991545H60.7939V3.11212H59.2477L58.9504 1.52635L58.6927 1.32813H55.5014V5.31237H57.4043L57.6818 5.05469L57.8602 3.74642H59.1486V8.18658H57.8602L57.6818 6.87832L57.4043 6.62063H55.5014V10.9419H59.2676L59.5253 10.6445L59.8226 8.66231H61.3687V12.1708H50.8828V11.1401Z" fill="#3D4B71"/>
<path d="M68.8812 11.1401L69.9714 11.0608L70.3083 10.7238V1.4867L70.0705 1.20919L68.8613 1.1299V0.0991545H73.9556V0.594707L79.1292 8.62267V1.4867L78.812 1.20919L77.6425 1.1299V0.0991545H82.2016V1.14973L81.1312 1.22902L80.7942 1.50652V12.2105H77.92L71.9536 2.99318V10.7238L72.2113 11.0608L73.4204 11.1599V12.1708H68.8812V11.1401Z" fill="#3D4B71"/>
<path d="M100.3 0.0991545V3.7266H98.7939L98.4173 1.54617L98.1001 1.32813H96.3954V10.7436L96.7324 11.0806L97.9416 11.1599V12.2105H91.6381V11.1599L92.8473 11.0806L93.1843 10.7436V1.3083H91.4399L91.1426 1.52635L90.7858 3.70678H89.2793V0.0991545H100.3Z" fill="#3D4B71"/>
<path d="M107.555 11.1401L108.764 11.0608L109.061 10.7238V1.4867L108.764 1.20919L107.555 1.1299V0.0991545H117.466V3.11212H115.92L115.622 1.52635L115.365 1.32813H112.193V5.31237H114.096L114.374 5.05469L114.552 3.74642H115.84V8.18658H114.552L114.374 6.87832L114.096 6.62063H112.193V10.9419H115.939L116.197 10.6445L116.494 8.66231H118.041V12.1708H107.555V11.1401Z" fill="#3D4B71"/>
<path d="M125.652 11.1401L126.743 11.0608L127.08 10.7238V1.4867L126.842 1.20919L125.652 1.1299V0.0991545H131.797V1.14973L130.588 1.22902L130.291 1.50652V11.0013H133.343L133.561 10.704L133.859 8.40462H135.623V12.2105H125.672V11.1401H125.652Z" fill="#3D4B71"/>
<path d="M150.708 -1.04904e-05L154.89 11.0013L156 11.14V12.1906H150.153V11.14L151.382 11.0409L151.52 10.803L150.569 8.12706H146.723L145.831 10.803L146.01 11.0211L147.159 11.14V12.1906H142.818V11.14L143.988 11.0607L148.111 -1.04904e-05H150.708ZM147.159 6.91791H150.053L148.587 2.93366L147.159 6.91791Z" fill="#3D4B71"/>
</svg>
