<svg width="33" height="32" viewBox="0 0 33 32" fill="none" xmlns="http://www.w3.org/2000/svg">
<path d="M8.18779 15.8041L8.2023 12.858L8.26035 5.13741C7.66534 5.25351 7.30253 5.22448 6.70752 5.06484L6.76557 12.858L6.80911 20.4771C7.81047 20.5351 8.10072 19.0984 8.18779 15.8041Z" fill="#F2923B"/>
<path d="M4.37049 22.3347C5.44442 22.3347 5.72015 20.869 5.72015 13.6127V13.6563L5.73467 11.5955C5.73467 10.8699 5.74918 10.1442 5.74918 9.41862L5.7782 7.24175L5.82174 5.15195C5.3138 5.31159 4.99453 5.28256 4.29793 5.07939H4.25439L4.29793 7.25626L4.32696 9.43313C4.34147 10.1588 4.34147 10.8844 4.34147 11.61L4.35598 13.7869L4.37049 18.1261V20.303C4.37049 20.956 4.37049 21.6526 4.37049 22.3347Z" fill="#F2923B"/>
<path d="M31.4658 27.7478C30.537 27.6898 30.0871 27.1964 29.0567 25.9483L22.0472 16.1234H21.249C24.2386 12.0599 26.3429 7.40136 27.4023 2.45261L27.4313 2.35102L27.9828 3.23628C28.4617 3.83129 29.2744 3.61361 29.5647 3.51202L27.3588 0L23.8032 2.23492C23.8467 2.38005 24.137 3.26531 25.0368 2.87347L26.0817 2.22041L26.0381 2.39456C24.703 8.62041 21.5538 14.2512 17.1129 18.8662C12.9188 23.2345 7.66533 26.2966 1.88937 27.9655V26.3837C4.53064 25.6145 8.04265 24.1342 10.4227 22.3347L10.7275 22.1025V7.69161C10.7275 6.13878 10.5968 5.50023 12.5415 5.4712V1.01587H0.191406V5.34059C1.87485 5.52925 2.00547 5.89206 2.00547 7.88027V23.3361C2.01998 23.3361 2.03449 23.3361 2.06352 23.3361C3.34061 23.2925 3.50025 22.2621 3.51476 14.0626V7.89478C3.51476 6.7483 3.61635 4.58594 1.7007 4.15057V2.52517H11.0322V4.13605C9.85671 4.48435 9.21816 5.19547 9.21816 6.66122V21.4494C7.14288 22.9297 3.81952 24.439 0.946055 25.1937L0.496168 25.3388V29.8231L1.32338 29.6345C6.82361 28.2122 11.8885 25.5129 16.1261 21.7397L21.4086 29.2571V29.2862H28.1134C27.62 28.4299 27.3878 28.0381 26.6622 27.9365H22.1923L21.3216 26.7029H26.2123C25.7769 25.9628 25.5737 25.6145 24.9352 25.5129H20.4798L19.7542 24.468L24.6159 24.4245C24.1515 23.6408 23.9483 23.3215 23.2517 23.249L18.927 23.2925L18.0998 22.117H22.9905C22.5406 21.3478 22.3229 20.9995 21.6118 20.927H17.2726L17.1565 20.7528C17.4467 20.4771 17.737 20.1868 18.0272 19.8966H21.3651C20.9152 19.1274 20.6975 18.7791 19.9864 18.7066H19.1302C19.4785 18.3147 19.8268 17.9084 20.1606 17.4875H21.3216L27.9247 26.7465L27.9538 26.79C28.2295 27.1238 28.4907 27.4431 28.752 27.7333C28.7665 27.7478 28.781 27.7769 28.81 27.7914L28.8245 27.8059C28.839 27.8204 28.839 27.8349 28.8535 27.8349L28.8681 27.8494C28.8826 27.8639 28.8826 27.8639 28.8971 27.8785C28.9116 27.893 28.9116 27.893 28.9261 27.9075C28.9406 27.922 28.9551 27.9365 28.9696 27.951C28.9842 27.9655 28.9842 27.9655 28.9987 27.98L29.0132 27.9946C29.0277 28.0091 29.0422 28.0236 29.0567 28.0381C29.0567 28.0381 29.0567 28.0381 29.0712 28.0526C29.2744 28.2558 29.4631 28.4154 29.6662 28.546C29.6662 28.546 29.6662 28.546 29.6808 28.546C29.7098 28.5605 29.7388 28.5751 29.7678 28.6041L29.7823 28.6186C29.8114 28.6331 29.8404 28.6476 29.8694 28.6621C29.8694 28.6621 29.8839 28.6766 29.8984 28.6766C29.9275 28.6912 29.9565 28.7057 29.9855 28.7202C30 28.7202 30 28.7347 30.0145 28.7347C30.0436 28.7492 30.0726 28.7637 30.1016 28.7782C30.1161 28.7782 30.1306 28.7927 30.1306 28.7927C30.1597 28.8073 30.1742 28.8073 30.2032 28.8218C30.2177 28.8218 30.2322 28.8363 30.2467 28.8363C30.2758 28.8508 30.2903 28.8508 30.3193 28.8653C30.3338 28.8653 30.3628 28.8798 30.3919 28.8798C30.4064 28.8798 30.4209 28.8943 30.4499 28.8943C30.4935 28.9088 30.537 28.9088 30.5805 28.9234L30.566 29.2862V30.4907H7.37508H7.38959C7.36057 30.4907 7.33154 30.4907 7.28801 30.4907H6.02542C1.74424 30.5778 0.597755 31.5937 0.786418 32H32.0463V27.7188H31.4658V27.7478Z" fill="#F2923B"/>
</svg>
