<svg width="26" height="22" viewBox="0 0 26 22" fill="none" xmlns="http://www.w3.org/2000/svg">
<path d="M1.3 0H24.7C25.0448 0 25.3754 0.128769 25.6192 0.357981C25.863 0.587192 26 0.898069 26 1.22222V20.7778C26 21.1019 25.863 21.4128 25.6192 21.642C25.3754 21.8712 25.0448 22 24.7 22H1.3C0.955218 22 0.624558 21.8712 0.380761 21.642C0.136964 21.4128 0 21.1019 0 20.7778V1.22222C0 0.898069 0.136964 0.587192 0.380761 0.357981C0.624558 0.128769 0.955218 0 1.3 0ZM23.4 5.17978L13.0936 13.8576L2.6 5.15289V19.5556H23.4V5.17978ZM3.2643 2.44444L13.0793 10.5869L22.7526 2.44444H3.2643Z" fill="#3D4B71"/>
</svg>
