<svg width="540" height="300" viewBox="0 0 540 300" fill="none" xmlns="http://www.w3.org/2000/svg">
<mask id="mask0" mask-type="alpha" maskUnits="userSpaceOnUse" x="0" y="0" width="540" height="300">
<rect width="540" height="300" rx="5" fill="#F6F6F6"/>
</mask>
<g mask="url(#mask0)">
<rect width="540" height="300" rx="5" fill="#F6F6F6"/>
<circle cx="514.5" cy="160.5" r="206.5" fill="#3D4B71"/>
<g filter="url(#filter0_f)">
<ellipse cx="426.5" cy="223.5" rx="67.5" ry="24.5" fill="black" fill-opacity="0.1"/>
</g>
</g>
<path d="M480.462 167.467C479.547 167.413 478.685 166.797 478.389 165.887C477.985 164.682 478.658 163.397 479.87 162.995C481.862 162.352 485.927 160.665 489.077 158.389C488.566 157.934 488.108 157.425 487.65 156.863C485.227 153.783 484.824 150.436 486.547 147.866C488.054 145.616 490.908 144.518 493.493 145.241C496.158 145.991 497.854 148.401 498.016 151.722C498.123 153.596 497.612 155.31 496.75 156.863C498.07 156.943 499.362 156.675 500.439 156.193C503.481 154.828 504.881 151.963 504.208 148.535C503.966 147.303 504.773 146.098 506.039 145.857C507.277 145.616 508.489 146.42 508.731 147.678C509.808 153.141 507.304 158.121 502.35 160.371C499.443 161.71 496.239 161.817 493.385 160.88C488.808 164.843 482.4 167.012 481.297 167.36C481.027 167.44 480.758 167.467 480.462 167.467ZM492.012 149.606C491.42 149.579 490.773 149.901 490.423 150.409C489.858 151.266 490.181 152.578 491.312 154.024C491.662 154.453 492.012 154.828 492.389 155.149C493.089 154.132 493.493 153.034 493.439 151.936C493.412 151.186 493.197 149.901 492.281 149.633C492.2 149.633 492.12 149.606 492.012 149.606Z" fill="url(#paint0_linear)"/>
<path d="M504.369 149.74C504.369 149.258 504.315 148.749 504.234 148.241C504.207 148.133 504.207 148.053 504.207 147.946C504.18 148.133 504.18 148.348 504.234 148.562C504.315 148.964 504.342 149.365 504.369 149.74Z" fill="#EDC993"/>
<path d="M492.307 149.338C492.227 149.311 492.119 149.311 492.011 149.285C491.419 149.258 490.773 149.579 490.423 150.088C490.207 150.409 490.127 150.811 490.153 151.266C490.153 150.945 490.261 150.65 490.423 150.409C490.773 149.9 491.419 149.579 492.011 149.606C492.119 149.606 492.2 149.633 492.307 149.659C493.169 149.9 493.411 151.052 493.438 151.828C493.438 151.775 493.465 151.695 493.438 151.641C493.411 150.891 493.223 149.606 492.307 149.338Z" fill="#C0DDE4"/>
<path d="M497.155 157.024C498.475 157.104 499.767 156.836 500.844 156.354C503.859 154.989 505.286 152.123 504.613 148.696C504.371 147.464 505.178 146.259 506.417 146.018C506.794 145.938 507.171 145.991 507.494 146.072C507.063 145.857 506.552 145.75 506.013 145.857C504.775 146.098 503.94 147.303 504.182 148.535C504.855 151.963 503.455 154.801 500.413 156.194C499.471 156.622 497.882 156.863 496.725 156.863C496.752 156.917 497.209 156.97 497.155 157.024Z" fill="#C0DDE4"/>
<path d="M493.924 145.402C494.139 145.456 494.328 145.536 494.516 145.616C494.193 145.456 493.87 145.348 493.52 145.241C490.935 144.518 488.082 145.616 486.574 147.866C484.851 150.436 485.255 153.783 487.678 156.863C488.109 157.425 488.593 157.934 489.105 158.389C488.647 158.711 488.189 159.032 487.705 159.326C484.824 161.121 481.62 162.459 479.897 162.995C478.685 163.397 478.012 164.682 478.416 165.887C478.659 166.637 479.278 167.172 479.978 167.36C479.439 167.092 479.009 166.637 478.793 166.021C478.389 164.816 479.062 163.531 480.274 163.129C481.889 162.62 484.851 161.388 487.57 159.755C489.751 158.657 491.124 157.398 491.985 156.22C491.985 156.22 491.985 156.22 491.985 156.247C492.901 155.337 493.762 153.355 493.709 152.23C493.682 151.481 493.574 150.061 492.659 149.82C492.632 149.82 492.605 149.82 492.578 149.82C493.224 150.249 493.385 151.32 493.412 151.963C493.412 152.23 493.412 152.498 493.385 152.766C493.359 152.953 493.305 153.168 493.251 153.355C493.224 153.409 493.224 153.489 493.197 153.542C493.116 153.783 493.009 154.024 492.901 154.265C492.901 154.265 492.901 154.265 492.901 154.292C492.766 154.533 492.632 154.801 492.47 155.042C492.443 155.096 492.416 155.149 492.389 155.176C491.582 156.408 490.343 157.372 489.185 158.255C488.782 157.88 488.405 157.479 488.055 157.024C485.659 153.944 485.255 150.597 486.951 148.026C488.485 145.777 491.339 144.679 493.924 145.402Z" fill="#C0DDE4"/>
<path d="M502.377 160.049C499.55 161.335 496.454 161.469 493.654 160.612C496.024 158.55 496.912 156.541 496.912 156.541C497.693 155.069 498.124 153.462 498.043 151.721C498.043 151.695 498.043 151.668 498.043 151.668C498.07 153.462 497.612 155.095 496.777 156.568C496.024 158.202 493.385 160.558 493.385 160.558C488.808 164.521 482.4 166.69 481.297 167.038C481.027 167.119 480.731 167.172 480.462 167.146C479.547 167.092 478.685 166.476 478.389 165.566C478.308 165.351 478.308 165.164 478.281 164.95C478.254 165.244 478.281 165.566 478.389 165.86C478.685 166.797 479.52 167.387 480.462 167.44C480.731 167.44 481.027 167.413 481.297 167.333C482.4 166.985 488.808 164.816 493.385 160.853C496.239 161.79 499.443 161.683 502.35 160.344C506.685 158.389 509.135 154.319 508.974 149.66C509.027 154.212 506.604 158.121 502.377 160.049Z" fill="#C0DDE4"/>
<path d="M401.309 216.39C399.505 223.084 396.059 224.45 393.205 224.45C386.905 224.45 382.839 223.62 381.789 216.39L380.928 200.752C380.928 194.486 386.905 193.2 393.205 193.2C399.505 193.2 404.62 198.288 404.62 204.554L401.309 216.39Z" fill="url(#paint1_linear)"/>
<path d="M450.497 216.39C452.301 223.084 455.72 224.45 458.601 224.45C464.901 224.45 468.966 223.62 470.016 216.39L470.878 200.752C470.878 194.486 464.901 193.2 458.601 193.2C452.301 193.2 447.186 198.288 447.186 204.554L450.497 216.39Z" fill="url(#paint2_linear)"/>
<path d="M376.915 178.633C376.915 184.23 372.015 188.755 365.958 188.755C359.9 188.755 355 184.23 355 178.633V166.208C355 160.612 359.9 156.086 365.958 156.086C372.015 156.086 376.915 160.612 376.915 166.208V178.633Z" fill="url(#paint3_linear)"/>
<path opacity="0.3" d="M365.958 156.086C359.9 156.086 355 160.612 355 166.208V167.252C355 161.656 359.9 157.13 365.958 157.13C372.015 157.13 376.915 161.656 376.915 167.252V166.208C376.915 160.612 372.015 156.086 365.958 156.086Z" fill="white"/>
<path d="M425.888 122.212C413.611 122.212 402.223 125.131 392.692 130.139L379.849 122.132C376.726 119.32 369.915 119.106 367.061 122.212C364.234 125.319 366.442 130.594 369.592 133.406L377.184 141.921C369.969 149.794 365.715 159.46 365.715 169.957C365.715 196.334 392.638 217.702 425.888 217.702C459.111 217.702 486.061 196.334 486.061 169.957C486.061 143.608 459.111 122.212 425.888 122.212Z" fill="url(#paint4_linear)"/>
<path d="M369.619 133.432L376.512 141.171C376.754 140.903 376.969 140.635 377.212 140.368L369.619 131.852C367.708 130.139 366.146 127.488 365.85 124.997C365.473 127.889 367.304 131.317 369.619 133.432Z" fill="#C0DDE4"/>
<path d="M423.384 214.864C390.458 214.864 366.227 195.128 365.769 169.074C365.769 169.368 365.742 169.663 365.742 169.957C365.742 196.333 392.665 217.702 425.915 217.702C459.138 217.702 486.088 196.333 486.088 169.957C486.088 169.689 486.061 169.422 486.061 169.181C485.496 195.182 456.284 214.864 423.384 214.864Z" fill="#C0DDE4"/>
<g opacity="0.8">
<path opacity="0.3" d="M367.088 124.248C369.915 121.141 376.727 121.356 379.877 124.14L392.719 132.147C402.223 127.14 413.638 124.221 425.915 124.221C458.708 124.221 485.361 145.054 486.035 170.948C486.035 170.6 486.061 170.279 486.061 169.931C486.061 143.554 459.138 122.186 425.888 122.186C413.611 122.186 402.223 125.104 392.692 130.112L379.85 122.105C376.727 119.294 369.915 119.079 367.061 122.186C365.904 123.471 365.608 125.078 365.85 126.765C366.038 125.854 366.415 124.997 367.088 124.248Z" fill="white"/>
<path opacity="0.8" d="M378.315 143.099L377.211 141.948C370.561 149.633 365.742 159.942 365.742 169.984C365.742 170.279 365.769 170.573 365.769 170.895C366.065 160.826 371.369 150.677 378.315 143.099Z" fill="#FFB82B"/>
</g>
<path d="M462.396 148.722C463.392 161.227 446.592 172.715 424.919 174.402C403.246 176.089 384.857 167.333 383.888 154.827C382.892 142.349 399.692 130.835 421.365 129.148C443.065 127.461 461.426 136.217 462.396 148.722Z" fill="url(#paint5_linear)"/>
<path d="M390.431 156.086C390.431 158.47 388.492 160.398 386.096 160.398C383.7 160.398 381.762 158.47 381.762 156.086C381.762 153.703 383.7 151.775 386.096 151.775C388.492 151.775 390.431 153.703 390.431 156.086Z" fill="#C0DDE4"/>
<path opacity="0.3" d="M400.635 139.484C399.181 139.484 397.889 138.707 397.269 137.422C396.866 136.592 396.812 135.655 397.162 134.771C397.539 133.807 398.319 133.03 399.316 132.629C407.635 129.228 416.95 127.407 426.293 127.407C435.635 127.407 444.95 129.201 453.269 132.629C454.266 133.03 455.046 133.807 455.423 134.771C455.773 135.655 455.719 136.592 455.316 137.422C454.696 138.681 453.404 139.484 451.95 139.484C451.439 139.484 450.954 139.377 450.496 139.189C443.012 136.137 434.639 134.53 426.293 134.53C417.919 134.53 409.546 136.137 402.089 139.189C401.604 139.377 401.119 139.484 400.635 139.484Z" fill="#FFB82B"/>
<path d="M454.049 136.94C453.349 138.386 451.599 139.002 450.092 138.386C434.853 132.173 416.922 132.147 401.684 138.386C400.176 139.002 398.426 138.386 397.726 136.94C397.026 135.494 397.753 133.727 399.422 133.03C416.034 126.202 435.715 126.202 452.326 133.03C454.022 133.7 454.749 135.494 454.049 136.94Z" fill="#C0DDE4"/>
<path d="M399.45 134.075C416.061 127.246 435.742 127.246 452.354 134.075C453.404 134.503 454.077 135.333 454.265 136.271C454.507 134.985 453.78 133.593 452.354 133.03C435.715 126.202 416.061 126.202 399.45 133.03C398.023 133.62 397.296 134.985 397.538 136.271C397.727 135.36 398.4 134.503 399.45 134.075Z" fill="#C0DDE4"/>
<path d="M454.049 135.896C453.349 137.342 451.599 137.958 450.092 137.342C434.853 131.129 416.923 131.102 401.684 137.342C400.176 137.958 398.426 137.342 397.726 135.896C397.619 135.681 397.565 135.467 397.511 135.253C397.403 135.815 397.457 136.404 397.726 136.94C398.426 138.386 400.176 139.002 401.684 138.386C416.896 132.147 434.853 132.174 450.092 138.386C451.599 139.002 453.349 138.386 454.049 136.94C454.319 136.404 454.373 135.815 454.265 135.253C454.238 135.467 454.157 135.681 454.049 135.896Z" fill="#C0DDE4"/>
<g opacity="0.7">
<path opacity="0.7" d="M477.714 156.354C478.98 160.746 479.357 165.351 479.168 169.957C478.953 174.563 478.145 179.249 476.476 183.748C474.807 188.246 472.33 192.611 468.857 196.253C467.995 197.164 467.107 198.047 466.138 198.851C465.653 199.252 465.168 199.654 464.657 200.029L464.28 200.323L463.876 200.618L463.203 201.1C461.238 202.492 459.164 203.724 457.064 204.849C448.611 209.321 439.026 211.516 429.684 211.383C424.999 211.329 420.368 210.713 415.899 209.615C413.664 209.053 411.484 208.41 409.357 207.58C407.23 206.777 405.13 205.84 403.191 204.661C412.13 205.92 420.88 205.947 429.307 204.822C437.707 203.671 445.73 201.153 452.918 197.164C456.499 195.128 459.999 192.906 462.691 190.282C465.464 187.604 467.834 184.39 469.772 180.775C473.676 173.599 476.018 165.217 477.714 156.354Z" fill="#C0DDE4"/>
</g>
<path opacity="0.5" d="M475.319 179.008C472.896 164.896 451.035 156.836 426.562 161.04C402.062 165.217 384.185 180.052 386.635 194.191C389.085 208.303 410.919 216.363 435.392 212.159C459.866 207.955 477.742 193.12 475.319 179.008Z" fill="url(#paint6_linear)"/>
<g opacity="0.5">
<path opacity="0.5" d="M369.754 124.971C371.262 124.141 373.092 124.06 374.789 124.274C376.485 124.489 378.154 125.051 379.662 125.828C381.169 126.604 382.542 127.595 383.754 128.746C384.965 129.871 386.042 131.156 386.85 132.656C385.315 131.933 383.942 131.103 382.569 130.299C381.196 129.523 379.85 128.746 378.477 128.05C377.104 127.354 375.731 126.711 374.304 126.149C372.904 125.667 371.423 125.185 369.754 124.971Z" fill="#FFB82B"/>
</g>
<path d="M402.924 66.0323V131.745V137.931C404.324 137.395 405.751 136.913 407.178 136.458C408.389 136.083 409.628 135.762 410.866 135.467C420.935 133.084 431.678 133.164 441.693 135.655C442.932 135.976 444.17 136.324 445.382 136.699C446.808 137.154 448.235 137.663 449.635 138.199V131.986V66.0323H402.924Z" fill="url(#paint7_linear)"/>
<path d="M407.178 70.7184V130.406V136.431C408.389 136.056 409.628 135.735 410.866 135.441V129.523V79.2606C411.082 79.2874 411.297 79.3141 411.512 79.3141C413.909 79.3141 415.847 77.3861 415.847 75.0029C415.847 74.7887 415.82 74.5745 415.793 74.3602H436.847C436.82 74.5745 436.793 74.7887 436.793 75.0029C436.793 77.3861 438.732 79.3141 441.101 79.3141C441.316 79.3141 441.532 79.2874 441.747 79.2606V129.71V135.655C442.985 135.976 444.224 136.324 445.435 136.699V130.647V70.7184H407.178Z" fill="#299FBB"/>
<path d="M430.654 105.53C430.089 105.53 429.631 105.771 429.254 106.226C428.904 106.681 428.554 107.243 428.258 107.886H433.023C432.942 107.11 432.673 106.52 432.269 106.119C431.839 105.717 431.3 105.53 430.654 105.53Z" fill="#299FBB"/>
<path d="M420.129 110.082C420.505 110.403 420.99 110.564 421.529 110.564C422.067 110.564 422.525 110.35 422.902 109.921C423.252 109.493 423.602 108.984 423.898 108.341H419.482C419.536 109.198 419.725 109.761 420.129 110.082Z" fill="#299FBB"/>
<path d="M426.293 94.2563C418.647 94.2563 412.428 100.415 412.428 108.047C412.428 115.652 418.647 121.837 426.293 121.837C433.939 121.837 440.158 115.679 440.158 108.047C440.158 100.415 433.939 94.2563 426.293 94.2563ZM438.462 109.52H436.093C436.066 110.537 435.932 111.448 435.77 112.197C435.582 112.974 435.366 113.563 435.124 114.018L432.028 112.974C432.216 112.653 432.405 112.197 432.593 111.608C432.782 111.019 432.889 110.323 432.97 109.52H427.478C427.235 110.082 426.939 110.618 426.643 111.18C426.347 111.742 425.97 112.224 425.539 112.653C425.109 113.081 424.597 113.429 423.978 113.697C423.385 113.965 422.659 114.099 421.824 114.099C420.262 114.099 419.078 113.697 418.216 112.867C417.355 112.064 416.816 110.939 416.547 109.546H414.07V106.735H416.439C416.493 105.931 416.601 105.262 416.762 104.646C416.924 104.057 417.112 103.495 417.328 103.013L420.316 103.977C420.182 104.298 420.02 104.673 419.885 105.128C419.751 105.583 419.643 106.119 419.562 106.708H424.651C424.893 106.146 425.189 105.583 425.512 105.021C425.835 104.459 426.212 103.95 426.643 103.521C427.074 103.093 427.585 102.718 428.178 102.45C428.77 102.183 429.47 102.022 430.278 102.022C431.947 102.022 433.239 102.45 434.182 103.28C435.097 104.111 435.716 105.262 435.985 106.708H438.462V109.52Z" fill="#299FBB"/>
<path d="M402.924 136.86V137.904C404.324 137.369 405.724 136.887 407.151 136.458C407.151 136.458 407.151 136.458 407.178 136.458C408.389 136.083 409.628 135.762 410.866 135.467C410.893 135.467 410.893 135.467 410.893 135.467C412.051 135.2 413.235 134.959 414.393 134.744C414.608 134.718 414.824 134.664 415.066 134.637C416.089 134.477 417.112 134.316 418.108 134.209C418.324 134.182 418.539 134.155 418.755 134.128C421.258 133.861 423.762 133.727 426.266 133.727C427.478 133.727 428.689 133.78 429.901 133.861C430.116 133.887 430.305 133.887 430.52 133.914C431.57 133.995 432.62 134.075 433.67 134.209C433.858 134.236 434.047 134.262 434.262 134.289C436.766 134.61 439.243 135.066 441.666 135.682C444.358 136.351 446.997 137.208 449.555 138.225C449.582 138.225 449.582 138.225 449.608 138.252V137.208C434.935 131.29 417.732 131.183 402.924 136.86Z" fill="#BFD4D9"/>
<path d="M454.75 99.3174C447.696 95.8362 439.215 98.7818 435.823 105.824C432.404 112.894 435.392 121.436 442.446 124.89C449.5 128.371 457.98 125.453 461.373 118.383C464.765 111.314 461.804 102.772 454.75 99.3174Z" fill="url(#paint8_linear)"/>
<path d="M461.373 118.383C457.98 125.453 449.5 128.371 442.446 124.89C435.392 121.436 432.404 112.921 435.823 105.824C439.215 98.7818 447.696 95.8362 454.75 99.3174C461.804 102.772 464.765 111.314 461.373 118.383Z" fill="#FFB82B"/>
<path d="M442.742 124.248C435.796 120.847 432.834 112.546 435.984 105.53C435.93 105.637 435.85 105.717 435.823 105.825C432.404 112.894 435.392 121.436 442.446 124.89C449.5 128.372 457.98 125.453 461.373 118.383C461.427 118.276 461.454 118.142 461.507 118.035C458.007 124.89 449.688 127.675 442.742 124.248Z" fill="#F5D5A4"/>
<path d="M454.401 100.067C461.32 103.468 464.254 111.742 461.185 118.705C461.239 118.597 461.32 118.49 461.374 118.383C464.766 111.341 461.804 102.798 454.751 99.3174C447.697 95.8362 439.216 98.7818 435.824 105.824C435.743 105.958 435.716 106.119 435.662 106.253C439.135 99.4513 447.454 96.6396 454.401 100.067Z" fill="#FFB82B"/>
<path d="M458.708 117.071C456.016 122.668 449.285 124.97 443.712 122.239C438.112 119.481 435.77 112.733 438.462 107.136C441.154 101.54 447.858 99.2369 453.458 101.995C459.058 104.726 461.401 111.474 458.708 117.071Z" fill="url(#paint9_linear)"/>
<path d="M443.954 121.704C438.462 118.999 436.092 112.412 438.596 106.869C438.542 106.949 438.489 107.03 438.435 107.11C435.742 112.707 438.085 119.455 443.685 122.186C449.285 124.944 455.989 122.641 458.681 117.018C458.708 116.937 458.735 116.857 458.762 116.75C456.016 122.213 449.473 124.408 443.954 121.704Z" fill="#F5D5A4"/>
<path d="M444.923 119.722C442.23 118.383 440.453 115.652 440.346 112.599C440.292 111.207 440.615 109.788 441.234 108.475C443.253 104.271 448.046 102.477 452.138 104.405C456.392 106.494 458.007 111.448 455.961 115.705C453.942 119.91 449.149 121.704 445.03 119.776L444.923 119.722Z" fill="#F5D5A4"/>
<path d="M455.638 115.572C453.754 119.481 449.096 121.061 445.192 119.16C441.315 117.259 439.646 112.573 441.531 108.663C443.388 104.78 448.073 103.174 451.977 105.075C455.854 106.976 457.496 111.662 455.638 115.572Z" fill="#FFD336"/>
<path d="M455.424 115.893C455.424 115.893 455.424 115.866 455.451 115.866C453.647 119.106 449.312 120.258 445.543 118.437C441.801 116.616 440.024 112.492 441.397 109.038V109.064C439.808 112.867 441.451 117.312 445.193 119.16C448.962 120.981 453.458 119.535 455.424 115.893Z" fill="#F5D5A4"/>
<path d="M451.708 105.61C455.504 107.485 457.12 111.983 455.477 115.813C455.531 115.732 455.585 115.652 455.612 115.572C457.47 111.689 455.827 106.976 451.95 105.075C448.073 103.174 443.389 104.78 441.504 108.663C441.45 108.77 441.423 108.877 441.396 108.958C443.389 105.235 447.912 103.736 451.708 105.61Z" fill="#FFB82B"/>
<path d="M445.73 116.429C445.326 116.188 445.003 115.973 444.761 115.759C444.491 115.545 444.33 115.331 444.195 115.143L445.299 113.965C445.38 114.126 445.515 114.313 445.703 114.501C445.891 114.688 446.134 114.875 446.403 115.036L447.749 112.251C447.588 112.01 447.453 111.769 447.318 111.501C447.184 111.234 447.076 110.966 446.995 110.671C446.915 110.377 446.915 110.082 446.941 109.734C446.968 109.413 447.076 109.065 447.265 108.663C447.588 107.994 447.991 107.565 448.503 107.324C449.015 107.083 449.58 107.056 450.172 107.19L450.738 106.012L451.949 106.601L451.411 107.726C451.68 107.886 451.922 108.074 452.138 108.261C452.353 108.422 452.515 108.609 452.676 108.824L451.599 109.948C451.518 109.814 451.411 109.681 451.249 109.547C451.115 109.413 450.926 109.279 450.738 109.145L449.526 111.662C449.688 111.903 449.822 112.144 449.984 112.439C450.118 112.706 450.226 112.974 450.307 113.269C450.388 113.563 450.388 113.885 450.388 114.206C450.361 114.527 450.28 114.875 450.091 115.25C449.741 115.973 449.311 116.482 448.772 116.723C448.234 116.991 447.641 117.071 447.022 116.911L446.457 118.116L445.245 117.526L445.73 116.429ZM450.065 108.797C449.741 108.69 449.472 108.69 449.284 108.824C449.095 108.931 448.934 109.118 448.826 109.306C448.691 109.573 448.665 109.841 448.718 110.109C448.799 110.35 448.907 110.618 449.041 110.912L450.065 108.797ZM447.076 115.357C447.372 115.438 447.641 115.438 447.884 115.277C448.099 115.143 448.288 114.929 448.449 114.634C448.584 114.34 448.638 114.072 448.557 113.804C448.476 113.537 448.395 113.269 448.207 113.001L447.076 115.357Z" fill="url(#paint10_linear)"/>
<path d="M450.36 114.206C450.387 113.885 450.36 113.563 450.28 113.269C450.226 112.947 450.091 112.68 449.956 112.439C449.822 112.171 449.687 111.903 449.499 111.662L450.71 109.145C450.899 109.279 451.087 109.413 451.222 109.547C451.383 109.681 451.491 109.841 451.572 109.948L452.649 108.824C452.487 108.636 452.299 108.449 452.11 108.261C451.922 108.074 451.68 107.913 451.383 107.726L451.922 106.601L450.71 106.012L450.145 107.19C449.553 107.056 448.987 107.083 448.476 107.324C447.964 107.565 447.56 107.994 447.237 108.663C447.049 109.065 446.941 109.413 446.914 109.734C446.887 110.055 446.914 110.377 446.968 110.671C447.049 110.966 447.13 111.234 447.291 111.501C447.426 111.742 447.587 112.01 447.722 112.251L446.376 115.036C446.08 114.849 445.864 114.688 445.676 114.501C445.487 114.313 445.353 114.152 445.272 113.965L444.168 115.143C444.276 115.331 444.464 115.545 444.733 115.759C445.003 115.973 445.326 116.188 445.703 116.429L445.164 117.553L446.376 118.142L446.941 116.937C447.56 117.071 448.18 117.018 448.691 116.75C449.23 116.482 449.66 116 450.01 115.277C450.253 114.875 450.333 114.554 450.36 114.206ZM448.799 116.161C448.314 116.402 447.776 116.455 447.21 116.321L446.914 116.268L446.376 117.393L445.783 117.098L446.295 116L445.999 115.839C445.622 115.625 445.299 115.411 445.056 115.197C444.976 115.116 444.895 115.063 444.841 114.983L445.083 114.742C445.164 114.849 445.245 114.929 445.353 115.036C445.568 115.224 445.783 115.411 446.08 115.598L446.403 115.786L448.26 111.93C448.26 111.93 447.83 111.234 447.695 110.993C447.56 110.725 447.453 110.484 447.399 110.216C447.345 109.975 447.318 109.734 447.345 109.493C447.345 109.279 447.426 109.065 447.56 108.77C447.776 108.315 448.045 108.02 448.422 107.86C448.88 107.645 449.364 107.619 449.93 107.753L450.226 107.833L450.764 106.735L451.356 107.03L450.818 108.127L451.114 108.288C451.383 108.449 451.626 108.609 451.814 108.77C451.868 108.824 451.922 108.877 452.003 108.931L451.814 109.118C451.76 109.065 451.68 108.984 451.599 108.904C451.464 108.77 451.276 108.636 451.06 108.476L450.764 108.261L449.014 111.876L449.176 112.117C449.337 112.332 449.472 112.599 449.606 112.867C449.741 113.162 449.849 113.376 449.876 113.617C449.93 113.858 449.956 114.126 449.956 114.393C449.93 114.608 449.876 114.822 449.768 115.036C449.499 115.625 449.203 115.973 448.799 116.161Z" fill="#F5D5A4"/>
<path d="M430.601 55.589C424.381 57.5973 421.07 64.2114 423.143 70.3436C425.243 76.5025 431.974 79.8765 438.166 77.8414C444.385 75.833 447.724 69.2457 445.624 63.0868C443.551 56.9546 436.82 53.5806 430.601 55.589Z" fill="url(#paint11_linear)"/>
<path d="M445.65 63.0868C447.75 69.2457 444.385 75.8598 438.193 77.8414C432 79.8497 425.27 76.5025 423.17 70.3436C421.097 64.2114 424.435 57.5705 430.627 55.589C436.82 53.5806 443.55 56.9546 445.65 63.0868Z" fill="#FFB82B"/>
<path d="M437.978 77.3059C431.867 79.2874 425.298 76.0473 423.09 70.0758C423.117 70.1562 423.117 70.2633 423.144 70.3436C425.244 76.5025 431.974 79.8765 438.167 77.8414C444.386 75.8331 447.724 69.2457 445.624 63.0868C445.598 62.9797 445.544 62.8994 445.49 62.819C447.428 68.8976 444.09 75.3243 437.978 77.3059Z" fill="#F5D5A4"/>
<path d="M430.843 56.2313C436.928 54.2766 443.497 57.4899 445.705 63.4078C445.678 63.3007 445.678 63.1936 445.651 63.1133C443.551 56.9811 436.847 53.6071 430.628 55.6155C424.409 57.6238 421.097 64.2379 423.17 70.3701C423.224 70.4772 423.278 70.5843 423.332 70.7182C421.42 64.6396 424.732 58.1861 430.843 56.2313Z" fill="#FFB82B"/>
<path d="M443.282 63.8365C444.951 68.71 442.286 73.9585 437.359 75.5384C432.432 77.1183 427.101 74.4673 425.459 69.5937C423.79 64.7201 426.455 59.4985 431.382 57.9186C436.309 56.3119 441.64 58.9629 443.282 63.8365Z" fill="url(#paint12_linear)"/>
<path d="M437.224 75.0834C432.378 76.6365 427.155 74.0926 425.432 69.3529C425.459 69.4332 425.459 69.5136 425.485 69.5939C427.128 74.4675 432.459 77.1185 437.385 75.5386C442.312 73.9587 444.951 68.737 443.309 63.8367C443.282 63.7563 443.228 63.7028 443.228 63.6224C444.682 68.4425 442.07 73.5303 437.224 75.0834Z" fill="#F5D5A4"/>
<path d="M436.658 73.3693C434.261 74.1459 431.65 73.53 429.792 71.7627C428.958 70.9593 428.311 69.9418 427.908 68.8171C426.669 65.1485 428.473 61.3193 432 60.1143C435.742 58.9093 439.592 60.9176 440.858 64.6397C442.096 68.3083 440.292 72.1375 436.738 73.3425L436.658 73.3693Z" fill="#F5D5A4"/>
<path d="M440.588 64.7201C441.746 68.1209 439.888 71.7359 436.469 72.8606C433.05 73.9585 429.334 72.1108 428.176 68.7368C427.019 65.3628 428.876 61.6942 432.296 60.5963C435.742 59.4717 439.457 61.3193 440.588 64.7201Z" fill="#FFD336"/>
<path d="M440.669 65.0417V65.015C441.477 67.9873 439.565 71.1739 436.281 72.245C432.996 73.3161 429.55 71.8969 428.365 69.0316V69.0584C429.658 72.245 433.184 73.932 436.496 72.8609C439.781 71.7898 441.611 68.3354 440.669 65.0417Z" fill="#F5D5A4"/>
<path d="M432.485 61.0518C435.823 59.9807 439.404 61.7212 440.669 64.9346C440.642 64.8542 440.642 64.8007 440.615 64.7204C439.458 61.3463 435.769 59.4987 432.323 60.5966C428.904 61.6945 427.046 65.363 428.204 68.737C428.231 68.8174 428.285 68.8977 428.311 68.978C427.315 65.6308 429.119 62.1229 432.485 61.0518Z" fill="#FFB82B"/>
<path d="M434.962 63.06L434.423 61.4801C431.758 62.3906 430.439 64.1043 430.816 66.434L430.008 66.7018L430.25 67.398L431.004 67.157C431.031 67.2641 431.058 67.3712 431.085 67.4516C431.139 67.6122 431.192 67.7461 431.246 67.88L430.492 68.121L430.869 69.2189L431.839 68.8976C433.05 70.5042 435.069 70.8791 437.385 70.0758L436.846 68.4959C435.473 68.9511 434.504 68.8708 433.831 68.2013L436.092 67.4248L435.716 66.3269L433.185 67.1838C433.131 67.0499 433.077 66.916 432.996 66.7553C432.969 66.6482 432.916 66.5411 432.889 66.4608L435.446 65.5771L435.231 64.9077L432.754 65.7646C432.566 64.4257 433.212 63.6491 434.962 63.06Z" fill="url(#paint13_linear)"/>
<path d="M434.962 63.06L434.423 61.4801C431.758 62.3906 430.439 64.1043 430.816 66.434L430.008 66.7018L430.25 67.398L431.004 67.157C431.031 67.2641 431.058 67.3712 431.085 67.4516C431.139 67.6122 431.192 67.7461 431.246 67.88L430.492 68.121L430.869 69.2189L431.839 68.8976C433.05 70.5042 435.069 70.8791 437.385 70.0758L436.846 68.4959C435.473 68.9511 434.504 68.8708 433.831 68.2013L436.092 67.4248L435.716 66.3269L433.185 67.1838C433.131 67.0499 433.077 66.916 432.996 66.7553C432.969 66.6482 432.916 66.5411 432.889 66.4608L435.446 65.5771L435.231 64.9077L432.754 65.7646C432.566 64.4257 433.212 63.6491 434.962 63.06ZM432.35 65.8181L432.404 66.3001H432.431C432.431 66.3001 432.592 66.8357 432.619 66.9428C432.673 67.0767 432.727 67.2106 432.781 67.3445L432.916 67.6658L433.292 67.6122L435.473 66.8625L435.608 67.2106L433.104 68.0675L433.562 68.5227C434.289 69.2457 435.258 69.4064 436.604 69.0315L436.9 69.8616C434.854 70.4507 433.185 70.049 432.162 68.6834L431.973 68.4691L431.112 68.7637L431.004 68.3888L431.785 68.121L431.623 67.7193C431.569 67.5855 431.516 67.4516 431.462 67.3177L431.3 66.7286L431.085 66.7553L431.273 66.7018L431.192 66.3537C430.789 63.8901 432.512 62.6316 434.181 61.9889L434.477 62.819C432.808 63.4884 432.162 64.3721 432.35 65.8181Z" fill="#F5D5A4"/>
<path d="M431.839 216.765C424.085 216.685 417.812 220.086 417.597 224.343C417.597 224.424 417.57 224.477 417.57 224.531L417.543 228.521C417.516 232.912 423.843 236.5 431.705 236.554C439.566 236.634 445.974 233.153 446.001 228.788V230.074C446.001 230.074 446.001 230.074 446.001 230.047L446.028 224.798C446.028 220.434 439.701 216.819 431.839 216.765Z" fill="url(#paint14_linear)"/>
<path d="M446.001 224.798C445.974 229.163 439.566 232.644 431.705 232.564C423.843 232.51 417.516 228.922 417.543 224.531C417.57 220.166 423.978 216.685 431.839 216.765C439.701 216.819 446.028 220.434 446.001 224.798Z" fill="#FFB82B"/>
<path d="M431.705 232.162C423.978 232.109 417.732 228.628 417.57 224.343C417.57 224.424 417.543 224.477 417.543 224.531C417.516 228.895 423.843 232.484 431.705 232.564C439.566 232.644 445.947 229.163 446.001 224.798C446.001 224.718 445.974 224.665 445.974 224.611C445.758 228.869 439.458 232.243 431.705 232.162Z" fill="#F5D5A4"/>
<path d="M431.839 217.22C439.539 217.301 445.758 220.755 445.946 225.013C445.946 224.932 445.973 224.879 445.973 224.798C446 220.434 439.673 216.845 431.812 216.765C423.95 216.685 417.569 220.193 417.516 224.531C417.516 224.611 417.543 224.691 417.569 224.798C417.839 220.541 424.112 217.14 431.839 217.22Z" fill="#FFB82B"/>
<path d="M443.039 224.772C443.012 228.226 437.95 230.984 431.731 230.931C425.512 230.877 420.477 228.039 420.504 224.558C420.531 221.103 425.592 218.345 431.812 218.399C438.058 218.452 443.066 221.318 443.039 224.772Z" fill="url(#paint15_linear)"/>
<path d="M431.731 230.609C425.619 230.556 420.666 227.798 420.531 224.397C420.531 224.45 420.504 224.504 420.504 224.558C420.477 228.012 425.512 230.85 431.731 230.931C437.95 230.984 443.012 228.226 443.039 224.772C443.039 224.718 443.012 224.665 443.012 224.611C442.823 228.012 437.842 230.663 431.731 230.609Z" fill="#F5D5A4"/>
<path d="M431.732 229.377C428.716 229.35 425.97 228.386 424.57 226.86C423.924 226.164 423.574 225.387 423.601 224.584C423.628 221.987 427.182 219.951 431.678 219.951C436.416 220.005 439.997 222.094 439.97 224.745C439.943 227.342 436.39 229.377 431.866 229.377H431.732Z" fill="#F5D5A4"/>
<path d="M439.62 224.745C439.593 227.155 436.066 229.056 431.732 229.029C427.397 229.002 423.897 227.021 423.924 224.611C423.951 222.201 427.478 220.3 431.786 220.326C436.147 220.353 439.647 222.335 439.62 224.745Z" fill="#FFD336"/>
<path d="M439.592 224.959C439.592 224.959 439.565 224.932 439.592 224.959C439.35 226.994 435.931 228.601 431.758 228.574C427.585 228.547 424.219 226.887 424.004 224.825C424.219 227.128 427.585 228.976 431.758 229.003C435.931 229.056 439.35 227.262 439.592 224.959Z" fill="#F5D5A4"/>
<path d="M431.813 220.648C436.04 220.701 439.432 222.576 439.593 224.905C439.593 224.852 439.62 224.798 439.62 224.745C439.647 222.335 436.147 220.353 431.813 220.326C427.478 220.273 423.951 222.201 423.951 224.611C423.951 224.664 423.978 224.718 423.978 224.798C424.14 222.442 427.586 220.594 431.813 220.648Z" fill="#FFB82B"/>
<path d="M431.059 227.53C430.601 227.503 430.224 227.476 429.901 227.423C429.578 227.369 429.336 227.316 429.12 227.235L429.605 226.379C429.739 226.459 429.928 226.486 430.197 226.539C430.439 226.593 430.736 226.62 431.059 226.646L431.086 224.933C430.843 224.852 430.601 224.745 430.359 224.665C430.116 224.558 429.901 224.451 429.713 224.317C429.524 224.183 429.363 224.049 429.255 223.861C429.12 223.701 429.066 223.487 429.066 223.246C429.066 222.844 429.255 222.523 429.605 222.282C429.982 222.041 430.466 221.88 431.059 221.826V221.103L432.405 221.13V221.826C432.728 221.826 433.024 221.88 433.266 221.907C433.536 221.933 433.778 221.987 433.993 222.067L433.509 222.871C433.374 222.817 433.213 222.79 433.024 222.764C432.836 222.737 432.62 222.71 432.405 222.683L432.378 224.236C432.62 224.317 432.863 224.397 433.105 224.504C433.347 224.611 433.563 224.718 433.751 224.852C433.939 224.959 434.101 225.147 434.209 225.307C434.316 225.468 434.397 225.656 434.397 225.897C434.397 226.352 434.209 226.7 433.832 226.968C433.482 227.235 432.97 227.396 432.324 227.476V228.226H430.978L431.059 227.53ZM431.678 222.656C431.328 222.683 431.113 222.737 430.978 222.871C430.843 222.978 430.789 223.085 430.789 223.219C430.789 223.379 430.87 223.54 431.032 223.647C431.22 223.754 431.409 223.861 431.678 223.969V222.656ZM431.813 226.673C432.109 226.646 432.351 226.566 432.486 226.432C432.647 226.325 432.701 226.164 432.701 225.977C432.701 225.789 432.62 225.656 432.459 225.522C432.297 225.415 432.082 225.281 431.813 225.2V226.673Z" fill="url(#paint16_linear)"/>
<path d="M434.289 225.307C434.154 225.147 434.02 224.986 433.831 224.852C433.643 224.718 433.427 224.584 433.185 224.504C432.943 224.397 432.7 224.317 432.458 224.236L432.485 222.683C432.7 222.71 432.916 222.737 433.104 222.764C433.293 222.79 433.454 222.844 433.589 222.871L434.073 222.067C433.831 222.014 433.616 221.96 433.346 221.907C433.104 221.853 432.808 221.826 432.485 221.826V221.13L431.139 221.103V221.826C430.52 221.907 430.035 222.041 429.685 222.282C429.335 222.523 429.146 222.844 429.146 223.246C429.146 223.487 429.2 223.701 429.335 223.861C429.443 224.049 429.604 224.183 429.793 224.317C429.981 224.451 430.196 224.558 430.439 224.665C430.681 224.745 430.923 224.852 431.166 224.933L431.139 226.646C430.816 226.62 430.52 226.593 430.277 226.539C430.035 226.486 429.82 226.432 429.685 226.379L429.2 227.235C429.389 227.289 429.658 227.369 429.981 227.423C430.304 227.476 430.681 227.503 431.139 227.53V228.226H432.485V227.476C433.104 227.396 433.616 227.235 433.993 226.968C434.37 226.727 434.558 226.352 434.558 225.897C434.477 225.682 434.396 225.468 434.289 225.307ZM433.723 226.673C433.4 226.914 432.943 227.048 432.377 227.128L432.081 227.155V227.851H431.408V227.182L431.085 227.155C430.654 227.128 430.277 227.102 429.954 227.048C429.846 227.048 429.766 227.021 429.658 226.994L429.766 226.807C429.873 226.834 430.008 226.861 430.143 226.887C430.412 226.941 430.708 226.968 431.058 226.994L431.435 227.021L431.462 224.638C431.462 224.638 430.762 224.397 430.546 224.317C430.304 224.21 430.116 224.102 429.954 223.995C429.82 223.888 429.685 223.781 429.604 223.647C429.523 223.54 429.496 223.406 429.496 223.246C429.496 222.951 429.604 222.764 429.873 222.576C430.196 222.362 430.627 222.228 431.193 222.174L431.489 222.148V221.451H432.162V222.121L432.485 222.148C432.781 222.174 433.077 222.201 433.32 222.228C433.4 222.228 433.481 222.255 433.562 222.255L433.481 222.415C433.4 222.389 433.293 222.389 433.185 222.362C432.996 222.335 432.781 222.308 432.539 222.282L432.162 222.255L432.135 224.504L432.377 224.584C432.62 224.665 432.862 224.745 433.077 224.852C433.32 224.959 433.508 225.04 433.643 225.174C433.804 225.281 433.939 225.415 434.046 225.548C434.127 225.656 434.154 225.789 434.154 225.923C434.1 226.218 433.966 226.459 433.723 226.673Z" fill="#F5D5A4"/>
<path d="M431.704 232.564C423.843 232.511 417.516 228.922 417.543 224.531L417.516 228.521C417.489 232.912 423.816 236.501 431.677 236.554C439.539 236.634 445.946 233.153 445.973 228.789V230.074C445.973 230.074 445.973 230.074 445.973 230.047L446 224.799C445.973 229.163 439.566 232.645 431.704 232.564Z" fill="url(#paint17_linear)"/>
<path d="M431.705 236.099C423.843 236.019 417.516 232.43 417.543 228.066L417.57 224.611C417.57 224.584 417.57 224.558 417.57 224.531L417.543 228.521C417.516 232.912 423.843 236.501 431.705 236.554C439.566 236.634 445.974 233.153 446.001 228.789V230.074C446.001 230.074 446.001 230.074 446.001 230.047V228.36C445.893 232.725 439.512 236.179 431.705 236.099Z" fill="#F5D5A4"/>
<g filter="url(#filter1_f)">
<path d="M316.879 192.503C309.639 188.93 300.935 191.953 297.454 199.181C293.945 206.437 297.012 215.204 304.251 218.749C311.491 222.322 320.195 219.326 323.676 212.071C327.158 204.815 324.119 196.048 316.879 192.503Z" fill="url(#paint18_linear)"/>
<path d="M323.676 212.071C320.195 219.326 311.491 222.322 304.251 218.749C297.012 215.204 293.945 206.464 297.454 199.181C300.935 191.953 309.639 188.93 316.879 192.503C324.119 196.048 327.158 204.815 323.676 212.071Z" fill="#FFB82B"/>
<path d="M304.555 218.09C297.426 214.599 294.387 206.08 297.62 198.879C297.564 198.989 297.481 199.072 297.454 199.181C293.945 206.437 297.012 215.204 304.251 218.749C311.491 222.322 320.195 219.326 323.676 212.071C323.732 211.961 323.759 211.824 323.815 211.714C320.222 218.749 311.684 221.607 304.555 218.09Z" fill="#F5D5A4"/>
<path d="M316.519 193.272C323.62 196.763 326.632 205.255 323.482 212.4C323.537 212.291 323.62 212.181 323.676 212.071C327.157 204.843 324.118 196.076 316.878 192.503C309.639 188.93 300.935 191.953 297.453 199.181C297.37 199.319 297.342 199.483 297.287 199.621C300.852 192.64 309.39 189.755 316.519 193.272Z" fill="#FFB82B"/>
<path d="M320.941 210.724C318.177 216.468 311.269 218.831 305.55 216.028C299.802 213.197 297.398 206.272 300.161 200.528C302.925 194.784 309.805 192.42 315.552 195.251C321.3 198.054 323.704 204.98 320.941 210.724Z" fill="url(#paint19_linear)"/>
<path d="M305.799 215.479C300.162 212.703 297.73 205.942 300.3 200.253C300.245 200.336 300.189 200.418 300.134 200.501C297.371 206.245 299.775 213.17 305.522 215.974C311.27 218.804 318.15 216.441 320.913 210.669C320.941 210.587 320.969 210.504 320.996 210.394C318.178 216.001 311.463 218.255 305.799 215.479Z" fill="#F5D5A4"/>
<path d="M306.793 213.445C304.03 212.071 302.206 209.267 302.096 206.134C302.041 204.705 302.372 203.249 303.008 201.902C305.08 197.587 309.999 195.746 314.199 197.725C318.564 199.868 320.222 204.953 318.122 209.322C316.05 213.637 311.131 215.479 306.904 213.5L306.793 213.445Z" fill="#F5D5A4"/>
<path d="M317.79 209.185C315.856 213.198 311.075 214.819 307.069 212.868C303.09 210.917 301.377 206.107 303.311 202.095C305.217 198.11 310.025 196.461 314.032 198.412C318.011 200.363 319.697 205.173 317.79 209.185Z" fill="#FFD336"/>
<path d="M317.571 209.515C317.571 209.515 317.571 209.487 317.598 209.487C315.747 212.813 311.298 213.994 307.43 212.125C303.589 210.257 301.765 206.024 303.174 202.479V202.506C301.544 206.409 303.23 210.971 307.07 212.868C310.939 214.736 315.553 213.252 317.571 209.515Z" fill="#F5D5A4"/>
<path d="M313.757 198.961C317.653 200.885 319.311 205.502 317.625 209.432C317.681 209.35 317.736 209.267 317.763 209.185C319.67 205.2 317.985 200.363 314.006 198.412C310.027 196.46 305.219 198.109 303.284 202.094C303.229 202.204 303.201 202.314 303.174 202.397C305.219 198.577 309.861 197.038 313.757 198.961Z" fill="#FFB82B"/>
<path d="M307.622 210.065C307.207 209.817 306.876 209.598 306.627 209.378C306.351 209.158 306.185 208.938 306.047 208.746L307.18 207.536C307.263 207.701 307.401 207.894 307.594 208.086C307.788 208.278 308.036 208.471 308.313 208.636L309.694 205.777C309.528 205.53 309.39 205.283 309.252 205.008C309.114 204.733 309.003 204.458 308.921 204.156C308.838 203.854 308.838 203.551 308.865 203.194C308.893 202.864 309.003 202.507 309.197 202.095C309.528 201.408 309.943 200.968 310.468 200.721C310.993 200.473 311.573 200.446 312.181 200.583L312.761 199.374L314.005 199.979L313.452 201.133C313.729 201.298 313.977 201.49 314.198 201.682C314.419 201.847 314.585 202.04 314.751 202.26L313.646 203.414C313.563 203.276 313.452 203.139 313.286 203.002C313.148 202.864 312.955 202.727 312.761 202.589L311.518 205.173C311.684 205.42 311.822 205.667 311.988 205.97C312.126 206.245 312.236 206.519 312.319 206.822C312.402 207.124 312.402 207.454 312.402 207.784C312.375 208.113 312.292 208.471 312.098 208.855C311.739 209.598 311.297 210.12 310.744 210.367C310.192 210.642 309.584 210.724 308.948 210.559L308.368 211.796L307.125 211.192L307.622 210.065ZM312.071 202.232C311.739 202.122 311.463 202.122 311.269 202.26C311.076 202.37 310.91 202.562 310.8 202.754C310.661 203.029 310.634 203.304 310.689 203.579C310.772 203.826 310.882 204.101 311.021 204.403L312.071 202.232ZM309.003 208.965C309.307 209.048 309.584 209.048 309.832 208.883C310.053 208.746 310.247 208.526 310.413 208.223C310.551 207.921 310.606 207.646 310.523 207.371C310.44 207.097 310.357 206.822 310.164 206.547L309.003 208.965Z" fill="url(#paint20_linear)"/>
<path d="M312.375 207.784C312.403 207.454 312.375 207.124 312.292 206.822C312.237 206.492 312.099 206.217 311.96 205.97C311.822 205.695 311.684 205.42 311.491 205.173L312.734 202.59C312.928 202.727 313.121 202.864 313.259 203.002C313.425 203.139 313.535 203.304 313.618 203.414L314.724 202.26C314.558 202.067 314.364 201.875 314.171 201.683C313.978 201.49 313.729 201.325 313.425 201.133L313.978 199.979L312.734 199.374L312.154 200.583C311.546 200.446 310.966 200.473 310.441 200.721C309.916 200.968 309.501 201.408 309.17 202.095C308.976 202.507 308.866 202.864 308.838 203.194C308.81 203.524 308.838 203.854 308.893 204.156C308.976 204.458 309.059 204.733 309.225 205.008C309.363 205.255 309.529 205.53 309.667 205.778L308.285 208.636C307.981 208.443 307.76 208.278 307.567 208.086C307.374 207.894 307.235 207.729 307.152 207.536L306.02 208.746C306.13 208.938 306.323 209.158 306.6 209.378C306.876 209.598 307.208 209.818 307.595 210.065L307.042 211.219L308.285 211.824L308.866 210.587C309.501 210.724 310.137 210.669 310.662 210.395C311.214 210.12 311.656 209.625 312.016 208.883C312.264 208.471 312.347 208.141 312.375 207.784ZM310.772 209.79C310.275 210.037 309.722 210.092 309.142 209.955L308.838 209.9L308.285 211.054L307.677 210.752L308.202 209.625L307.899 209.46C307.512 209.24 307.18 209.021 306.931 208.801C306.848 208.718 306.766 208.663 306.71 208.581L306.959 208.333C307.042 208.443 307.125 208.526 307.235 208.636C307.456 208.828 307.677 209.021 307.981 209.213L308.313 209.405L310.22 205.448C310.22 205.448 309.777 204.733 309.639 204.486C309.501 204.211 309.391 203.964 309.335 203.689C309.28 203.441 309.252 203.194 309.28 202.947C309.28 202.727 309.363 202.507 309.501 202.205C309.722 201.738 309.999 201.435 310.385 201.27C310.855 201.05 311.352 201.023 311.933 201.16L312.237 201.243L312.789 200.116L313.397 200.418L312.845 201.545L313.149 201.71C313.425 201.875 313.674 202.04 313.867 202.205C313.922 202.26 313.978 202.315 314.06 202.37L313.867 202.562C313.812 202.507 313.729 202.425 313.646 202.342C313.508 202.205 313.314 202.067 313.093 201.902L312.789 201.683L310.993 205.393L311.159 205.64C311.325 205.86 311.463 206.135 311.601 206.41C311.739 206.712 311.85 206.932 311.878 207.179C311.933 207.427 311.96 207.701 311.96 207.976C311.933 208.196 311.878 208.416 311.767 208.636C311.491 209.24 311.187 209.598 310.772 209.79Z" fill="#F5D5A4"/>
</g>
<g filter="url(#filter2_f)">
<path d="M30.1707 96.3716C26.1884 97.6576 24.068 101.893 25.3954 105.819C26.7401 109.763 31.0499 111.923 35.015 110.62C38.9973 109.334 41.1349 105.116 39.7903 101.173C38.4628 97.2461 34.153 95.0856 30.1707 96.3716Z" fill="url(#paint21_linear)"/>
<path d="M39.8081 101.173C41.1528 105.116 38.9979 109.351 35.0328 110.62C31.0678 111.906 26.758 109.763 25.4133 105.819C24.0859 101.893 26.2235 97.6404 30.1886 96.3716C34.1536 95.0856 38.4635 97.2461 39.8081 101.173Z" fill="#FFB82B"/>
<path d="M34.8947 110.277C30.9813 111.546 26.775 109.471 25.3613 105.648C25.3786 105.699 25.3786 105.768 25.3958 105.819C26.7405 109.763 31.0503 111.923 35.0153 110.62C38.9976 109.334 41.1353 105.116 39.7906 101.173C39.7734 101.104 39.7389 101.053 39.7044 101.001C40.9457 104.893 38.808 109.008 34.8947 110.277Z" fill="#F5D5A4"/>
<path d="M30.3262 96.783C34.2223 95.5313 38.4287 97.5889 39.8423 101.378C39.8251 101.31 39.8251 101.241 39.8078 101.19C38.4632 97.2631 34.1706 95.1027 30.1883 96.3886C26.206 97.6746 24.0856 101.91 25.413 105.836C25.4475 105.905 25.482 105.973 25.5164 106.059C24.2925 102.167 26.4129 98.0347 30.3262 96.783Z" fill="#FFB82B"/>
<path d="M38.2899 101.653C39.3588 104.773 37.6521 108.134 34.4973 109.145C31.3425 110.157 27.9291 108.46 26.8775 105.339C25.8087 102.218 27.5153 98.8748 30.6701 97.8632C33.8249 96.8344 37.2383 98.5319 38.2899 101.653Z" fill="url(#paint22_linear)"/>
<path d="M34.4122 108.854C31.3091 109.849 27.9646 108.22 26.8613 105.185C26.8786 105.236 26.8786 105.288 26.8958 105.339C27.9474 108.46 31.3608 110.157 34.5156 109.146C37.6704 108.134 39.3598 104.791 38.3082 101.653C38.291 101.601 38.2565 101.567 38.2565 101.516C39.1875 104.602 37.5152 107.86 34.4122 108.854Z" fill="#F5D5A4"/>
<path d="M34.0498 107.757C32.5155 108.254 30.8433 107.86 29.6538 106.728C29.1194 106.213 28.7056 105.562 28.447 104.842C27.654 102.493 28.809 100.041 31.0674 99.2692C33.4637 98.4976 35.9289 99.7836 36.7391 102.167C37.5321 104.516 36.3771 106.968 34.1015 107.74L34.0498 107.757Z" fill="#F5D5A4"/>
<path d="M36.5663 102.218C37.3076 104.396 36.1181 106.711 33.9287 107.431C31.7393 108.134 29.3603 106.951 28.619 104.79C27.8777 102.63 29.0672 100.281 31.2566 99.5778C33.4632 98.8577 35.8423 100.041 36.5663 102.218Z" fill="#FFD336"/>
<path d="M36.6186 102.424V102.407C37.1358 104.31 35.9118 106.351 33.8086 107.037C31.7054 107.723 29.4988 106.814 28.7402 104.979V104.996C29.5677 107.037 31.8261 108.117 33.9465 107.431C36.0497 106.745 37.222 104.533 36.6186 102.424Z" fill="#F5D5A4"/>
<path d="M31.3776 99.8696C33.5153 99.1837 35.8081 100.298 36.6184 102.356C36.6011 102.304 36.6011 102.27 36.5839 102.219C35.8426 100.058 33.4808 98.8751 31.2742 99.5781C29.0848 100.281 27.8953 102.63 28.6366 104.791C28.6538 104.842 28.6883 104.893 28.7055 104.945C28.0677 102.802 29.2227 100.555 31.3776 99.8696Z" fill="#FFB82B"/>
<path d="M32.9631 101.155L32.6183 100.144C30.9116 100.727 30.0668 101.824 30.3082 103.316L29.791 103.487L29.9462 103.933L30.4289 103.779C30.4461 103.847 30.4633 103.916 30.4806 103.967C30.5151 104.07 30.5495 104.156 30.584 104.242L30.1013 104.396L30.3427 105.099L30.9633 104.893C31.7391 105.922 33.032 106.162 34.5146 105.648L34.1698 104.636C33.2906 104.928 32.67 104.876 32.239 104.448L33.6871 103.95L33.4458 103.247L31.8253 103.796C31.7908 103.71 31.7563 103.625 31.7046 103.522C31.6873 103.453 31.6529 103.384 31.6356 103.333L33.2734 102.767L33.1354 102.339L31.5494 102.887C31.4287 102.03 31.8425 101.533 32.9631 101.155Z" fill="url(#paint23_linear)"/>
<path d="M32.9631 101.155L32.6183 100.144C30.9116 100.727 30.0668 101.824 30.3082 103.316L29.791 103.487L29.9462 103.933L30.4289 103.779C30.4461 103.847 30.4633 103.916 30.4806 103.967C30.5151 104.07 30.5495 104.156 30.584 104.242L30.1013 104.396L30.3427 105.099L30.9633 104.893C31.7391 105.922 33.032 106.162 34.5146 105.648L34.1698 104.636C33.2906 104.928 32.67 104.876 32.239 104.448L33.6871 103.95L33.4458 103.247L31.8253 103.796C31.7908 103.71 31.7563 103.625 31.7046 103.522C31.6873 103.453 31.6529 103.384 31.6356 103.333L33.2734 102.767L33.1354 102.339L31.5494 102.887C31.4287 102.03 31.8425 101.533 32.9631 101.155ZM31.2908 102.922L31.3253 103.23H31.3426C31.3426 103.23 31.446 103.573 31.4632 103.642C31.4977 103.727 31.5322 103.813 31.5667 103.899L31.6529 104.105L31.8942 104.07L33.2906 103.59L33.3768 103.813L31.7735 104.362L32.0666 104.653C32.5321 105.116 33.1527 105.219 34.0146 104.979L34.2043 105.511C32.8941 105.888 31.8253 105.631 31.1702 104.756L31.0495 104.619L30.4978 104.808L30.4289 104.568L30.9288 104.396L30.8254 104.139C30.7909 104.053 30.7564 103.967 30.7219 103.882L30.6185 103.504L30.4806 103.522L30.6013 103.487L30.5495 103.264C30.291 101.687 31.3943 100.881 32.4631 100.47L32.6527 101.001C31.5839 101.43 31.1702 101.996 31.2908 102.922Z" fill="#F5D5A4"/>
</g>
<defs>
<filter id="filter0_f" x="355" y="195" width="143" height="57" filterUnits="userSpaceOnUse" color-interpolation-filters="sRGB">
<feFlood flood-opacity="0" result="BackgroundImageFix"/>
<feBlend mode="normal" in="SourceGraphic" in2="BackgroundImageFix" result="shape"/>
<feGaussianBlur stdDeviation="2" result="effect1_foregroundBlur"/>
</filter>
<filter id="filter1_f" x="294" y="189" width="33.1182" height="33.2569" filterUnits="userSpaceOnUse" color-interpolation-filters="sRGB">
<feFlood flood-opacity="0" result="BackgroundImageFix"/>
<feBlend mode="normal" in="SourceGraphic" in2="BackgroundImageFix" result="shape"/>
<feGaussianBlur stdDeviation="1" result="effect1_foregroundBlur"/>
</filter>
<filter id="filter2_f" x="21" y="92" width="23.2085" height="23" filterUnits="userSpaceOnUse" color-interpolation-filters="sRGB">
<feFlood flood-opacity="0" result="BackgroundImageFix"/>
<feBlend mode="normal" in="SourceGraphic" in2="BackgroundImageFix" result="shape"/>
<feGaussianBlur stdDeviation="2" result="effect1_foregroundBlur"/>
</filter>
<linearGradient id="paint0_linear" x1="490.414" y1="143.629" x2="498.315" y2="176.863" gradientUnits="userSpaceOnUse">
<stop stop-color="#FAFAFA"/>
<stop offset="1" stop-color="#9DDEF2"/>
</linearGradient>
<linearGradient id="paint1_linear" x1="392.747" y1="194.687" x2="392.747" y2="227.275" gradientUnits="userSpaceOnUse">
<stop stop-color="#FAFAFA"/>
<stop offset="1" stop-color="#9DDEF2"/>
</linearGradient>
<linearGradient id="paint2_linear" x1="459.047" y1="194.687" x2="459.047" y2="227.275" gradientUnits="userSpaceOnUse">
<stop stop-color="#FAFAFA"/>
<stop offset="1" stop-color="#9DDEF2"/>
</linearGradient>
<linearGradient id="paint3_linear" x1="365.96" y1="155.831" x2="365.96" y2="189.05" gradientUnits="userSpaceOnUse">
<stop stop-color="#FAFAFA"/>
<stop offset="1" stop-color="#9DDEF2"/>
</linearGradient>
<linearGradient id="paint4_linear" x1="425.461" y1="126.651" x2="426.855" y2="266.961" gradientUnits="userSpaceOnUse">
<stop stop-color="#DDF1F8"/>
<stop offset="1" stop-color="#9DDEF2"/>
</linearGradient>
<linearGradient id="paint5_linear" x1="419.817" y1="128.451" x2="426.595" y2="176.294" gradientUnits="userSpaceOnUse">
<stop stop-color="#18AFDD"/>
<stop offset="0.117" stop-color="#1493BA"/>
<stop offset="0.3542" stop-color="#0D5F78"/>
<stop offset="0.5697" stop-color="#073645"/>
<stop offset="0.7559" stop-color="#03191F"/>
<stop offset="0.9056" stop-color="#010708"/>
<stop offset="1"/>
</linearGradient>
<linearGradient id="paint6_linear" x1="433.844" y1="213.347" x2="428.44" y2="162.616" gradientUnits="userSpaceOnUse">
<stop stop-color="#7CF2E4"/>
<stop offset="0.0718" stop-color="#8CF4E7"/>
<stop offset="0.2747" stop-color="#B5F8F0"/>
<stop offset="0.4734" stop-color="#D5FBF6"/>
<stop offset="0.6641" stop-color="#ECFDFB"/>
<stop offset="0.8435" stop-color="#FAFFFE"/>
<stop offset="1" stop-color="white"/>
</linearGradient>
<linearGradient id="paint7_linear" x1="426.292" y1="41.6194" x2="426.292" y2="159.752" gradientUnits="userSpaceOnUse">
<stop stop-color="#81B510"/>
<stop offset="0.0279" stop-color="#7FB410"/>
<stop offset="0.3315" stop-color="#6DAD12"/>
<stop offset="0.649" stop-color="#62A914"/>
<stop offset="1" stop-color="#5EA814"/>
</linearGradient>
<linearGradient id="paint8_linear" x1="435.709" y1="106.034" x2="461.418" y2="118.272" gradientUnits="userSpaceOnUse">
<stop stop-color="#DD3F18"/>
<stop offset="0.4157" stop-color="#E74A1B"/>
<stop offset="1" stop-color="#FD6120"/>
</linearGradient>
<linearGradient id="paint9_linear" x1="443.758" y1="122.247" x2="453.327" y2="101.925" gradientUnits="userSpaceOnUse">
<stop stop-color="#FF7B00"/>
<stop offset="0.0242" stop-color="#FF7D01"/>
<stop offset="0.6742" stop-color="#FFAB0F"/>
<stop offset="1" stop-color="#FFBD14"/>
</linearGradient>
<linearGradient id="paint10_linear" x1="445.847" y1="117.862" x2="451.291" y2="106.302" gradientUnits="userSpaceOnUse">
<stop stop-color="#FF7B00"/>
<stop offset="0.0242" stop-color="#FF7D01"/>
<stop offset="0.6742" stop-color="#FFAB0F"/>
<stop offset="1" stop-color="#FFBD14"/>
</linearGradient>
<linearGradient id="paint11_linear" x1="423.21" y1="70.5245" x2="445.549" y2="62.8326" gradientUnits="userSpaceOnUse">
<stop stop-color="#DD3F18"/>
<stop offset="0.4157" stop-color="#E74A1B"/>
<stop offset="1" stop-color="#FD6120"/>
</linearGradient>
<linearGradient id="paint12_linear" x1="437.423" y1="75.524" x2="431.421" y2="57.9037" gradientUnits="userSpaceOnUse">
<stop stop-color="#FF7B00"/>
<stop offset="0.0242" stop-color="#FF7D01"/>
<stop offset="0.6742" stop-color="#FFAB0F"/>
<stop offset="1" stop-color="#FFBD14"/>
</linearGradient>
<linearGradient id="paint13_linear" x1="430.886" y1="64.4945" x2="438.341" y2="68.1658" gradientUnits="userSpaceOnUse">
<stop stop-color="#FFBD14"/>
<stop offset="0.0524" stop-color="#FFB612"/>
<stop offset="0.2728" stop-color="#FF9C0A"/>
<stop offset="0.5004" stop-color="#FF8A04"/>
<stop offset="0.7377" stop-color="#FF7F01"/>
<stop offset="1" stop-color="#FF7B00"/>
</linearGradient>
<linearGradient id="paint14_linear" x1="417.528" y1="226.66" x2="446" y2="226.66" gradientUnits="userSpaceOnUse">
<stop stop-color="#DD3F18"/>
<stop offset="0.4157" stop-color="#E74A1B"/>
<stop offset="1" stop-color="#FD6120"/>
</linearGradient>
<linearGradient id="paint15_linear" x1="431.774" y1="230.923" x2="431.774" y2="218.41" gradientUnits="userSpaceOnUse">
<stop stop-color="#FF7B00"/>
<stop offset="0.0242" stop-color="#FF7D01"/>
<stop offset="0.6742" stop-color="#FFAB0F"/>
<stop offset="1" stop-color="#FFBD14"/>
</linearGradient>
<linearGradient id="paint16_linear" x1="431.782" y1="228.213" x2="431.782" y2="221.096" gradientUnits="userSpaceOnUse">
<stop stop-color="#FF7B00"/>
<stop offset="0.0242" stop-color="#FF7D01"/>
<stop offset="0.6742" stop-color="#FFAB0F"/>
<stop offset="1" stop-color="#FFBD14"/>
</linearGradient>
<linearGradient id="paint17_linear" x1="431.764" y1="236.561" x2="431.764" y2="224.531" gradientUnits="userSpaceOnUse">
<stop stop-color="#FF7B00"/>
<stop offset="1" stop-color="#FFBD14"/>
</linearGradient>
<linearGradient id="paint18_linear" x1="297.337" y1="199.396" x2="323.722" y2="211.956" gradientUnits="userSpaceOnUse">
<stop stop-color="#DD3F18"/>
<stop offset="0.4157" stop-color="#E74A1B"/>
<stop offset="1" stop-color="#FD6120"/>
</linearGradient>
<linearGradient id="paint19_linear" x1="305.596" y1="216.037" x2="315.418" y2="195.18" gradientUnits="userSpaceOnUse">
<stop stop-color="#FF7B00"/>
<stop offset="0.0242" stop-color="#FF7D01"/>
<stop offset="0.6742" stop-color="#FFAB0F"/>
<stop offset="1" stop-color="#FFBD14"/>
</linearGradient>
<linearGradient id="paint20_linear" x1="307.742" y1="211.536" x2="313.33" y2="199.671" gradientUnits="userSpaceOnUse">
<stop stop-color="#FF7B00"/>
<stop offset="0.0242" stop-color="#FF7D01"/>
<stop offset="0.6742" stop-color="#FFAB0F"/>
<stop offset="1" stop-color="#FFBD14"/>
</linearGradient>
<linearGradient id="paint21_linear" x1="25.4381" y1="105.935" x2="39.7426" y2="101.01" gradientUnits="userSpaceOnUse">
<stop stop-color="#DD3F18"/>
<stop offset="0.4157" stop-color="#E74A1B"/>
<stop offset="1" stop-color="#FD6120"/>
</linearGradient>
<linearGradient id="paint22_linear" x1="34.5382" y1="109.136" x2="30.6952" y2="97.8536" gradientUnits="userSpaceOnUse">
<stop stop-color="#FF7B00"/>
<stop offset="0.0242" stop-color="#FF7D01"/>
<stop offset="0.6742" stop-color="#FFAB0F"/>
<stop offset="1" stop-color="#FFBD14"/>
</linearGradient>
<linearGradient id="paint23_linear" x1="30.3534" y1="102.074" x2="35.1269" y2="104.425" gradientUnits="userSpaceOnUse">
<stop stop-color="#FFBD14"/>
<stop offset="0.0524" stop-color="#FFB612"/>
<stop offset="0.2728" stop-color="#FF9C0A"/>
<stop offset="0.5004" stop-color="#FF8A04"/>
<stop offset="0.7377" stop-color="#FF7F01"/>
<stop offset="1" stop-color="#FF7B00"/>
</linearGradient>
</defs>
</svg>
