<svg width="540" height="300" viewBox="0 0 540 300" fill="none" xmlns="http://www.w3.org/2000/svg">
<mask id="mask0" mask-type="alpha" maskUnits="userSpaceOnUse" x="0" y="0" width="540" height="300">
<rect width="540" height="300" rx="5" fill="#F6F6F6"/>
</mask>
<g mask="url(#mask0)">
<rect width="540" height="300" rx="5" fill="#F6F6F6"/>
<g filter="url(#filter0_f)">
<path d="M32.2208 138.317C38.565 135.186 46.1926 137.835 49.2436 144.169C52.3188 150.527 49.631 158.21 43.2868 161.317C36.9427 164.448 29.3151 161.823 26.2641 155.465C23.2131 149.107 25.8767 141.424 32.2208 138.317Z" fill="url(#paint0_linear)"/>
<path d="M26.2641 155.465C29.3151 161.823 36.9427 164.448 43.2868 161.317C49.631 158.21 52.3188 150.552 49.2436 144.169C46.1926 137.835 38.565 135.186 32.2208 138.317C25.8767 141.424 23.2131 149.107 26.2641 155.465Z" fill="#FFB82B"/>
<path d="M43.0205 160.739C49.2678 157.681 51.9314 150.215 49.0983 143.905C49.1467 144.001 49.2194 144.073 49.2436 144.17C52.3188 150.528 49.631 158.21 43.2868 161.317C36.9427 164.448 29.3151 161.823 26.2641 155.465C26.2157 155.369 26.1914 155.248 26.143 155.152C29.2909 161.317 36.7732 163.822 43.0205 160.739Z" fill="#F5D5A4"/>
<path d="M32.5354 138.991C26.3123 142.05 23.673 149.492 26.4334 155.754C26.385 155.657 26.3123 155.561 26.2639 155.465C23.2129 149.131 25.8765 141.448 32.2206 138.317C38.5648 135.186 46.1924 137.835 49.2434 144.169C49.316 144.29 49.3402 144.434 49.3887 144.555C46.265 138.437 38.7828 135.909 32.5354 138.991Z" fill="#FFB82B"/>
<path d="M28.6616 154.285C31.0831 159.318 37.1367 161.389 42.1491 158.933C47.1857 156.452 49.2923 150.383 46.8709 145.349C44.4495 140.316 38.4201 138.245 33.3835 140.725C28.3469 143.182 26.2402 149.251 28.6616 154.285Z" fill="url(#paint1_linear)"/>
<path d="M41.9304 158.451C46.8701 156.019 49.001 150.094 46.749 145.109C46.7975 145.181 46.8459 145.253 46.8943 145.326C49.3158 150.359 47.2091 156.428 42.1725 158.885C37.1359 161.365 31.1065 159.294 28.6851 154.237C28.6609 154.164 28.6367 154.092 28.6124 153.996C31.0823 158.909 36.9664 160.884 41.9304 158.451Z" fill="#F5D5A4"/>
<path d="M41.06 156.669C43.4814 155.465 45.0796 153.008 45.1764 150.262C45.2249 149.01 44.9343 147.734 44.3774 146.554C42.5613 142.772 38.2511 141.159 34.5705 142.893C30.7446 144.771 29.2918 149.227 31.1321 153.056C32.9481 156.837 37.2583 158.451 40.9631 156.717L41.06 156.669Z" fill="#F5D5A4"/>
<path d="M31.4236 152.936C33.1186 156.452 37.3077 157.873 40.8188 156.163C44.3056 154.453 45.8069 150.239 44.1119 146.722C42.4411 143.23 38.2278 141.785 34.7167 143.495C31.2298 145.205 29.7528 149.42 31.4236 152.936Z" fill="#FFD336"/>
<path d="M31.6147 153.225C31.6147 153.225 31.6147 153.201 31.5905 153.201C33.2129 156.115 37.1114 157.15 40.5014 155.513C43.8672 153.875 45.4654 150.166 44.2304 147.059V147.083C45.6591 150.503 44.182 154.501 40.8162 156.163C37.4262 157.801 33.3824 156.5 31.6147 153.225Z" fill="#F5D5A4"/>
<path d="M34.9564 143.977C31.5421 145.663 30.0893 149.709 31.5663 153.153C31.5179 153.081 31.4695 153.008 31.4453 152.936C29.7745 149.444 31.2515 145.205 34.7384 143.495C38.2253 141.785 42.4386 143.23 44.1336 146.722C44.182 146.819 44.2063 146.915 44.2305 146.987C42.4386 143.64 38.3706 142.291 34.9564 143.977Z" fill="#FFB82B"/>
<path d="M40.3307 153.707C40.6939 153.49 40.9845 153.297 41.2024 153.105C41.4446 152.912 41.5899 152.719 41.7109 152.551L40.7181 151.491C40.6455 151.636 40.5244 151.804 40.3549 151.973C40.1854 152.141 39.9675 152.31 39.7254 152.454L38.5146 149.95C38.6599 149.733 38.781 149.516 38.9021 149.275C39.0231 149.034 39.12 148.794 39.1926 148.529C39.2653 148.264 39.2653 147.999 39.2411 147.686C39.2169 147.397 39.12 147.084 38.9505 146.722C38.6599 146.12 38.2967 145.735 37.8366 145.518C37.3766 145.301 36.8681 145.277 36.3353 145.398L35.8268 144.338L34.7372 144.868L35.2215 145.88C34.9793 146.024 34.7614 146.193 34.5677 146.361C34.374 146.506 34.2287 146.674 34.0834 146.867L35.052 147.878C35.1246 147.758 35.2215 147.638 35.3668 147.517C35.4878 147.397 35.6573 147.276 35.8268 147.156L36.9165 149.42C36.7712 149.637 36.6501 149.853 36.5048 150.118C36.3838 150.359 36.2869 150.6 36.2143 150.865C36.1416 151.13 36.1416 151.419 36.1416 151.708C36.1658 151.997 36.2385 152.31 36.408 152.647C36.7228 153.297 37.1102 153.755 37.5945 153.972C38.0788 154.213 38.6115 154.285 39.1684 154.14L39.6769 155.224L40.7666 154.694L40.3307 153.707ZM36.4322 146.843C36.7228 146.747 36.9649 146.747 37.1344 146.867C37.3039 146.963 37.4492 147.132 37.5461 147.3C37.6671 147.541 37.6913 147.782 37.6429 148.023C37.5703 148.24 37.4734 148.481 37.3523 148.745L36.4322 146.843ZM39.12 152.743C38.8536 152.816 38.6115 152.816 38.3936 152.671C38.1998 152.551 38.0303 152.358 37.8851 152.093C37.764 151.828 37.7156 151.587 37.7882 151.347C37.8608 151.106 37.9335 150.865 38.103 150.624L39.12 152.743Z" fill="url(#paint2_linear)"/>
<path d="M36.167 151.708C36.1428 151.419 36.167 151.13 36.2396 150.865C36.2881 150.576 36.4091 150.335 36.5302 150.119C36.6513 149.878 36.7724 149.637 36.9419 149.42L35.8522 147.156C35.6827 147.277 35.5132 147.397 35.3921 147.517C35.2468 147.638 35.15 147.782 35.0774 147.879L34.1088 146.867C34.2541 146.699 34.4236 146.53 34.5931 146.361C34.7626 146.193 34.9805 146.048 35.2469 145.88L34.7626 144.868L35.8522 144.338L36.3607 145.398C36.8934 145.278 37.4019 145.302 37.862 145.518C38.3221 145.735 38.6853 146.121 38.9759 146.723C39.1454 147.084 39.2422 147.397 39.2665 147.686C39.2907 147.975 39.2665 148.264 39.218 148.529C39.1454 148.794 39.0727 149.035 38.9275 149.276C38.8064 149.492 38.6611 149.733 38.54 149.95L39.7507 152.455C40.0171 152.286 40.2108 152.142 40.3803 151.973C40.5498 151.804 40.6709 151.66 40.7435 151.491L41.7363 152.551C41.6395 152.72 41.47 152.912 41.2278 153.105C40.9857 153.298 40.6951 153.49 40.3561 153.707L40.8404 154.719L39.7507 155.248L39.2422 154.165C38.6853 154.285 38.1284 154.237 37.6683 153.996C37.184 153.755 36.7966 153.322 36.4818 152.671C36.2639 152.31 36.1912 152.021 36.167 151.708ZM37.5714 153.466C38.0073 153.683 38.4916 153.731 39.0001 153.611L39.2665 153.562L39.7507 154.574L40.2835 154.309L39.8234 153.322L40.0897 153.177C40.4287 152.984 40.7193 152.792 40.9372 152.599C41.0099 152.527 41.0825 152.479 41.131 152.406L40.913 152.19C40.8404 152.286 40.7677 152.358 40.6709 152.455C40.4772 152.623 40.2835 152.792 40.0171 152.96L39.7265 153.129L38.0557 149.661C38.0557 149.661 38.4432 149.035 38.5642 148.818C38.6853 148.577 38.7822 148.36 38.8306 148.12C38.879 147.903 38.9032 147.686 38.879 147.469C38.879 147.277 38.8064 147.084 38.6853 146.819C38.4916 146.41 38.2494 146.145 37.9104 146C37.4988 145.807 37.0629 145.783 36.5544 145.904L36.2881 145.976L35.8038 144.989L35.2711 145.254L35.7554 146.241L35.489 146.386C35.2468 146.53 35.0289 146.675 34.8594 146.819C34.811 146.867 34.7626 146.915 34.6899 146.964L34.8594 147.132C34.9078 147.084 34.9805 147.012 35.0531 146.939C35.1742 146.819 35.3437 146.699 35.5374 146.554L35.8038 146.361L37.3777 149.613L37.2324 149.829C37.0871 150.022 36.9661 150.263 36.845 150.504C36.7239 150.769 36.6271 150.961 36.6029 151.178C36.5544 151.395 36.5302 151.636 36.5302 151.877C36.5544 152.069 36.6029 152.262 36.6997 152.455C36.9419 152.984 37.2082 153.298 37.5714 153.466Z" fill="#F5D5A4"/>
</g>
<g filter="url(#filter1_f)">
<path d="M280.469 28.3257C283.959 29.4526 285.817 33.1639 284.653 36.6048C283.475 40.0607 279.698 41.954 276.224 40.812C272.734 39.6851 270.861 35.9888 272.039 32.5329C273.202 29.092 276.979 27.1987 280.469 28.3257Z" fill="url(#paint3_linear)"/>
<path d="M272.023 32.5329C270.845 35.9888 272.733 39.7001 276.208 40.812C279.682 41.9389 283.459 40.0607 284.637 36.6048C285.801 33.1639 283.927 29.4376 280.453 28.3257C276.978 27.1987 273.201 29.092 272.023 32.5329Z" fill="#FFB82B"/>
<path d="M276.329 40.5114C279.759 41.6233 283.445 39.8052 284.684 36.4544C284.668 36.4995 284.668 36.5596 284.653 36.6047C283.475 40.0606 279.698 41.9538 276.224 40.8119C272.734 39.6849 270.861 35.9886 272.039 32.5327C272.054 32.4726 272.084 32.4275 272.114 32.3824C271.027 35.7933 272.9 39.3995 276.329 40.5114Z" fill="#F5D5A4"/>
<path d="M280.332 28.6862C276.918 27.5893 273.232 29.3924 271.993 32.7131C272.008 32.653 272.008 32.5929 272.023 32.5478C273.202 29.1069 276.963 27.2137 280.453 28.3406C283.943 29.4675 285.801 33.1789 284.638 36.6198C284.608 36.6799 284.577 36.74 284.547 36.8151C285.62 33.4043 283.762 29.7831 280.332 28.6862Z" fill="#FFB82B"/>
<path d="M273.352 32.9535C272.416 35.6882 273.911 38.6332 276.676 39.5198C279.441 40.4063 282.432 38.9187 283.353 36.1841C284.29 33.4494 282.794 30.5194 280.03 29.6328C277.265 28.7313 274.274 30.2188 273.352 32.9535Z" fill="url(#paint4_linear)"/>
<path d="M276.752 39.2644C279.471 40.1359 282.402 38.7085 283.369 36.0489C283.354 36.094 283.354 36.1391 283.339 36.1842C282.417 38.9188 279.426 40.4064 276.662 39.5199C273.897 38.6334 272.416 35.7033 273.338 32.9536C273.353 32.9086 273.383 32.8785 273.383 32.8334C272.567 35.5381 274.033 38.3929 276.752 39.2644Z" fill="#F5D5A4"/>
<path d="M277.069 38.3026C278.413 38.7384 279.878 38.3928 280.921 37.4011C281.389 36.9503 281.752 36.3793 281.978 35.7482C282.673 33.6897 281.661 31.541 279.682 30.8649C277.582 30.1887 275.422 31.3156 274.712 33.4042C274.017 35.4627 275.029 37.6114 277.023 38.2876L277.069 38.3026Z" fill="#F5D5A4"/>
<path d="M274.864 33.4494C274.214 35.3577 275.257 37.3861 277.175 38.0172C279.094 38.6333 281.179 37.5965 281.828 35.7033C282.478 33.81 281.435 31.7515 279.517 31.1354C277.583 30.5044 275.498 31.5411 274.864 33.4494Z" fill="#FFD336"/>
<path d="M274.819 33.6298V33.6148C274.365 35.2827 275.438 37.0707 277.281 37.6718C279.124 38.2728 281.058 37.4764 281.723 35.8687V35.8837C280.998 37.6718 279.018 38.6184 277.16 38.0173C275.317 37.4163 274.29 35.478 274.819 33.6298Z" fill="#F5D5A4"/>
<path d="M279.411 31.391C277.537 30.79 275.528 31.7667 274.818 33.5697C274.833 33.5247 274.833 33.4946 274.848 33.4495C275.498 31.5563 277.567 30.5195 279.501 31.1356C281.42 31.7516 282.462 33.8102 281.813 35.7034C281.797 35.7485 281.767 35.7935 281.752 35.8386C282.311 33.9604 281.299 31.992 279.411 31.391Z" fill="#FFB82B"/>
<path d="M278.021 32.5178L278.323 31.6313C279.819 32.1422 280.559 33.1038 280.348 34.411L280.801 34.5613L280.665 34.952L280.242 34.8167C280.227 34.8768 280.212 34.9369 280.196 34.982C280.166 35.0722 280.136 35.1473 280.106 35.2224L280.529 35.3577L280.317 35.9737L279.773 35.7934C279.094 36.695 277.961 36.9053 276.661 36.4545L276.964 35.568C277.734 35.8235 278.278 35.7784 278.656 35.4027L277.387 34.967L277.598 34.3509L279.018 34.8318C279.048 34.7566 279.079 34.6815 279.124 34.5914C279.139 34.5312 279.169 34.4711 279.184 34.4261L277.749 33.9302L277.87 33.5546L279.26 34.0354C279.366 33.2841 279.003 32.8484 278.021 32.5178Z" fill="url(#paint5_linear)"/>
<path d="M282.359 32.8865L282.661 32C284.157 32.5109 284.897 33.4725 284.685 34.7798L285.139 34.93L285.003 35.3207L284.58 35.1855C284.565 35.2456 284.549 35.3057 284.534 35.3507C284.504 35.4409 284.474 35.516 284.444 35.5911L284.867 35.7264L284.655 36.3424L284.111 36.1621C283.432 37.0637 282.299 37.274 280.999 36.8233L281.301 35.9367C282.072 36.1922 282.616 36.1471 282.993 35.7715L281.724 35.3357L281.936 34.7197L283.356 35.2005C283.386 35.1253 283.416 35.0502 283.462 34.9601C283.477 34.9 283.507 34.8399 283.522 34.7948L282.087 34.2989L282.208 33.9233L283.598 34.4041C283.703 33.6528 283.341 33.2171 282.359 32.8865ZM283.824 34.4342L283.794 34.7046H283.779C283.779 34.7046 283.688 35.0051 283.673 35.0652C283.643 35.1404 283.613 35.2155 283.583 35.2906L283.507 35.4709L283.296 35.4409L282.072 35.0202L281.996 35.2155L283.401 35.6963L283.145 35.9518C282.737 36.3575 282.193 36.4476 281.437 36.2373L281.271 36.703C282.419 37.0336 283.356 36.8082 283.93 36.0419L284.036 35.9217L284.519 36.087L284.58 35.8766L284.142 35.7264L284.232 35.501C284.262 35.4259 284.293 35.3507 284.323 35.2756L284.414 34.945L284.534 34.9601L284.429 34.93L284.474 34.7347C284.701 33.3523 283.734 32.6461 282.797 32.2855L282.631 32.7513C283.568 33.1269 283.93 33.6228 283.824 34.4342Z" fill="#F5D5A4"/>
<path d="M412.359 21.8865L412.661 21C414.157 21.5109 414.897 22.4725 414.685 23.7798L415.139 23.93L415.003 24.3207L414.58 24.1855C414.565 24.2456 414.549 24.3057 414.534 24.3507C414.504 24.4409 414.474 24.516 414.444 24.5911L414.867 24.7264L414.655 25.3424L414.111 25.1621C413.432 26.0637 412.299 26.274 410.999 25.8233L411.301 24.9367C412.072 25.1922 412.616 25.1471 412.993 24.7715L411.724 24.3357L411.936 23.7197L413.356 24.2005C413.386 24.1253 413.416 24.0502 413.462 23.9601C413.477 23.9 413.507 23.8399 413.522 23.7948L412.087 23.2989L412.208 22.9233L413.598 23.4041C413.703 22.6528 413.341 22.2171 412.359 21.8865ZM413.824 23.4342L413.794 23.7046H413.779C413.779 23.7046 413.688 24.0051 413.673 24.0652C413.643 24.1404 413.613 24.2155 413.583 24.2906L413.507 24.4709L413.296 24.4409L412.072 24.0202L411.996 24.2155L413.401 24.6963L413.145 24.9518C412.737 25.3575 412.193 25.4476 411.437 25.2373L411.271 25.703C412.419 26.0336 413.356 25.8082 413.93 25.0419L414.036 24.9217L414.519 25.087L414.58 24.8766L414.142 24.7264L414.232 24.501C414.262 24.4259 414.293 24.3507 414.323 24.2756L414.414 23.945L414.534 23.9601L414.429 23.93L414.474 23.7347C414.701 22.3523 413.734 21.6461 412.797 21.2855L412.631 21.7513C413.568 22.1269 413.93 22.6228 413.824 23.4342Z" fill="#F5D5A4"/>
</g>
<path d="M98.5417 150.637V161H97.461V151.584H90.9024V161H89.8217V150.637H98.5417ZM105 161.074C104.249 161.074 103.573 160.906 102.971 160.571C102.369 160.225 101.895 159.751 101.55 159.149C101.205 158.547 101.032 157.866 101.032 157.106C101.032 156.346 101.205 155.665 101.55 155.063C101.895 154.461 102.369 153.992 102.971 153.657C103.573 153.321 104.249 153.153 105 153.153C105.75 153.153 106.426 153.321 107.028 153.657C107.63 153.992 108.099 154.461 108.434 155.063C108.78 155.665 108.952 156.346 108.952 157.106C108.952 157.866 108.78 158.547 108.434 159.149C108.099 159.751 107.63 160.225 107.028 160.571C106.426 160.906 105.75 161.074 105 161.074ZM105 160.141C105.552 160.141 106.046 160.018 106.48 159.771C106.924 159.515 107.27 159.154 107.516 158.69C107.763 158.227 107.886 157.699 107.886 157.106C107.886 156.514 107.763 155.986 107.516 155.522C107.27 155.058 106.924 154.703 106.48 154.456C106.046 154.2 105.552 154.071 105 154.071C104.447 154.071 103.948 154.2 103.504 154.456C103.07 154.703 102.725 155.058 102.468 155.522C102.221 155.986 102.098 156.514 102.098 157.106C102.098 157.699 102.221 158.227 102.468 158.69C102.725 159.154 103.07 159.515 103.504 159.771C103.948 160.018 104.447 160.141 105 160.141ZM118.187 153.213V161H117.136V154.145H112.25V161H111.199V153.213H118.187ZM124.387 161.074C123.637 161.074 122.961 160.906 122.359 160.571C121.757 160.225 121.283 159.751 120.938 159.149C120.592 158.547 120.42 157.866 120.42 157.106C120.42 156.346 120.592 155.665 120.938 155.063C121.283 154.461 121.757 153.992 122.359 153.657C122.961 153.321 123.637 153.153 124.387 153.153C125.138 153.153 125.814 153.321 126.416 153.657C127.018 153.992 127.487 154.461 127.822 155.063C128.168 155.665 128.34 156.346 128.34 157.106C128.34 157.866 128.168 158.547 127.822 159.149C127.487 159.751 127.018 160.225 126.416 160.571C125.814 160.906 125.138 161.074 124.387 161.074ZM124.387 160.141C124.94 160.141 125.434 160.018 125.868 159.771C126.312 159.515 126.658 159.154 126.904 158.69C127.151 158.227 127.274 157.699 127.274 157.106C127.274 156.514 127.151 155.986 126.904 155.522C126.658 155.058 126.312 154.703 125.868 154.456C125.434 154.2 124.94 154.071 124.387 154.071C123.835 154.071 123.336 154.2 122.892 154.456C122.458 154.703 122.112 155.058 121.856 155.522C121.609 155.986 121.486 156.514 121.486 157.106C121.486 157.699 121.609 158.227 121.856 158.69C122.112 159.154 122.458 159.515 122.892 159.771C123.336 160.018 123.835 160.141 124.387 160.141ZM136.91 153.213V161H135.858V154.145H132.128L132.024 156.07C131.945 157.689 131.757 158.932 131.461 159.801C131.165 160.669 130.637 161.104 129.877 161.104C129.67 161.104 129.418 161.064 129.122 160.985L129.196 160.082C129.374 160.122 129.497 160.141 129.566 160.141C129.971 160.141 130.277 159.954 130.484 159.579C130.692 159.204 130.83 158.74 130.899 158.187C130.968 157.634 131.027 156.904 131.076 155.996L131.21 153.213H136.91ZM139.898 153.213H140.949V156.662H145.849V153.213H146.9V161H145.849V157.565H140.949V161H139.898V153.213ZM149.888 153.213H150.939V159.401L156.136 153.213H157.068V161H156.017V154.812L150.836 161H149.888V153.213ZM165.559 154.145H162.612V161H161.561V154.145H158.615V153.213H165.559V154.145ZM170.424 155.966C171.401 155.976 172.142 156.193 172.645 156.618C173.158 157.042 173.415 157.654 173.415 158.454C173.415 159.283 173.139 159.919 172.586 160.363C172.043 160.808 171.253 161.025 170.217 161.015L167.078 161V153.213H168.13V155.937L170.424 155.966ZM170.158 160.215C170.878 160.225 171.421 160.082 171.786 159.786C172.161 159.48 172.349 159.036 172.349 158.454C172.349 157.881 172.166 157.457 171.801 157.18C171.436 156.904 170.888 156.761 170.158 156.751L168.13 156.721V160.186L170.158 160.215Z" fill="white"/>
<circle cx="495.5" cy="160.5" r="206.5" fill="#3D4B71"/>
<g opacity="0.5">
<g filter="url(#filter2_f)">
<path d="M435.043 41.6404C436.307 41.2325 436.979 39.8891 436.558 38.6436C436.132 37.3926 434.765 36.7073 433.507 37.1207C432.244 37.5286 431.565 38.8666 431.992 40.1175C432.413 41.363 433.78 42.0483 435.043 41.6404Z" fill="url(#paint6_linear)"/>
<path d="M431.987 40.1175C431.56 38.8666 432.244 37.5232 433.501 37.1207C434.759 36.7128 436.126 37.3926 436.553 38.6436C436.974 39.8891 436.296 41.2379 435.038 41.6404C433.78 42.0483 432.413 41.363 431.987 40.1175Z" fill="#FFB82B"/>
<path d="M433.546 37.2293C434.788 36.8268 436.122 37.4849 436.57 38.6978C436.565 38.6815 436.565 38.6597 436.559 38.6434C436.133 37.3925 434.766 36.7072 433.508 37.1205C432.245 37.5284 431.567 38.8664 431.993 40.1174C431.999 40.1391 432.01 40.1554 432.021 40.1718C431.627 38.9371 432.305 37.6318 433.546 37.2293Z" fill="#F5D5A4"/>
<path d="M434.994 41.51C433.758 41.907 432.424 41.2543 431.975 40.0523C431.981 40.0741 431.981 40.0958 431.986 40.1122C432.413 41.3577 433.774 42.043 435.038 41.6351C436.301 41.2271 436.973 39.8837 436.552 38.6382C436.541 38.6165 436.53 38.5947 436.519 38.5675C436.908 39.8021 436.235 41.1129 434.994 41.51Z" fill="#FFB82B"/>
<path d="M432.468 39.965C432.129 38.9752 432.671 37.9091 433.671 37.5882C434.672 37.2673 435.755 37.8058 436.088 38.7957C436.427 39.7856 435.886 40.8462 434.885 41.167C433.885 41.4934 432.802 40.9549 432.468 39.965Z" fill="url(#paint7_linear)"/>
<path d="M433.699 37.6808C434.683 37.3654 435.744 37.882 436.094 38.8447C436.088 38.8284 436.088 38.8121 436.083 38.7958C435.749 37.8059 434.666 37.2675 433.666 37.5883C432.665 37.9092 432.129 38.9698 432.463 39.9652C432.468 39.9815 432.479 39.9924 432.479 40.0087C432.184 39.0297 432.714 37.9963 433.699 37.6808Z" fill="#F5D5A4"/>
<path d="M433.813 38.0289C434.3 37.8712 434.831 37.9963 435.208 38.3553C435.377 38.5184 435.509 38.7251 435.591 38.9535C435.842 39.6987 435.476 40.4764 434.759 40.7212C433.999 40.9659 433.217 40.558 432.96 39.802C432.709 39.0569 433.075 38.2791 433.797 38.0344L433.813 38.0289Z" fill="#F5D5A4"/>
<path d="M433.015 39.7857C432.779 39.0949 433.157 38.3607 433.851 38.1322C434.546 37.9092 435.3 38.2845 435.536 38.9698C435.771 39.6551 435.393 40.4003 434.699 40.6233C433.999 40.8517 433.244 40.4764 433.015 39.7857Z" fill="#FFD336"/>
<path d="M432.999 39.7203V39.7258C432.835 39.122 433.223 38.4748 433.89 38.2573C434.557 38.0397 435.257 38.328 435.498 38.9099V38.9045C435.236 38.2573 434.519 37.9146 433.847 38.1322C433.179 38.3497 432.808 39.0513 432.999 39.7203Z" fill="#F5D5A4"/>
<path d="M434.66 40.5308C433.982 40.7484 433.255 40.3948 432.998 39.7422C433.003 39.7585 433.003 39.7694 433.009 39.7857C433.244 40.471 433.993 40.8463 434.693 40.6233C435.387 40.4003 435.765 39.6552 435.53 38.9698C435.524 38.9535 435.513 38.9372 435.508 38.9209C435.71 39.6008 435.344 40.3133 434.66 40.5308Z" fill="#FFB82B"/>
<path d="M434.158 40.1228L434.267 40.4437C434.809 40.2587 435.077 39.9107 435 39.4375L435.164 39.3831L435.115 39.2417L434.962 39.2906C434.956 39.2689 434.951 39.2471 434.945 39.2308C434.934 39.1982 434.923 39.171 434.913 39.1438L435.066 39.0948L434.989 38.8718L434.792 38.9371C434.546 38.6107 434.136 38.5346 433.666 38.6978L433.775 39.0187C434.054 38.9262 434.251 38.9425 434.388 39.0785L433.928 39.2362L434.005 39.4592L434.519 39.2852C434.53 39.3124 434.541 39.3396 434.557 39.3722C434.563 39.394 434.573 39.4157 434.579 39.432L434.059 39.6115L434.103 39.7475L434.606 39.5734C434.645 39.8454 434.513 40.0031 434.158 40.1228Z" fill="url(#paint8_linear)"/>
<path d="M435.728 39.9895L435.838 40.3104C436.379 40.1254 436.647 39.7773 436.57 39.3042L436.734 39.2498L436.685 39.1084L436.532 39.1573C436.527 39.1356 436.521 39.1138 436.516 39.0975C436.505 39.0649 436.494 39.0377 436.483 39.0105L436.636 38.9615L436.559 38.7385L436.363 38.8038C436.116 38.4774 435.706 38.4013 435.236 38.5645L435.345 38.8854C435.624 38.7929 435.821 38.8092 435.958 38.9452L435.499 39.1029L435.575 39.3259L436.089 39.1519C436.1 39.1791 436.111 39.2063 436.127 39.2389C436.133 39.2607 436.144 39.2824 436.149 39.2987L435.63 39.4782L435.674 39.6142L436.177 39.4401C436.215 39.7121 436.084 39.8698 435.728 39.9895ZM436.259 39.4293L436.248 39.3314H436.242C436.242 39.3314 436.209 39.2226 436.204 39.2008C436.193 39.1736 436.182 39.1464 436.171 39.1192L436.144 39.054L436.067 39.0649L435.624 39.2171L435.597 39.1464L436.106 38.9724L436.013 38.8799C435.865 38.7331 435.668 38.7004 435.395 38.7766L435.334 38.608C435.75 38.4883 436.089 38.5699 436.297 38.8473L436.335 38.8908L436.51 38.831L436.532 38.9071L436.373 38.9615L436.406 39.0431C436.417 39.0703 436.428 39.0975 436.439 39.1247L436.472 39.2443L436.516 39.2389L436.477 39.2498L436.494 39.3205C436.576 39.8209 436.226 40.0765 435.887 40.207L435.827 40.0384C436.166 39.9024 436.297 39.723 436.259 39.4293Z" fill="#F5D5A4"/>
<path d="M482.785 43.971L482.894 44.2919C483.436 44.107 483.704 43.7589 483.627 43.2857L483.791 43.2313L483.742 43.0899L483.589 43.1389C483.583 43.1171 483.578 43.0954 483.572 43.0791C483.561 43.0464 483.55 43.0192 483.539 42.992L483.693 42.9431L483.616 42.7201L483.419 42.7853C483.173 42.459 482.763 42.3829 482.293 42.546L482.402 42.8669C482.681 42.7745 482.878 42.7908 483.015 42.9268L482.555 43.0845L482.632 43.3075L483.146 43.1334C483.157 43.1606 483.168 43.1878 483.184 43.2205C483.189 43.2422 483.2 43.264 483.206 43.2803L482.686 43.4598L482.73 43.5957L483.233 43.4217C483.272 43.6936 483.14 43.8514 482.785 43.971ZM483.315 43.4108L483.304 43.3129H483.299C483.299 43.3129 483.266 43.2041 483.261 43.1824C483.25 43.1552 483.239 43.128 483.228 43.1008L483.2 43.0355L483.124 43.0464L482.681 43.1987L482.654 43.128L483.162 42.954L483.069 42.8615C482.922 42.7146 482.725 42.682 482.451 42.7582L482.391 42.5895C482.807 42.4699 483.146 42.5515 483.354 42.8289L483.392 42.8724L483.567 42.8125L483.589 42.8887L483.43 42.9431L483.463 43.0247C483.474 43.0519 483.485 43.0791 483.496 43.1062L483.529 43.2259L483.572 43.2205L483.534 43.2313L483.55 43.302C483.632 43.8024 483.282 44.0581 482.943 44.1886L482.883 44.02C483.222 43.884 483.354 43.7045 483.315 43.4108Z" fill="#F5D5A4"/>
</g>
<g filter="url(#filter3_f)">
<path d="M521.594 144.348C522.857 143.94 523.53 142.597 523.109 141.352C522.682 140.101 521.315 139.415 520.058 139.829C518.794 140.237 518.116 141.575 518.543 142.825C518.964 144.071 520.331 144.756 521.594 144.348Z" fill="url(#paint9_linear)"/>
<path d="M518.537 142.825C518.111 141.575 518.795 140.231 520.052 139.829C521.31 139.421 522.677 140.101 523.104 141.352C523.525 142.597 522.847 143.946 521.589 144.348C520.331 144.756 518.964 144.071 518.537 142.825Z" fill="#FFB82B"/>
<path d="M520.097 139.937C521.338 139.535 522.673 140.193 523.121 141.406C523.116 141.389 523.116 141.368 523.11 141.351C522.684 140.1 521.317 139.415 520.059 139.829C518.796 140.236 518.117 141.574 518.544 142.825C518.549 142.847 518.56 142.863 518.571 142.88C518.178 141.645 518.856 140.34 520.097 139.937Z" fill="#F5D5A4"/>
<path d="M521.545 144.218C520.309 144.615 518.974 143.962 518.526 142.76C518.531 142.782 518.531 142.804 518.537 142.82C518.963 144.066 520.325 144.751 521.588 144.343C522.852 143.935 523.524 142.592 523.103 141.346C523.092 141.324 523.081 141.303 523.07 141.275C523.459 142.51 522.786 143.821 521.545 144.218Z" fill="#FFB82B"/>
<path d="M519.019 142.673C518.68 141.683 519.221 140.617 520.222 140.296C521.223 139.975 522.306 140.514 522.639 141.504C522.978 142.494 522.437 143.554 521.436 143.875C520.435 144.201 519.353 143.663 519.019 142.673Z" fill="url(#paint10_linear)"/>
<path d="M520.249 140.389C521.234 140.073 522.295 140.59 522.645 141.553C522.639 141.536 522.639 141.52 522.634 141.504C522.3 140.514 521.217 139.975 520.217 140.296C519.216 140.617 518.68 141.678 519.014 142.673C519.019 142.689 519.03 142.7 519.03 142.717C518.735 141.738 519.265 140.704 520.249 140.389Z" fill="#F5D5A4"/>
<path d="M520.364 140.737C520.851 140.579 521.381 140.704 521.759 141.063C521.928 141.226 522.059 141.433 522.141 141.662C522.393 142.407 522.027 143.184 521.31 143.429C520.55 143.674 519.768 143.266 519.511 142.51C519.26 141.765 519.626 140.987 520.348 140.742L520.364 140.737Z" fill="#F5D5A4"/>
<path d="M519.565 142.494C519.33 141.803 519.708 141.069 520.402 140.84C521.097 140.617 521.851 140.993 522.086 141.678C522.321 142.363 521.944 143.108 521.25 143.331C520.55 143.56 519.795 143.185 519.565 142.494Z" fill="#FFD336"/>
<path d="M519.55 142.428V142.434C519.386 141.83 519.774 141.183 520.441 140.965C521.108 140.748 521.808 141.036 522.049 141.618V141.612C521.786 140.965 521.07 140.623 520.397 140.84C519.73 141.058 519.358 141.759 519.55 142.428Z" fill="#F5D5A4"/>
<path d="M521.211 143.239C520.533 143.456 519.806 143.103 519.549 142.45C519.554 142.466 519.554 142.477 519.559 142.494C519.795 143.179 520.544 143.554 521.244 143.331C521.938 143.108 522.316 142.363 522.08 141.678C522.075 141.662 522.064 141.645 522.059 141.629C522.261 142.309 521.895 143.021 521.211 143.239Z" fill="#FFB82B"/>
<path d="M520.709 142.831L520.818 143.152C521.359 142.967 521.627 142.619 521.551 142.145L521.715 142.091L521.666 141.95L521.513 141.999C521.507 141.977 521.502 141.955 521.496 141.939C521.485 141.906 521.474 141.879 521.463 141.852L521.616 141.803L521.54 141.58L521.343 141.645C521.097 141.319 520.687 141.243 520.216 141.406L520.326 141.727C520.605 141.634 520.802 141.65 520.938 141.786L520.479 141.944L520.556 142.167L521.07 141.993C521.081 142.02 521.091 142.048 521.108 142.08C521.113 142.102 521.124 142.124 521.13 142.14L520.61 142.319L520.654 142.455L521.157 142.281C521.195 142.553 521.064 142.711 520.709 142.831Z" fill="url(#paint11_linear)"/>
<path d="M522.279 142.697L522.388 143.018C522.93 142.833 523.198 142.485 523.121 142.012L523.285 141.958L523.236 141.816L523.083 141.865C523.077 141.844 523.072 141.822 523.066 141.805C523.055 141.773 523.045 141.746 523.034 141.718L523.187 141.67L523.11 141.447L522.913 141.512C522.667 141.185 522.257 141.109 521.787 141.272L521.896 141.593C522.175 141.501 522.372 141.517 522.509 141.653L522.049 141.811L522.126 142.034L522.64 141.86C522.651 141.887 522.662 141.914 522.678 141.947C522.684 141.969 522.695 141.99 522.7 142.007L522.181 142.186L522.224 142.322L522.727 142.148C522.766 142.42 522.634 142.578 522.279 142.697ZM522.809 142.137L522.798 142.039H522.793C522.793 142.039 522.76 141.931 522.755 141.909C522.744 141.882 522.733 141.854 522.722 141.827L522.695 141.762L522.618 141.773L522.175 141.925L522.148 141.854L522.656 141.68L522.563 141.588C522.416 141.441 522.219 141.408 521.945 141.485L521.885 141.316C522.301 141.196 522.64 141.278 522.848 141.555L522.886 141.599L523.061 141.539L523.083 141.615L522.924 141.67L522.957 141.751C522.968 141.778 522.979 141.805 522.99 141.833L523.023 141.952L523.066 141.947L523.028 141.958L523.045 142.028C523.127 142.529 522.777 142.784 522.438 142.915L522.377 142.746C522.716 142.61 522.848 142.431 522.809 142.137Z" fill="#F5D5A4"/>
</g>
<g filter="url(#filter4_f)">
<path d="M346.184 144.348C347.447 143.94 348.12 142.597 347.699 141.352C347.272 140.101 345.905 139.415 344.647 139.829C343.384 140.237 342.706 141.575 343.133 142.825C343.554 144.071 344.921 144.756 346.184 144.348Z" fill="url(#paint12_linear)"/>
<path d="M343.127 142.825C342.701 141.575 343.384 140.231 344.642 139.829C345.9 139.421 347.267 140.101 347.693 141.352C348.115 142.597 347.436 143.946 346.179 144.348C344.921 144.756 343.554 144.071 343.127 142.825Z" fill="#FFB82B"/>
<path d="M344.687 139.937C345.928 139.535 347.263 140.193 347.711 141.406C347.705 141.389 347.705 141.368 347.7 141.351C347.273 140.1 345.906 139.415 344.649 139.829C343.385 140.236 342.707 141.574 343.134 142.825C343.139 142.847 343.15 142.863 343.161 142.88C342.767 141.645 343.446 140.34 344.687 139.937Z" fill="#F5D5A4"/>
<path d="M346.134 144.218C344.899 144.615 343.564 143.962 343.116 142.76C343.121 142.782 343.121 142.804 343.127 142.82C343.553 144.066 344.915 144.751 346.178 144.343C347.441 143.935 348.114 142.592 347.693 141.346C347.682 141.324 347.671 141.303 347.66 141.275C348.048 142.51 347.376 143.821 346.134 144.218Z" fill="#FFB82B"/>
<path d="M343.609 142.673C343.27 141.683 343.811 140.617 344.812 140.296C345.813 139.975 346.895 140.514 347.229 141.504C347.568 142.494 347.027 143.554 346.026 143.875C345.025 144.201 343.942 143.663 343.609 142.673Z" fill="url(#paint13_linear)"/>
<path d="M344.839 140.389C345.824 140.073 346.884 140.59 347.234 141.553C347.229 141.536 347.229 141.52 347.223 141.504C346.89 140.514 345.807 139.975 344.806 140.296C343.806 140.617 343.27 141.678 343.603 142.673C343.609 142.689 343.62 142.7 343.62 142.717C343.324 141.738 343.855 140.704 344.839 140.389Z" fill="#F5D5A4"/>
<path d="M344.954 140.737C345.441 140.579 345.971 140.704 346.349 141.063C346.518 141.226 346.649 141.433 346.731 141.662C346.983 142.407 346.616 143.184 345.9 143.429C345.14 143.674 344.358 143.266 344.101 142.51C343.849 141.765 344.216 140.987 344.938 140.742L344.954 140.737Z" fill="#F5D5A4"/>
<path d="M344.155 142.494C343.92 141.803 344.297 141.069 344.992 140.84C345.686 140.617 346.441 140.993 346.676 141.678C346.911 142.363 346.534 143.108 345.839 143.331C345.14 143.56 344.385 143.185 344.155 142.494Z" fill="#FFD336"/>
<path d="M344.14 142.428V142.434C343.976 141.83 344.364 141.183 345.031 140.965C345.698 140.748 346.398 141.036 346.639 141.618V141.612C346.376 140.965 345.66 140.623 344.987 140.84C344.32 141.058 343.948 141.759 344.14 142.428Z" fill="#F5D5A4"/>
<path d="M345.801 143.239C345.123 143.456 344.395 143.103 344.138 142.45C344.144 142.466 344.144 142.477 344.149 142.494C344.384 143.179 345.134 143.554 345.834 143.331C346.528 143.108 346.905 142.363 346.67 141.678C346.665 141.662 346.654 141.645 346.648 141.629C346.851 142.309 346.484 143.021 345.801 143.239Z" fill="#FFB82B"/>
<path d="M345.298 142.831L345.408 143.152C345.949 142.967 346.217 142.619 346.141 142.145L346.305 142.091L346.255 141.95L346.102 141.999C346.097 141.977 346.091 141.955 346.086 141.939C346.075 141.906 346.064 141.879 346.053 141.852L346.206 141.803L346.13 141.58L345.933 141.645C345.687 141.319 345.277 141.243 344.806 141.406L344.916 141.727C345.195 141.634 345.391 141.65 345.528 141.786L345.069 141.944L345.145 142.167L345.659 141.993C345.67 142.02 345.681 142.048 345.698 142.08C345.703 142.102 345.714 142.124 345.72 142.14L345.2 142.319L345.244 142.455L345.747 142.281C345.785 142.553 345.654 142.711 345.298 142.831Z" fill="url(#paint14_linear)"/>
<path d="M346.869 142.697L346.978 143.018C347.52 142.833 347.788 142.485 347.711 142.012L347.875 141.958L347.826 141.816L347.673 141.865C347.667 141.844 347.662 141.822 347.656 141.805C347.645 141.773 347.634 141.746 347.623 141.718L347.777 141.67L347.7 141.447L347.503 141.512C347.257 141.185 346.847 141.109 346.377 141.272L346.486 141.593C346.765 141.501 346.962 141.517 347.098 141.653L346.639 141.811L346.716 142.034L347.23 141.86C347.241 141.887 347.252 141.914 347.268 141.947C347.273 141.969 347.284 141.99 347.29 142.007L346.77 142.186L346.814 142.322L347.317 142.148C347.356 142.42 347.224 142.578 346.869 142.697ZM347.399 142.137L347.388 142.039H347.383C347.383 142.039 347.35 141.931 347.345 141.909C347.334 141.882 347.323 141.854 347.312 141.827L347.284 141.762L347.208 141.773L346.765 141.925L346.738 141.854L347.246 141.68L347.153 141.588C347.006 141.441 346.809 141.408 346.535 141.485L346.475 141.316C346.891 141.196 347.23 141.278 347.438 141.555L347.476 141.599L347.651 141.539L347.673 141.615L347.514 141.67L347.547 141.751C347.558 141.778 347.569 141.805 347.58 141.833L347.613 141.952L347.656 141.947L347.618 141.958L347.634 142.028C347.716 142.529 347.366 142.784 347.027 142.915L346.967 142.746C347.306 142.61 347.438 142.431 347.399 142.137Z" fill="#F5D5A4"/>
<path d="M393.925 146.679L394.035 147C394.576 146.815 394.844 146.467 394.768 145.994L394.932 145.939L394.882 145.798L394.729 145.847C394.724 145.825 394.718 145.803 394.713 145.787C394.702 145.755 394.691 145.727 394.68 145.7L394.833 145.651L394.757 145.428L394.56 145.493C394.314 145.167 393.904 145.091 393.433 145.254L393.543 145.575C393.822 145.483 394.018 145.499 394.155 145.635L393.696 145.793L393.772 146.016L394.286 145.842C394.297 145.869 394.308 145.896 394.325 145.929C394.33 145.95 394.341 145.972 394.347 145.988L393.827 146.168L393.871 146.304L394.374 146.13C394.412 146.402 394.281 146.56 393.925 146.679ZM394.456 146.119L394.445 146.021H394.439C394.439 146.021 394.407 145.912 394.401 145.891C394.39 145.863 394.379 145.836 394.368 145.809L394.341 145.744L394.264 145.755L393.822 145.907L393.794 145.836L394.303 145.662L394.21 145.57C394.062 145.423 393.865 145.39 393.592 145.466L393.532 145.298C393.947 145.178 394.286 145.26 394.494 145.537L394.532 145.581L394.707 145.521L394.729 145.597L394.571 145.651L394.604 145.733C394.614 145.76 394.625 145.787 394.636 145.814L394.669 145.934L394.713 145.929L394.675 145.939L394.691 146.01C394.773 146.511 394.423 146.766 394.084 146.897L394.024 146.728C394.363 146.592 394.494 146.413 394.456 146.119Z" fill="#F5D5A4"/>
</g>
</g>
</g>
<g clip-path="url(#clip0)">
<path d="M371.5 225C383.926 225 394 214.926 394 202.5C394 190.074 383.926 180 371.5 180C359.074 180 349 190.074 349 202.5C349 214.926 359.074 225 371.5 225Z" fill="#FEE158"/>
<path d="M394 202.5C394 190.093 383.907 180 371.5 180V225C383.907 225 394 214.907 394 202.5Z" fill="#FFB528"/>
<path d="M371.5 219.639C362.05 219.639 354.361 211.95 354.361 202.5C354.361 193.05 362.05 185.361 371.5 185.361C380.95 185.361 388.639 193.05 388.639 202.5C388.639 211.95 380.95 219.639 371.5 219.639Z" fill="#FFBB33"/>
<path d="M388.639 202.5C388.639 193.05 380.95 185.361 371.5 185.361V219.639C380.95 219.639 388.639 211.95 388.639 202.5Z" fill="#FE8C01"/>
<path d="M372.818 201.276V196.063C374.335 196.435 375.455 197.411 375.455 198.532C375.455 199.261 376.045 199.85 376.773 199.85C377.502 199.85 378.092 199.261 378.092 198.532C378.092 195.985 375.824 193.855 372.818 193.365V191.94C372.818 191.212 372.229 190.622 371.5 190.622C370.771 190.622 370.182 191.212 370.182 191.94V193.365C367.176 193.855 364.908 195.985 364.908 198.532C364.908 201.079 367.176 203.209 370.182 203.699V208.911C368.665 208.539 367.545 207.564 367.545 206.442C367.545 205.714 366.955 205.124 366.227 205.124C365.498 205.124 364.908 205.714 364.908 206.442C364.908 208.99 367.176 211.119 370.182 211.609V213.047C370.182 213.776 370.771 214.365 371.5 214.365C372.229 214.365 372.818 213.776 372.818 213.047V211.609C375.824 211.119 378.092 208.99 378.092 206.442C378.092 203.895 375.824 201.765 372.818 201.276ZM367.545 198.532C367.545 197.411 368.665 196.435 370.182 196.063V201.001C368.665 200.629 367.545 199.653 367.545 198.532ZM372.818 208.911V203.973C374.335 204.345 375.455 205.321 375.455 206.442C375.455 207.564 374.335 208.539 372.818 208.911Z" fill="#FEE158"/>
<path d="M372.818 213.047V211.609C375.824 211.119 378.092 208.99 378.092 206.442C378.092 203.895 375.824 201.765 372.818 201.276V196.063C374.335 196.435 375.455 197.411 375.455 198.532C375.455 199.261 376.045 199.85 376.773 199.85C377.502 199.85 378.092 199.261 378.092 198.532C378.092 195.985 375.824 193.855 372.818 193.365V191.94C372.818 191.212 372.229 190.622 371.5 190.622V214.365C372.229 214.365 372.818 213.776 372.818 213.047ZM372.818 203.973C374.335 204.345 375.455 205.321 375.455 206.442C375.455 207.564 374.335 208.539 372.818 208.911V203.973Z" fill="#FFBB33"/>
<path d="M499 201.5C499 207.51 496.659 213.16 492.41 217.41C488.16 221.659 482.51 224 476.5 224C470.49 224 464.84 221.659 460.59 217.41C456.341 213.16 454 207.51 454 201.5C454 195.49 456.341 189.84 460.59 185.59C464.84 181.341 470.49 179 476.5 179C482.51 179 488.16 181.341 492.41 185.59C496.659 189.84 499 195.49 499 201.5Z" fill="#FEE158"/>
<path d="M499 201.5C499 207.51 496.659 213.16 492.41 217.41C488.16 221.659 482.51 224 476.5 224V179C482.51 179 488.16 181.341 492.41 185.59C496.659 189.84 499 195.49 499 201.5Z" fill="#FFB528"/>
<path d="M476.5 219.254C486.305 219.254 494.254 211.305 494.254 201.5C494.254 191.695 486.305 183.746 476.5 183.746C466.695 183.746 458.746 191.695 458.746 201.5C458.746 211.305 466.695 219.254 476.5 219.254Z" fill="#FFB528"/>
<path d="M494.254 201.5C494.254 211.289 486.289 219.254 476.5 219.254V183.746C486.289 183.746 494.254 191.711 494.254 201.5Z" fill="#FE8C01"/>
<path d="M483.245 201.226C482.95 200.93 482.628 200.672 482.286 200.451C483.094 199.544 483.587 198.351 483.587 197.043C483.587 195.679 483.053 194.392 482.083 193.423C481.113 192.453 479.827 191.918 478.462 191.918H477.818V189.371H475.181V191.918H469.377V194.555H471.53V208.445H469.377V211.082H475.181V213.629H477.818V211.082H479.165C482.35 211.082 484.941 208.491 484.941 205.307C484.941 203.768 484.339 202.319 483.245 201.226ZM474.167 194.555H478.462C479.123 194.555 479.746 194.815 480.218 195.287C480.69 195.759 480.95 196.383 480.95 197.043C480.95 198.402 479.856 199.509 478.503 199.53H474.167V194.555ZM479.165 208.445H474.167V202.169L476.5 202.168L479.165 202.167C479.999 202.167 480.786 202.495 481.381 203.091C481.976 203.686 482.304 204.472 482.304 205.307C482.304 207.037 480.896 208.445 479.165 208.445Z" fill="#FEE158"/>
<path d="M484.941 205.307C484.941 208.491 482.35 211.082 479.166 211.082H477.818V213.629H476.5V208.445H479.166C480.896 208.445 482.304 207.037 482.304 205.307C482.304 204.472 481.976 203.686 481.381 203.091C480.786 202.495 479.999 202.167 479.166 202.167L476.5 202.168V199.53H478.503C479.857 199.509 480.951 198.402 480.951 197.043C480.951 196.383 480.691 195.759 480.219 195.287C479.747 194.815 479.124 194.555 478.463 194.555H476.5V189.371H477.818V191.918H478.463C479.828 191.918 481.113 192.453 482.084 193.423C483.053 194.392 483.588 195.679 483.588 197.043C483.588 198.351 483.094 199.544 482.287 200.451C482.629 200.672 482.95 200.93 483.246 201.226C484.339 202.319 484.941 203.768 484.941 205.307Z" fill="#FFB528"/>
<path d="M423.5 117C435.866 117 446 106.866 446 94.5C446 82.1339 435.866 72 423.5 72C411.134 72 401 82.1339 401 94.5C401 106.866 411.134 117 423.5 117Z" fill="#FEE158"/>
<path d="M423.5 117V72C435.866 72 446 82.1339 446 94.5C446 106.866 435.866 117 423.5 117Z" fill="#FFB528"/>
<path d="M423.5 77.3613C414.06 77.3613 406.361 85.0603 406.361 94.5C406.361 103.939 414.06 111.639 423.5 111.639C432.94 111.639 440.639 103.939 440.639 94.5C440.639 85.0603 432.94 77.3613 423.5 77.3613Z" fill="#FFB528"/>
<path d="M440.639 94.5C440.639 103.939 432.94 111.639 423.5 111.639V77.3613C432.94 77.3613 440.639 85.0603 440.639 94.5Z" fill="#FE8C01"/>
<path d="M427.455 94.5C430.355 94.5 432.729 92.127 432.729 89.2266C432.729 86.3262 430.355 83.9531 427.455 83.9531H419.545V91.8633H416.908V94.5H419.545V97.1367H416.908V99.7734H419.545V105.047H422.182V99.7734H428.773V97.1367H422.182V94.5H427.455ZM422.182 86.5898H427.455C428.905 86.5898 430.092 87.7764 430.092 89.2266C430.092 90.6768 428.905 91.8633 427.455 91.8633H422.182V86.5898Z" fill="#FEE158"/>
<path d="M432.729 89.2266C432.729 92.127 430.355 94.5 427.455 94.5H423.5V91.8633H427.455C428.905 91.8633 430.092 90.6768 430.092 89.2266C430.092 87.7764 428.905 86.5898 427.455 86.5898H423.5V83.9531H427.455C430.355 83.9531 432.729 86.3262 432.729 89.2266Z" fill="#FFB528"/>
<path d="M423.5 97.1367H428.773V99.7734H423.5V97.1367Z" fill="#FFB528"/>
<path d="M398.311 159.992L382.453 162.807L376.963 147.63L382.862 151.034L394.251 131.276L403.802 136.804L392.412 156.562L398.311 159.992Z" fill="url(#paint15_linear)"/>
<path d="M391.824 154.336L402.371 135.985L403.801 136.804L393.229 155.155L391.824 154.336Z" fill="url(#paint16_linear)"/>
<path d="M376.963 147.63L377.218 147.784L381.866 160.555L395.221 158.201L398.311 159.992L382.453 162.807L376.963 147.63Z" fill="url(#paint17_linear)"/>
<path d="M450.43 161.45L466.288 164.266L471.778 149.089L465.879 152.493L454.49 132.76L444.939 138.262L456.329 158.046L450.43 161.45Z" fill="url(#paint18_linear)"/>
<path d="M456.916 155.794L446.369 137.469L444.939 138.263L455.511 156.613L456.916 155.794Z" fill="url(#paint19_linear)"/>
<path d="M471.778 149.089L471.523 149.242L466.901 162.014L453.52 159.659L450.43 161.451L466.288 164.266L471.778 149.089Z" fill="url(#paint20_linear)"/>
<path d="M432.35 218.755L442.718 206.368L432.35 194.006V200.84H409.598V211.896L432.35 211.922V218.755Z" fill="url(#paint21_linear)"/>
<path d="M430.716 210.284H409.598V211.922H430.716V210.284Z" fill="url(#paint22_linear)"/>
<path d="M432.35 194.006V194.313L441.083 204.73L432.35 215.147V218.755L442.717 206.368L432.35 194.006Z" fill="url(#paint23_linear)"/>
</g>
<g filter="url(#filter5_f)">
<path d="M423.5 211L508.803 241.75H338.196L423.5 211Z" fill="black" fill-opacity="0.1"/>
</g>
<defs>
<filter id="filter0_f" x="23" y="135" width="29.5171" height="29.6385" filterUnits="userSpaceOnUse" color-interpolation-filters="sRGB">
<feFlood flood-opacity="0" result="BackgroundImageFix"/>
<feBlend mode="normal" in="SourceGraphic" in2="BackgroundImageFix" result="shape"/>
<feGaussianBlur stdDeviation="1" result="effect1_foregroundBlur"/>
</filter>
<filter id="filter1_f" x="267.672" y="17" width="151.467" height="28.1448" filterUnits="userSpaceOnUse" color-interpolation-filters="sRGB">
<feFlood flood-opacity="0" result="BackgroundImageFix"/>
<feBlend mode="normal" in="SourceGraphic" in2="BackgroundImageFix" result="shape"/>
<feGaussianBlur stdDeviation="2" result="effect1_foregroundBlur"/>
</filter>
<filter id="filter2_f" x="426.859" y="32.0001" width="61.9319" height="17.2919" filterUnits="userSpaceOnUse" color-interpolation-filters="sRGB">
<feFlood flood-opacity="0" result="BackgroundImageFix"/>
<feBlend mode="normal" in="SourceGraphic" in2="BackgroundImageFix" result="shape"/>
<feGaussianBlur stdDeviation="2.5" result="effect1_foregroundBlur"/>
</filter>
<filter id="filter3_f" x="514.41" y="135.708" width="59.9319" height="15.292" filterUnits="userSpaceOnUse" color-interpolation-filters="sRGB">
<feFlood flood-opacity="0" result="BackgroundImageFix"/>
<feBlend mode="normal" in="SourceGraphic" in2="BackgroundImageFix" result="shape"/>
<feGaussianBlur stdDeviation="2" result="effect1_foregroundBlur"/>
</filter>
<filter id="filter4_f" x="339" y="135.708" width="59.9319" height="15.292" filterUnits="userSpaceOnUse" color-interpolation-filters="sRGB">
<feFlood flood-opacity="0" result="BackgroundImageFix"/>
<feBlend mode="normal" in="SourceGraphic" in2="BackgroundImageFix" result="shape"/>
<feGaussianBlur stdDeviation="2" result="effect1_foregroundBlur"/>
</filter>
<filter id="filter5_f" x="334.197" y="207" width="178.607" height="38.75" filterUnits="userSpaceOnUse" color-interpolation-filters="sRGB">
<feFlood flood-opacity="0" result="BackgroundImageFix"/>
<feBlend mode="normal" in="SourceGraphic" in2="BackgroundImageFix" result="shape"/>
<feGaussianBlur stdDeviation="2" result="effect1_foregroundBlur"/>
</filter>
<linearGradient id="paint0_linear" x1="49.3461" y1="144.358" x2="26.2238" y2="155.364" gradientUnits="userSpaceOnUse">
<stop stop-color="#DD3F18"/>
<stop offset="0.4157" stop-color="#E74A1B"/>
<stop offset="1" stop-color="#FD6120"/>
</linearGradient>
<linearGradient id="paint1_linear" x1="42.1082" y1="158.94" x2="33.5016" y2="140.663" gradientUnits="userSpaceOnUse">
<stop stop-color="#FF7B00"/>
<stop offset="0.0242" stop-color="#FF7D01"/>
<stop offset="0.6742" stop-color="#FFAB0F"/>
<stop offset="1" stop-color="#FFBD14"/>
</linearGradient>
<linearGradient id="paint2_linear" x1="40.2251" y1="154.996" x2="35.3289" y2="144.599" gradientUnits="userSpaceOnUse">
<stop stop-color="#FF7B00"/>
<stop offset="0.0242" stop-color="#FF7D01"/>
<stop offset="0.6742" stop-color="#FFAB0F"/>
<stop offset="1" stop-color="#FFBD14"/>
</linearGradient>
<linearGradient id="paint3_linear" x1="284.616" y1="36.7064" x2="272.081" y2="32.3903" gradientUnits="userSpaceOnUse">
<stop stop-color="#DD3F18"/>
<stop offset="0.4157" stop-color="#E74A1B"/>
<stop offset="1" stop-color="#FD6120"/>
</linearGradient>
<linearGradient id="paint4_linear" x1="276.64" y1="39.5117" x2="280.008" y2="29.6245" gradientUnits="userSpaceOnUse">
<stop stop-color="#FF7B00"/>
<stop offset="0.0242" stop-color="#FF7D01"/>
<stop offset="0.6742" stop-color="#FFAB0F"/>
<stop offset="1" stop-color="#FFBD14"/>
</linearGradient>
<linearGradient id="paint5_linear" x1="280.308" y1="33.3228" x2="276.125" y2="35.3828" gradientUnits="userSpaceOnUse">
<stop stop-color="#FFBD14"/>
<stop offset="0.0524" stop-color="#FFB612"/>
<stop offset="0.2728" stop-color="#FF9C0A"/>
<stop offset="0.5004" stop-color="#FF8A04"/>
<stop offset="0.7377" stop-color="#FF7F01"/>
<stop offset="1" stop-color="#FF7B00"/>
</linearGradient>
<linearGradient id="paint6_linear" x1="436.545" y1="38.6068" x2="432.007" y2="40.1691" gradientUnits="userSpaceOnUse">
<stop stop-color="#DD3F18"/>
<stop offset="0.4157" stop-color="#E74A1B"/>
<stop offset="1" stop-color="#FD6120"/>
</linearGradient>
<linearGradient id="paint7_linear" x1="433.658" y1="37.5912" x2="434.877" y2="41.1701" gradientUnits="userSpaceOnUse">
<stop stop-color="#FF7B00"/>
<stop offset="0.0242" stop-color="#FF7D01"/>
<stop offset="0.6742" stop-color="#FFAB0F"/>
<stop offset="1" stop-color="#FFBD14"/>
</linearGradient>
<linearGradient id="paint8_linear" x1="434.986" y1="39.8314" x2="433.471" y2="39.0857" gradientUnits="userSpaceOnUse">
<stop stop-color="#FFBD14"/>
<stop offset="0.0524" stop-color="#FFB612"/>
<stop offset="0.2728" stop-color="#FF9C0A"/>
<stop offset="0.5004" stop-color="#FF8A04"/>
<stop offset="0.7377" stop-color="#FF7F01"/>
<stop offset="1" stop-color="#FF7B00"/>
</linearGradient>
<linearGradient id="paint9_linear" x1="523.095" y1="141.315" x2="518.558" y2="142.877" gradientUnits="userSpaceOnUse">
<stop stop-color="#DD3F18"/>
<stop offset="0.4157" stop-color="#E74A1B"/>
<stop offset="1" stop-color="#FD6120"/>
</linearGradient>
<linearGradient id="paint10_linear" x1="520.209" y1="140.299" x2="521.428" y2="143.878" gradientUnits="userSpaceOnUse">
<stop stop-color="#FF7B00"/>
<stop offset="0.0242" stop-color="#FF7D01"/>
<stop offset="0.6742" stop-color="#FFAB0F"/>
<stop offset="1" stop-color="#FFBD14"/>
</linearGradient>
<linearGradient id="paint11_linear" x1="521.536" y1="142.539" x2="520.022" y2="141.794" gradientUnits="userSpaceOnUse">
<stop stop-color="#FFBD14"/>
<stop offset="0.0524" stop-color="#FFB612"/>
<stop offset="0.2728" stop-color="#FF9C0A"/>
<stop offset="0.5004" stop-color="#FF8A04"/>
<stop offset="0.7377" stop-color="#FF7F01"/>
<stop offset="1" stop-color="#FF7B00"/>
</linearGradient>
<linearGradient id="paint12_linear" x1="347.685" y1="141.315" x2="343.148" y2="142.877" gradientUnits="userSpaceOnUse">
<stop stop-color="#DD3F18"/>
<stop offset="0.4157" stop-color="#E74A1B"/>
<stop offset="1" stop-color="#FD6120"/>
</linearGradient>
<linearGradient id="paint13_linear" x1="344.799" y1="140.299" x2="346.018" y2="143.878" gradientUnits="userSpaceOnUse">
<stop stop-color="#FF7B00"/>
<stop offset="0.0242" stop-color="#FF7D01"/>
<stop offset="0.6742" stop-color="#FFAB0F"/>
<stop offset="1" stop-color="#FFBD14"/>
</linearGradient>
<linearGradient id="paint14_linear" x1="346.126" y1="142.539" x2="344.612" y2="141.794" gradientUnits="userSpaceOnUse">
<stop stop-color="#FFBD14"/>
<stop offset="0.0524" stop-color="#FFB612"/>
<stop offset="0.2728" stop-color="#FF9C0A"/>
<stop offset="0.5004" stop-color="#FF8A04"/>
<stop offset="0.7377" stop-color="#FF7F01"/>
<stop offset="1" stop-color="#FF7B00"/>
</linearGradient>
<linearGradient id="paint15_linear" x1="401.42" y1="154.601" x2="380.029" y2="142.278" gradientUnits="userSpaceOnUse">
<stop stop-color="#062A54"/>
<stop offset="0.2719" stop-color="#072C58"/>
<stop offset="0.5179" stop-color="#083263"/>
<stop offset="0.7539" stop-color="#0B3C75"/>
<stop offset="0.9825" stop-color="#104B8F"/>
<stop offset="1" stop-color="#104C91"/>
</linearGradient>
<linearGradient id="paint16_linear" x1="392.526" y1="154.741" x2="403.127" y2="136.42" gradientUnits="userSpaceOnUse">
<stop stop-color="#B0CCD6"/>
<stop offset="0.0437" stop-color="#B4D0D9"/>
<stop offset="0.2378" stop-color="#C1DBE3"/>
<stop offset="0.4888" stop-color="#C9E1E9"/>
<stop offset="1" stop-color="#CBE3EB"/>
</linearGradient>
<linearGradient id="paint17_linear" x1="382.454" y1="162.796" x2="387.653" y2="153.812" gradientUnits="userSpaceOnUse">
<stop stop-color="#B0CCD6"/>
<stop offset="0.0437" stop-color="#B4D0D9"/>
<stop offset="0.2378" stop-color="#C1DBE3"/>
<stop offset="0.4888" stop-color="#C9E1E9"/>
<stop offset="1" stop-color="#CBE3EB"/>
</linearGradient>
<linearGradient id="paint18_linear" x1="447.319" y1="156.068" x2="468.712" y2="143.744" gradientUnits="userSpaceOnUse">
<stop stop-color="#FAFAFA"/>
<stop offset="1" stop-color="#CDEFFA"/>
</linearGradient>
<linearGradient id="paint19_linear" x1="456.217" y1="156.206" x2="445.617" y2="137.887" gradientUnits="userSpaceOnUse">
<stop stop-color="#B0CCD6"/>
<stop offset="0.0437" stop-color="#B4D0D9"/>
<stop offset="0.2378" stop-color="#C1DBE3"/>
<stop offset="0.4888" stop-color="#C9E1E9"/>
<stop offset="1" stop-color="#CBE3EB"/>
</linearGradient>
<linearGradient id="paint20_linear" x1="466.284" y1="164.261" x2="461.086" y2="155.278" gradientUnits="userSpaceOnUse">
<stop stop-color="#B0CCD6"/>
<stop offset="0.0437" stop-color="#B4D0D9"/>
<stop offset="0.2378" stop-color="#C1DBE3"/>
<stop offset="0.4888" stop-color="#C9E1E9"/>
<stop offset="1" stop-color="#CBE3EB"/>
</linearGradient>
<linearGradient id="paint21_linear" x1="426.155" y1="218.746" x2="426.155" y2="194.012" gradientUnits="userSpaceOnUse">
<stop stop-color="#81B510"/>
<stop offset="0.0279" stop-color="#7FB410"/>
<stop offset="0.3315" stop-color="#6DAD12"/>
<stop offset="0.649" stop-color="#62A914"/>
<stop offset="1" stop-color="#5EA814"/>
</linearGradient>
<linearGradient id="paint22_linear" x1="430.721" y1="211.091" x2="409.594" y2="211.091" gradientUnits="userSpaceOnUse">
<stop stop-color="#B0CCD6"/>
<stop offset="0.0437" stop-color="#B4D0D9"/>
<stop offset="0.2378" stop-color="#C1DBE3"/>
<stop offset="0.4888" stop-color="#C9E1E9"/>
<stop offset="1" stop-color="#CBE3EB"/>
</linearGradient>
<linearGradient id="paint23_linear" x1="442.716" y1="206.379" x2="432.357" y2="206.379" gradientUnits="userSpaceOnUse">
<stop stop-color="#B0CCD6"/>
<stop offset="0.0437" stop-color="#B4D0D9"/>
<stop offset="0.2378" stop-color="#C1DBE3"/>
<stop offset="0.4888" stop-color="#C9E1E9"/>
<stop offset="1" stop-color="#CBE3EB"/>
</linearGradient>
<clipPath id="clip0">
<rect width="150" height="153" fill="white" transform="translate(349 72)"/>
</clipPath>
</defs>
</svg>
