<svg width="904" height="634" viewBox="0 0 904 634" fill="none" xmlns="http://www.w3.org/2000/svg">
<rect width="904" height="634" rx="14" fill="#3D4B71"/>
<g opacity="0.1">
<path d="M306.171 335.893L306.438 281.668L307.507 139.56C296.555 141.697 289.877 141.163 278.925 138.224L279.994 281.668L280.795 421.906C299.226 422.974 304.569 396.529 306.171 335.893Z" fill="white"/>
<path d="M235.918 456.098C255.685 456.098 260.76 429.118 260.76 295.558V296.36L261.027 258.429C261.027 245.073 261.294 231.717 261.294 218.361L261.828 178.293L262.63 139.827C253.281 142.766 247.404 142.231 234.582 138.492H233.781L234.582 178.56L235.116 218.628C235.383 231.984 235.383 245.34 235.383 258.696L235.651 298.764L235.918 378.633V418.701C235.918 430.721 235.918 443.543 235.918 456.098Z" fill="white"/>
<path d="M734.644 555.734C717.548 554.665 709.268 545.583 690.302 522.611L561.283 341.771H546.591C601.618 266.977 640.351 181.231 659.85 90.1433L660.385 88.2735L670.535 104.568C679.35 115.52 694.309 111.513 699.651 109.643L659.049 45L593.605 86.1365C594.406 88.8077 599.748 105.102 616.31 97.8898L635.542 85.8694L634.741 89.0748C610.166 203.669 552.201 307.312 470.462 392.256C393.264 472.659 296.567 529.022 190.253 559.741V530.624C238.869 516.467 303.512 489.221 347.32 456.098L352.929 451.824V186.574C352.929 157.992 350.525 146.239 386.319 145.704V63.6984H159V143.3C189.986 146.773 192.39 153.451 192.39 190.046V474.529C192.657 474.529 192.924 474.529 193.459 474.529C216.965 473.728 219.903 454.762 220.171 303.839V190.313C220.171 169.211 222.04 129.41 186.781 121.396V91.4789H358.539V121.129C336.902 127.54 325.149 140.629 325.149 167.608V439.804C286.951 467.05 225.78 494.83 172.89 508.721L164.61 511.392V593.932L179.835 590.459C281.074 564.282 374.299 514.597 452.298 445.146L549.53 583.514V584.049H672.939C663.857 568.288 659.583 561.076 646.227 559.206H563.954L547.927 536.501H637.947C629.933 522.878 626.193 516.467 614.44 514.597H532.434L519.078 495.365L608.563 494.563C600.016 480.139 596.276 474.262 583.454 472.927L503.852 473.728L488.626 452.091H578.646C570.365 437.934 566.358 431.523 553.269 430.187H473.4L471.264 426.982C476.606 421.907 481.948 416.564 487.291 411.222H548.728C540.448 397.064 536.441 390.653 523.352 389.318H507.592C514.003 382.106 520.414 374.626 526.557 366.88H547.927L669.467 537.302L670.001 538.104C675.076 544.248 679.884 550.124 684.693 555.467C684.96 555.734 685.227 556.268 685.761 556.535L686.028 556.802C686.295 557.069 686.295 557.336 686.562 557.336L686.83 557.604C687.097 557.871 687.097 557.871 687.364 558.138C687.631 558.405 687.631 558.405 687.898 558.672C688.165 558.939 688.432 559.206 688.699 559.473C688.966 559.741 688.966 559.741 689.234 560.008L689.501 560.275C689.768 560.542 690.035 560.809 690.302 561.076C690.302 561.076 690.302 561.076 690.569 561.343C694.309 565.083 697.781 568.021 701.521 570.425C701.521 570.425 701.521 570.425 701.788 570.425C702.323 570.693 702.857 570.96 703.391 571.494L703.658 571.761C704.192 572.028 704.727 572.295 705.261 572.562C705.261 572.562 705.528 572.829 705.795 572.829C706.329 573.097 706.864 573.364 707.398 573.631C707.665 573.631 707.665 573.898 707.932 573.898C708.466 574.165 709.001 574.432 709.535 574.699C709.802 574.699 710.069 574.966 710.069 574.966C710.603 575.234 710.87 575.234 711.405 575.501C711.672 575.501 711.939 575.768 712.206 575.768C712.74 576.035 713.007 576.035 713.542 576.302C713.809 576.302 714.343 576.569 714.877 576.569C715.144 576.569 715.411 576.836 715.946 576.836C716.747 577.103 717.548 577.103 718.35 577.37L718.083 584.049V606.219H291.225H291.492C290.957 606.219 290.423 606.219 289.622 606.219H266.382C187.582 607.822 166.479 626.521 169.952 634H745.329V555.2H734.644V555.734Z" fill="white"/>
</g>
</svg>
