<?xml version="1.0" encoding="UTF-8" standalone="no"?>
<svg
   xmlns:dc="http://purl.org/dc/elements/1.1/"
   xmlns:cc="http://creativecommons.org/ns#"
   xmlns:rdf="http://www.w3.org/1999/02/22-rdf-syntax-ns#"
   xmlns:svg="http://www.w3.org/2000/svg"
   xmlns="http://www.w3.org/2000/svg"
   xmlns:sodipodi="http://sodipodi.sourceforge.net/DTD/sodipodi-0.dtd"
   xmlns:inkscape="http://www.inkscape.org/namespaces/inkscape"
   width="32.275936"
   height="32.709007"
   viewBox="0 0 32.275936 32.709007"
   fill="none"
   version="1.1"
   id="svg918"
   sodipodi:docname="sberbank.svg"
   inkscape:version="1.0.2 (e86c8708, 2021-01-15)">
  <metadata
     id="metadata922">
    <rdf:RDF>
      <cc:Work
         rdf:about="">
        <dc:format>image/svg+xml</dc:format>
        <dc:type
           rdf:resource="http://purl.org/dc/dcmitype/StillImage" />
      </cc:Work>
    </rdf:RDF>
  </metadata>
  <sodipodi:namedview
     pagecolor="#ffffff"
     bordercolor="#cccccc"
     borderopacity="1"
     objecttolerance="10"
     gridtolerance="10"
     guidetolerance="10"
     inkscape:pageopacity="0"
     inkscape:pageshadow="2"
     inkscape:window-width="1440"
     inkscape:window-height="878"
     id="namedview920"
     showgrid="false"
     inkscape:zoom="3.3904762"
     inkscape:cx="105"
     inkscape:cy="16.5"
     inkscape:window-x="0"
     inkscape:window-y="0"
     inkscape:window-maximized="1"
     inkscape:current-layer="svg918" />
  <path
     d="m 28.9083,6.35486 c 0.7666,1.00446 1.4156,2.09572 1.9338,3.25187 L 16.1419,20.5889 9.99829,16.6859 v -4.6955 l 6.14361,3.903 z"
     fill="#21a038"
     id="path833" />
  <path
     d="m 3.72827,16.3545 c 0,-0.2107 0.00507,-0.42 0.01521,-0.6281 L 0.0202772,15.5415 C 0.00760464,15.8112 4.4993153e-6,16.0835 4.4993153e-6,16.3583 -0.00157962,18.5055 0.415154,20.6318 1.22631,22.6153 c 0.81115,1.9836 2.00075,3.7853 3.50056,5.3018 L 7.36783,25.2419 C 6.21333,24.0766 5.29746,22.6915 4.67286,21.1663 4.04826,19.6411 3.72725,18.0058 3.72827,16.3545 Z"
     fill="url(#paint0_linear)"
     id="path835"
     style="fill:url(#paint0_linear)" />
  <path
     d="m 16.1385,3.77747 c 0.2078,0 0.4143,0.00771 0.6196,0.01798 L 16.9444,0.0208629 C 16.6775,0.00801981 16.4088,0.00159904 16.1385,0.00159904 14.0188,-0.00102064 11.9196,0.420712 9.96126,1.24258 8.00291,2.06445 6.22405,3.27027 4.72681,4.7908 L 7.36777,7.4673 C 8.51766,6.29688 9.8845,5.36835 11.3897,4.73512 12.8949,4.10189 14.5087,3.77643 16.1385,3.77747 Z"
     fill="url(#paint1_linear)"
     id="path837"
     style="fill:url(#paint1_linear)" />
  <path
     d="m 16.1385,28.9318 c -0.2078,0 -0.4144,0 -0.6209,-0.0167 l -0.1863,3.7733 c 0.2678,0.0137 0.5369,0.0206 0.8072,0.0206 2.1188,0.0022 4.217,-0.4198 6.1743,-1.2419 1.9573,-0.8221 3.735,-2.0281 5.2311,-3.5486 L 24.908,25.2433 c -1.1501,1.1698 -2.5168,2.0978 -4.0217,2.7308 -1.5049,0.633 -3.1184,0.9585 -4.7478,0.9577 z"
     fill="url(#paint2_linear)"
     id="path839"
     style="fill:url(#paint2_linear)" />
  <path
     d="M 23.1339,5.97207 26.2716,3.6282 C 23.4037,1.27465 19.8238,-0.0065332 16.1335,2.5053631e-5 V 3.77718 c 2.4989,-0.00314 4.9398,0.7622 7.0004,2.19489 z"
     fill="url(#paint3_linear)"
     id="path841"
     style="fill:url(#paint3_linear)" />
  <path
     d="m 32.2759,16.3545 c 0.002,-0.9826 -0.0828,-1.9635 -0.2535,-2.9308 l -3.4735,2.5943 c 0,0.1118 0,0.2235 0,0.3365 9e-4,1.7573 -0.3626,3.4952 -1.0668,5.101 -0.7043,1.6058 -1.7337,3.0437 -3.0214,4.2205 l 2.5054,2.8063 c 1.6741,-1.5317 3.0119,-3.4028 3.9266,-5.492 0.9148,-2.0893 1.386,-4.3501 1.3832,-6.6358 z"
     fill="#21a038"
     id="path843" />
  <path
     d="m 16.1386,28.9318 c -1.7341,6e-4 -3.449,-0.3679 -5.0337,-1.0816 C 9.52028,27.1365 8.10119,26.0934 6.93956,24.7886 l -2.76768,2.5378 c 1.51115,1.6969 3.35735,3.0529 5.41889,3.9802 2.06153,0.9272 4.29233,1.405 6.54783,1.4023 z"
     fill="url(#paint4_linear)"
     id="path845"
     style="fill:url(#paint4_linear)" />
  <path
     d="M 7.81645,7.0329 5.31235,4.22668 C 3.63776,5.75806 2.29948,7.62906 1.3843,9.71834 0.469132,11.8076 -0.00249507,14.0685 9.9266153e-6,16.3544 H 3.72828 C 3.72751,14.5972 4.09104,12.8593 4.79529,11.2535 5.49955,9.64775 6.52883,8.20981 7.81645,7.0329 Z"
     fill="url(#paint5_linear)"
     id="path847"
     style="fill:url(#paint5_linear)" />
  <defs
     id="defs916">
    <linearGradient
       id="paint0_linear"
       x1="5.4808898"
       y1="27.445801"
       x2="1.30964"
       y2="15.5477"
       gradientUnits="userSpaceOnUse">
      <stop
         offset="0.14"
         stop-color="#F1E813"
         id="stop867" />
      <stop
         offset="0.3"
         stop-color="#E6E418"
         id="stop869" />
      <stop
         offset="0.58"
         stop-color="#C9DA26"
         id="stop871" />
      <stop
         offset="0.89"
         stop-color="#A2CC39"
         id="stop873" />
    </linearGradient>
    <linearGradient
       id="paint1_linear"
       x1="5.7912998"
       y1="5.4586401"
       x2="16.3181"
       y2="1.50029"
       gradientUnits="userSpaceOnUse">
      <stop
         offset="0.06"
         stop-color="#0FA7DF"
         id="stop876" />
      <stop
         offset="0.54"
         stop-color="#0098F8"
         id="stop878" />
      <stop
         offset="0.92"
         stop-color="#0290EA"
         id="stop880" />
    </linearGradient>
    <linearGradient
       id="paint2_linear"
       x1="15.0855"
       y1="30.4293"
       x2="26.964701"
       y2="27.7813"
       gradientUnits="userSpaceOnUse">
      <stop
         offset="0.12"
         stop-color="#A2CC39"
         id="stop883" />
      <stop
         offset="0.28"
         stop-color="#86C239"
         id="stop885" />
      <stop
         offset="0.87"
         stop-color="#219F38"
         id="stop887" />
    </linearGradient>
    <linearGradient
       id="paint3_linear"
       x1="15.358"
       y1="1.26507"
       x2="25.524401"
       y2="4.3607302"
       gradientUnits="userSpaceOnUse">
      <stop
         offset="0.06"
         stop-color="#0290EA"
         id="stop890" />
      <stop
         offset="0.79"
         stop-color="#0C89CA"
         id="stop892" />
    </linearGradient>
    <linearGradient
       id="paint4_linear"
       x1="5.10711"
       y1="26.8666"
       x2="16.1833"
       y2="30.9512"
       gradientUnits="userSpaceOnUse">
      <stop
         offset="0.13"
         stop-color="#F1E813"
         id="stop895" />
      <stop
         offset="0.3"
         stop-color="#EAE616"
         id="stop897" />
      <stop
         offset="0.53"
         stop-color="#D8DF1F"
         id="stop899" />
      <stop
         offset="0.8"
         stop-color="#BAD52D"
         id="stop901" />
      <stop
         offset="0.98"
         stop-color="#A2CC39"
         id="stop903" />
    </linearGradient>
    <linearGradient
       id="paint5_linear"
       x1="1.3889199"
       y1="16.8116"
       x2="5.9247799"
       y2="5.16889"
       gradientUnits="userSpaceOnUse">
      <stop
         offset="0.07"
         stop-color="#A2CC39"
         id="stop906" />
      <stop
         offset="0.26"
         stop-color="#81C45E"
         id="stop908" />
      <stop
         offset="0.92"
         stop-color="#0FA7DF"
         id="stop910" />
    </linearGradient>
    <clipPath
       id="clip0">
      <rect
         width="168.414"
         height="21.620701"
         fill="#ffffff"
         transform="translate(40.9656,5.6897)"
         id="rect913"
         x="0"
         y="0" />
    </clipPath>
  </defs>
</svg>
