<?xml version="1.0" encoding="UTF-8" standalone="no"?>
<svg
   xmlns:dc="http://purl.org/dc/elements/1.1/"
   xmlns:cc="http://creativecommons.org/ns#"
   xmlns:rdf="http://www.w3.org/1999/02/22-rdf-syntax-ns#"
   xmlns:svg="http://www.w3.org/2000/svg"
   xmlns="http://www.w3.org/2000/svg"
   xmlns:sodipodi="http://sodipodi.sourceforge.net/DTD/sodipodi-0.dtd"
   xmlns:inkscape="http://www.inkscape.org/namespaces/inkscape"
   width="540.836"
   height="480"
   viewBox="0 0 540.836 480"
   fill="none"
   version="1.1"
   id="svg905"
   sodipodi:docname="tinkoff.svg"
   inkscape:version="1.0.2 (e86c8708, 2021-01-15)">
  <metadata
     id="metadata911">
    <rdf:RDF>
      <cc:Work
         rdf:about="">
        <dc:format>image/svg+xml</dc:format>
        <dc:type
           rdf:resource="http://purl.org/dc/dcmitype/StillImage" />
      </cc:Work>
    </rdf:RDF>
  </metadata>
  <defs
     id="defs909" />
  <sodipodi:namedview
     pagecolor="#ffffff"
     bordercolor="#cccccc"
     borderopacity="1"
     objecttolerance="10"
     gridtolerance="10"
     guidetolerance="10"
     inkscape:pageopacity="0"
     inkscape:pageshadow="2"
     inkscape:window-width="1440"
     inkscape:window-height="878"
     id="namedview907"
     showgrid="false"
     inkscape:zoom="0.38992333"
     inkscape:cx="913"
     inkscape:cy="240"
     inkscape:window-x="0"
     inkscape:window-y="0"
     inkscape:window-maximized="1"
     inkscape:current-layer="svg905" />
  <path
     d="m 533.815,224.529 7.021,-22.335 -23.227,0.723 c -1.962,0 -16.226,-0.402 -30.063,-10.374 1.031,0.101 2.062,0.241 3.115,0.241 14.243,0 28.02,-8.524 33.544,-20.708 l 9.995,-22.014 c -12.524,0.161 -23.975,-1.407 -23.975,-1.407 -0.102,-0.021 -9.125,-1.166 -19.564,-11.762 -7.487,-7.599 -16.752,-11.621 -26.788,-11.621 -4.389,0 -8.315,0.784 -11.693,1.85 0.526,-1.789 1.031,-3.599 1.316,-5.469 3.195,-20.607 -10.157,-36.3291 -10.157,-36.3079 L 425.879,63.8532 415.055,89.104 c -0.041,0.0807 -2.772,5.9922 -7.668,8.8864 C 405.91,90.5717 402.289,82.2287 394.54,74.2468 379.932,59.2083 362.149,56.9765 352.842,56.9765 c -4.31,0 -7.384,0.4628 -8.134,0.5831 l -21.08,4.1225 c 1.213,-4.6844 3.803,-12.8277 8.537,-20.1658 L 343.799,23.503 314.523,26.8203 305.196,7.13711 287.15,16.3857 270.459,0 253.807,16.3857 235.7,7.13711 226.393,26.8203 197.139,23.503 208.791,41.5163 c 4.735,7.3381 7.325,15.4602 8.519,20.1447 l -20.112,-3.9401 -0.687,-0.1203 c -1.012,-0.1613 -4.066,-0.6241 -8.396,-0.6241 -9.307,0 -27.09,2.2517 -41.658,17.2703 -7.769,7.9621 -11.39,16.3249 -12.887,23.7436 -4.855,-2.8546 -7.567,-8.6854 -7.567,-8.6854 L 115.159,63.9126 97.4166,85.5461 c -2.1658,2.7937 -12.8675,17.5719 -9.9547,36.1479 0.3041,1.85 0.7893,3.659 1.3156,5.449 -3.3584,-1.066 -7.2839,-1.85 -11.6735,-1.85 -10.0353,0 -19.3011,4.021 -26.8071,11.621 -10.4003,10.555 -19.3831,11.741 -19.3012,11.741 0,0 -9.4892,1.688 -24.17724,1.426 l 9.93354,22.016 c 5.524,12.204 19.3209,20.708 33.5449,20.708 1.0723,0 2.1035,-0.142 3.156,-0.242 -13.7982,9.972 -28.0618,10.374 -29.782,10.394 L 0,202.194 7.16221,224.509 c 3.60159,11.501 15.63869,30.56 38.70409,32.61 -2.5095,10.455 -8.0732,22.156 -20.2928,27.202 l -17.62195,7.217 9.60955,16.627 c 5.4223,8.967 18.1482,19.461 36.2752,19.461 3.9256,-0.02 7.7083,-0.402 11.3509,-1.165 0.9308,4.101 2.1036,8.203 3.48,12.263 5.4011,15.963 0.7483,27.101 0.6875,27.222 l -8.6999,18.114 19.4228,5.087 c 0.2432,0.08 6.1097,1.668 13.4544,1.668 3.3385,0 6.514,-0.341 9.509,-1.044 2.265,-0.524 4.431,-1.227 6.514,-2.072 2.509,4.483 5.564,8.565 9.125,12.223 12.443,12.687 30.065,19.12 52.4,19.12 h 0.081 l 15.943,-0.201 -32.938,13.591 25.007,12.003 c 9.084,4.403 19.867,9.609 30.833,13.59 l -3.116,8.485 8.619,3.9 c 0.768,0.341 17.338,7.72 44.895,9.288 0,0 6.656,0.302 10.317,0.302 3.662,0 10.237,-0.321 10.237,-0.321 27.375,-1.609 43.822,-8.907 44.592,-9.269 l 8.638,-3.92 -3.156,-8.504 c 11.29,-4.102 22.457,-9.511 31.157,-13.732 l 24.541,-11.842 -32.837,-13.61 16.004,0.201 c 22.357,0 39.999,-6.434 52.42,-19.14 3.541,-3.639 6.597,-7.72 9.126,-12.204 2.084,0.845 4.268,1.548 6.534,2.071 2.974,0.703 6.151,1.046 9.489,1.046 7.222,0 13.151,-1.588 13.312,-1.629 l 19.504,-5.126 -8.498,-17.773 c -0.202,-0.463 -4.855,-11.581 0.547,-27.564 1.375,-4.081 2.528,-8.182 3.459,-12.264 3.663,0.764 7.486,1.166 11.432,1.166 23.083,0 34.15,-16.144 36.295,-19.642 l 9.509,-16.445 -17.622,-7.198 c -12.24,-5.047 -17.783,-16.768 -20.272,-27.201 22.74,-1.931 34.96,-20.99 38.683,-32.571 z M 218.846,69.3613 l -0.241,0.0608 0.202,-0.2617 z"
     fill="#ffffff"
     id="path833" />
  <path
     d="m 270.479,68.3772 c -18.654,0.0198 -32.633,6.0913 -35.689,13.2284 l 35.689,13.9939 35.689,-13.9939 C 303.133,74.4685 289.153,68.397 270.479,68.3772 Z"
     fill="#ffffff"
     id="path835" />
  <path
     d="m 270.841,438.805 h -0.041 -0.304 -0.344 -0.02 c -11.31,0.081 -26.868,-2.232 -34.374,-4.403 l -9.024,24.266 c 5.949,2.112 26.1,6.132 43.762,6.132 17.622,0 37.793,-4.04 43.721,-6.132 l -9.004,-24.266 c -7.525,2.191 -23.064,4.484 -34.372,4.403 z"
     fill="#ffffff"
     id="path837" />
  <path
     d="m 339.127,414.68 c -6.717,3.78 -21.709,9.449 -30.429,12.083 l 7.324,20.044 c 13.494,-3.66 24.621,-7.941 33.828,-12.525 l -15.195,-5.027 z"
     fill="#ffffff"
     id="path839" />
  <path
     d="m 201.853,414.68 4.491,14.575 -15.214,5.027 c 9.185,4.584 20.373,8.865 33.807,12.525 l 7.324,-20.044 c -8.68,-2.634 -23.692,-8.324 -30.408,-12.083 z"
     fill="#ffffff"
     id="path841" />
  <path
     d="m 270.481,45.174 c 14.061,0 27.859,3.3372 38.46,9.209 0.972,-3.238 2.327,-7.1583 4.168,-11.2597 l -4.005,0.4826 -4.209,0.4429 -1.781,-3.7999 -5.361,-11.2583 -9.772,5.0652 -3.803,1.9304 -3.035,-2.9749 -10.622,-10.4544 -10.601,10.4544 -3.035,2.9749 -3.803,-1.9304 -9.833,-5.0652 -5.301,11.2583 -1.82,3.7999 -4.209,-0.4429 -4.006,-0.4826 c 1.842,4.1212 3.177,8.0217 4.168,11.2597 10.622,-5.8718 24.379,-9.209 38.4,-9.209 z"
     fill="#ffffff"
     id="path843" />
  <path
     d="m 485.159,175.293 c 1.822,0.623 3.682,0.904 5.524,0.904 7.95,0 15.639,-5.106 18.289,-10.957 0,0 -14.587,-0.884 -30.267,-16.707 -4.996,-5.127 -10.277,-6.654 -14.809,-6.654 -7.041,0 -12.322,3.699 -12.322,3.699 18.938,10.012 22.801,26.096 33.585,29.715 z"
     fill="#ffffff"
     id="path845" />
  <path
     d="m 50.2854,176.197 c 1.8405,0 3.7021,-0.281 5.4831,-0.904 10.8233,-3.619 14.7079,-19.703 33.6454,-29.715 0,0 -5.3019,-3.699 -12.3015,-3.699 -4.5523,0 -9.833,1.527 -14.8507,6.654 -15.6585,15.823 -30.2461,16.707 -30.2461,16.707 2.61,5.851 10.3183,10.957 18.2698,10.957 z"
     fill="#ffffff"
     id="path847" />
  <path
     d="m 490.302,240.654 c 0.324,0.019 0.607,0.019 0.951,0.019 19.847,0 26.585,-21.131 26.585,-21.131 h -0.385 c -3.641,0 -33.16,-0.843 -54.019,-27.201 -13.737,-17.329 -24.987,-32.569 -47.222,-38.561 l -2.184,-0.382 -0.486,-2.211 c -0.607,-3.378 1.72,-6.534 7.001,-9.952 30.671,-19.963 9.852,-45.4165 9.852,-45.4165 0,0 -8.76,20.3665 -28.364,20.3665 -0.466,0 -0.972,-0.021 -1.457,-0.021 -2.225,-0.12 -4.37,-0.201 -6.536,-0.662 l -3.621,-0.705 c 0,0 5.585,-15.0979 -7.89,-28.9702 -10.157,-10.4742 -22.518,-12.2433 -29.66,-12.2433 -3.602,0 -5.888,0.4614 -5.888,0.4614 6.778,8.8057 11.674,23.4025 3.845,32.4091 -6.757,7.74 -23.267,8.122 -23.267,19.662 0,4.886 4.593,10.596 12.847,15.722 24.825,15.541 49.467,36.148 59.704,63.773 12.807,34.459 -1.618,57.319 -22.214,70.427 0,0 6.454,5.91 15.822,6.654 1.901,0.181 3.763,0.261 5.503,0.261 19.766,0 29.983,-9.208 29.983,-9.208 0,0 -1.68,12.726 -11.978,24.548 -9.488,10.917 -21.951,17.331 -40.949,17.612 0,0 -0.607,8.765 7.81,16.345 5.381,4.785 17.824,6.353 17.824,6.353 0,0 -23.287,4.684 -25.856,38.863 -1.397,18.515 -6.151,24.949 -6.151,24.949 h 0.426 c 54.038,0 52.642,-46.059 52.642,-46.059 0,0 3.763,13.63 18.836,17.189 1.82,0.483 3.763,0.664 5.624,0.664 4.857,0 9.064,-1.126 9.064,-1.126 0,0 -7.89,-16.546 -0.061,-39.687 6.495,-19.2 5.443,-33.434 5.443,-33.434 0,0 7.283,10.937 25.331,11.038 h 0.181 c 15.033,0 21.587,-11.319 21.587,-11.319 -36.032,-14.858 -32.471,-62.827 -32.471,-62.827 0,0 4.674,3.457 13.798,3.8 z m -10.845,50.099 c -14.648,-7.176 -23.914,-26.235 -26.159,-33.112 -2.429,37.797 -21.001,64.034 -42.71,89.285 -11.269,13.088 -15.193,25.814 -15.193,25.814 0,0 2.164,-14.414 11.915,-26.155 20.253,-24.187 39.494,-54.283 40.93,-89.084 0.991,-24.287 -5.301,-43.989 -15.113,-60.213 5.482,16.908 4.714,37.615 -13.92,56.935 0,0 37.085,-44.17 -14.769,-89.445 -20.758,-17.229 -43.458,-27.865 -55.151,-35.404 42.243,13.691 62.86,-1.388 62.86,-1.388 -13.496,11.62 -30.955,11.419 -41.78,9.751 2.934,1.428 5.99,2.915 9.287,4.664 35.608,19.221 67.615,50.845 73.077,94.654 v -0.343 c 8.295,43.004 26.726,54.041 26.726,54.041 z"
     fill="#ffffff"
     id="path849" />
  <path
     d="m 139.051,338.603 c 0,0 12.443,-1.548 17.825,-6.353 8.395,-7.58 7.81,-16.345 7.81,-16.345 -19.018,-0.262 -31.461,-6.695 -41.01,-17.591 -10.218,-11.822 -11.917,-24.549 -11.917,-24.549 0,0 10.216,9.209 29.963,9.209 1.781,0 3.622,-0.081 5.523,-0.262 9.368,-0.744 15.842,-6.655 15.842,-6.655 -20.597,-13.108 -35.041,-35.987 -22.255,-70.446 10.258,-27.605 34.879,-48.232 59.705,-63.773 8.254,-5.126 12.846,-10.817 12.846,-15.722 0,-11.54 -16.489,-11.922 -23.247,-19.662 -7.828,-9.0066 -2.912,-23.6232 3.845,-32.4091 0,0 -2.246,-0.4614 -5.868,-0.4614 -7.121,0 -19.483,1.7691 -29.639,12.2433 -13.515,13.8723 -7.91,28.9702 -7.91,28.9702 l -3.622,0.705 c -2.164,0.461 -4.33,0.542 -6.535,0.662 -0.505,0 -0.951,0.021 -1.436,0.021 -19.645,0 -28.365,-20.3466 -28.365,-20.3466 0,0 -20.8189,25.4536 9.832,45.4166 5.281,3.418 7.588,6.574 6.981,9.952 l -0.487,2.212 -2.225,0.382 c -22.194,5.991 -33.4628,21.23 -47.2002,38.56 -20.819,26.318 -50.2969,27.181 -53.9778,27.181 h -0.406 c 0,0 6.7379,21.131 26.585,21.131 0.324,0 0.6069,0 0.9507,-0.019 9.1243,-0.323 13.818,-3.8 13.818,-3.8 0,0 3.521,47.948 -32.4713,62.827 0,0 6.5554,11.319 21.5872,11.319 h 0.1824 c 18.0662,-0.101 25.3303,-11.038 25.3303,-11.038 0,0 -1.0525,14.234 5.4222,33.434 7.8286,23.141 -0.0211,39.687 -0.0211,39.687 0,0 4.2085,1.126 9.0437,1.126 1.8814,0 3.8039,-0.181 5.6047,-0.664 15.0512,-3.559 18.8352,-17.189 18.8352,-17.189 0,0 -1.376,46.059 52.664,46.059 h 0.383 c 0,0 -4.733,-6.434 -6.109,-24.949 -2.589,-34.179 -25.877,-38.863 -25.877,-38.863 z m -8.678,8.323 c -21.709,-25.251 -40.2619,-51.488 -42.7106,-89.285 -2.245,6.857 -11.4712,25.936 -26.1182,33.112 0,0 18.4099,-11.037 26.6854,-54.041 v 0.343 c 5.4831,-43.788 37.4694,-75.433 73.0964,-94.654 3.258,-1.769 6.353,-3.256 9.267,-4.664 -10.824,1.668 -28.284,1.869 -41.779,-9.751 0,0 20.616,15.079 62.84,1.388 -11.693,7.539 -34.374,18.175 -55.132,35.404 -51.8742,45.275 -14.769,89.445 -14.769,89.445 -18.653,-19.341 -19.401,-40.027 -13.919,-56.935 -9.8322,16.244 -16.1046,35.926 -15.0931,60.213 1.416,34.801 20.6561,64.897 40.8681,89.084 9.773,11.721 11.978,26.155 11.978,26.155 0,0 -3.967,-12.726 -15.214,-25.814 z"
     fill="#ffffff"
     id="path851" />
  <path
     d="m 230.527,170.208 c 0.889,0.944 1.759,1.971 2.59,2.995 0.202,0.242 0.383,0.463 0.585,0.745 0.77,1.024 1.559,2.111 2.308,3.216 0.161,0.221 0.324,0.483 0.505,0.743 0.911,1.368 1.761,2.776 2.61,4.224 7.789,13.368 20.273,21.35 31.339,21.37 11.087,-0.02 23.53,-8.002 31.36,-21.37 0.87,-1.489 1.74,-2.936 2.649,-4.283 0.142,-0.201 0.285,-0.382 0.405,-0.583 0.769,-1.146 1.579,-2.272 2.429,-3.358 0.181,-0.241 0.343,-0.442 0.505,-0.643 0.87,-1.066 1.76,-2.111 2.671,-3.077 0.161,-0.16 0.282,-0.301 0.424,-0.421 3.965,-4.041 8.7,-7.118 14.89,-8.826 l -2.751,-1.588 h -0.161 l -10.967,-6.333 -11.268,-6.414 -30.105,16.285 -0.081,-0.061 -0.061,0.061 -30.125,-16.285 -11.248,6.393 -10.986,6.333 h -0.122 l -2.792,1.589 c 6.211,1.708 10.925,4.744 14.911,8.785 0.181,0.161 0.303,0.342 0.486,0.503 z m 27.757,-1.307 h 12.746 12.726 v 8.685 c -2.993,-3.638 -8.82,-2.894 -8.82,-2.894 v 12.525 c 0,0 0.222,6.152 2.386,8.825 h -6.292 -6.312 c 2.205,-2.653 2.408,-8.825 2.408,-8.825 v -12.525 c 0,0 -5.807,-0.744 -8.842,2.894 z"
     fill="#ffffff"
     id="path853" />
  <path
     d="M 267.873,152.05 V 101.206 L 235.3,90.2275 l 8.598,49.2775 z m -7,-38.359 v 8.162 l -1.578,-0.724 c -0.081,-0.06 -2.387,-0.583 -6.434,-3.76 -6.676,-5.146 -6.797,-9.891 -6.797,-9.891 z"
     fill="#ffffff"
     id="path855" />
  <path
     d="m 297.09,139.505 8.558,-49.2775 -32.553,10.9785 v 50.844 z m -16.994,-25.814 14.808,-6.193 c 0,0 -0.12,4.745 -6.817,9.891 -4.026,3.177 -6.353,3.699 -6.434,3.76 l -1.579,0.723 v -8.181 z"
     fill="#ffffff"
     id="path857" />
  <path
     d="m 221.805,269.927 c 3.177,1.145 7.021,1.387 8.983,1.387 0.082,-0.242 0.182,-0.544 0.284,-0.905 0.181,-0.583 0.344,-1.146 0.466,-1.79 0.546,-2.813 0.748,-6.01 0.788,-8.061 -1.336,-0.825 -3.217,-2.293 -4.268,-4.484 -1.214,-2.533 -2.934,-3.699 -5.464,-3.699 -3.277,0 -6.797,1.95 -8.295,2.876 -1.192,7.015 4.006,13.389 7.506,14.676 z"
     fill="#ffffff"
     id="path859" />
  <path
     d="m 293.847,242.943 c -6.049,6.534 -17.885,17.914 -18.472,18.497 l -0.708,0.724 -37.408,-0.584 c -0.021,3.68 -0.628,6.816 -1.214,9.108 -0.101,0.382 -0.202,0.784 -0.304,1.186 l 44.51,7.942 c 4.633,-3.217 17.379,-12.466 22.316,-16.084 -3.602,-5.227 -3.946,-11.42 -3.137,-15.782 -2.346,-1.508 -4.147,-3.197 -5.583,-5.007 z"
     fill="#ffffff"
     id="path861" />
  <path
     d="m 298.928,198.235 c -8.62,8.504 -16.894,11.64 -24.278,12.364 -1.336,0.141 -2.691,0.22 -4.067,0.22 h -0.102 -0.081 c -1.375,0 -2.751,-0.079 -4.087,-0.22 -1.294,-0.121 -2.649,-0.322 -4.004,-0.623 -0.487,1.909 -1.094,5.91 0.646,9.69 1.558,3.438 4.735,5.991 9.368,7.681 l 1.557,0.602 0.021,1.669 c 0,0.502 0.364,11.319 12.24,14.314 1.942,-1.99 3.702,-3.779 4.998,-5.268 -2.429,-5.669 -1.155,-11.459 2.366,-14.294 -0.161,0.603 -1.699,14.798 9.753,20.064 l 1.881,0.886 -0.567,1.99 c -0.183,0.603 -4.006,14.335 9.853,19.441 l 2.448,0.925 -1.093,2.373 c -0.242,0.522 -5.684,12.988 7.123,20.064 h 27.777 v -21.914 c -9.872,-1.207 -14.061,-9.087 -15.133,-14.677 -4.592,-0.784 -8.153,-2.754 -10.582,-5.971 -5.827,-7.62 -0.809,-14.596 -0.748,-14.978 -0.02,0.061 0,7.499 4.613,12.083 2.286,2.211 4.998,3.921 9.104,4.303 l 2.023,0.181 0.183,2.051 c 0.039,0.441 1.153,10.494 10.56,12.082 l -0.02,-44.753 c 0,-6.936 2.044,-13.912 4.492,-20.346 h -56.244 z"
     fill="#ffffff"
     id="path863" />
  <path
     d="m 224.175,218.735 -0.748,28.509 3.256,0.483 7.972,-27.343 -4.046,-8.404 z"
     fill="#ffffff"
     id="path865" />
  <path
     d="m 312.06,349.48 c 0.243,0 0.526,0.041 0.789,0.101 4.957,1.408 6.212,19.18 14.911,20.768 0.85,0.181 1.639,0.221 2.327,0.221 2.509,0 4.006,-1.066 5.624,-2.955 0,0 -4.37,-6.836 -7.647,-11.439 -4.35,-6.032 -7.728,-13.331 -15.821,-13.331 -0.183,0 -0.425,0 -0.627,0.022 -2.671,0.14 -4.31,1.426 -4.31,1.426 -3.278,-2.05 -6.332,-2.754 -9.105,-2.754 -5.077,0 -9.022,2.313 -10.986,2.313 h -0.08 l -18.088,-1.769 c -2.832,-0.262 -5.057,-3.097 -5.866,-4.202 -0.203,-0.303 -0.304,-0.483 -0.304,-0.483 0,-0.483 0,-0.985 -0.04,-1.428 -0.607,-14.696 -12.058,-20.989 -16.125,-21.09 0,0 0.485,-2.794 -0.627,-3.859 l -3.986,4.804 -13.09,-6.534 9.327,10.837 -7.911,8.825 c -0.992,1.007 -0.87,2.374 -0.465,2.936 l 3.419,2.996 4.33,-2.614 c 0.222,-0.16 0.607,-0.201 1.092,-0.201 1.194,0 2.995,0.301 4.613,0.301 1.76,0 3.298,-0.382 3.48,-2.031 -0.546,5.449 -5.624,14.918 -2.286,22.357 l 2.469,5.61 -15.984,-2.293 -7.486,12.566 c -2.306,4.182 -2.67,8.705 -0.445,11.158 l 2.791,3.479 c 0,0 3.926,-4.143 4.816,-6.857 l -1.275,-1.387 c -1.072,-1.166 -1.011,-2.211 -0.363,-3.477 l 4.693,-7.742 18.876,4.424 0.991,-1.689 c 1.275,-2.111 3.117,-2.755 5.14,-2.755 0.829,0 1.679,0.101 2.569,0.242 3.501,0.684 9.267,1.608 15.033,1.608 6.332,0 12.604,-1.125 15.941,-4.844 6.839,10.072 20.698,11.68 19.605,16.786 l -3.641,17.251 c 2.408,-0.101 4.734,-0.262 6.939,-0.564 l 3.46,-17.954 c 0.385,-1.95 0.748,-4.584 0.748,-4.584 -1.335,-1.346 -4.572,-4.201 -6.392,-7.659 -2.449,-4.665 -1.114,-7.097 -3.4,-13.169 0.081,0.041 0.769,-1.367 2.367,-1.367 z m -70.608,-25.211 c -0.931,-0.02 -1.599,-0.804 -1.559,-1.728 0.082,-0.885 0.83,-1.589 1.74,-1.509 0.931,0.041 1.599,0.845 1.559,1.73 -0.082,0.884 -0.85,1.568 -1.74,1.507 z"
     fill="#ffffff"
     id="path867" />
  <path
     d="m 215.678,365.804 c 0,0 6.251,-2.553 6.817,-4.383 l -0.829,-2.071 c -0.587,-1.347 -0.506,-2.815 0.627,-3.618 l 6.757,-4.645 11.29,2.151 c 0,0 -2.044,-2.533 -1.841,-5.931 l -10.763,-2.272 -10.157,6.152 c -4.35,3.237 -4.674,8.524 -3.237,11.66 z"
     fill="#ffffff"
     id="path869" />
  <path
     d="m 295.467,395.037 c 2.023,-0.08 4.248,-0.12 6.697,-0.12 0,0 5.807,-16.868 6.129,-17.41 -3.256,-1.428 -10.014,-4.988 -12.624,-6.615 1.72,2.553 5.908,5.488 5.079,7.74 z"
     fill="#ffffff"
     id="path871" />
  <path
     d="M 350.737,294.998 H 190.238 v 59.992 c 0,24.528 17.866,39.889 44.227,39.889 22.033,0 27.838,0.843 36.033,8.926 5.645,-5.589 10.319,-7.681 19.908,-8.465 l 0.222,-0.924 5.058,-15.541 c -0.283,-0.342 -8.557,-9.69 -8.557,-9.69 -3.278,1.086 -6.029,1.267 -10.662,1.267 -4.755,0 -10.116,-0.544 -15.923,-1.629 -0.587,-0.14 -1.133,-0.181 -1.68,-0.181 -0.708,0 -0.768,0.06 -0.95,0.402 l -1.012,1.648 -1.841,3.016 -3.459,-0.784 -15.397,-3.599 -2.105,3.459 0.324,0.361 1.882,2.051 -0.829,2.674 c -1.134,3.498 -4.816,7.579 -5.928,8.706 l -3.845,4.101 -3.499,-4.403 -2.63,-3.277 c -2.773,-3.076 -3.419,-7.801 -1.862,-12.746 -0.041,0.039 -0.102,0.059 -0.161,0.059 l -4.35,1.79 -1.964,-4.223 -1.375,-2.994 c -2.366,-5.268 -1.498,-12.968 4.877,-17.613 l 12.402,-6.956 11.795,2.313 c 0.283,-1.127 0.707,-5.148 1.051,-6.172 -0.222,-0.02 -0.444,-0.081 -0.668,-0.081 l -6.797,2.513 -6.556,-4.503 c 0,0 -2.569,-2.454 -0.243,-4.906 l 6.353,-9.549 -16.084,-20.066 24.723,10.094 1.64,-2.031 3.337,-3.961 3.784,3.579 c 1.072,1.025 1.679,2.291 1.982,3.558 6.818,2.634 19.018,10.415 20.09,23.06 l -3.823,1.528 v 0.101 c 0.87,1.025 1.598,1.448 1.82,1.487 l 17.643,1.73 c 0.445,-0.081 1.012,-0.282 1.639,-0.463 2.185,-0.743 5.483,-1.809 9.387,-1.809 3.177,0 6.251,0.723 9.205,2.091 1.093,-0.402 2.429,-0.704 3.967,-0.804 l 0.848,-0.02 c 9.449,0 14.142,7.015 17.907,12.606 0.626,0.963 1.253,1.889 1.901,2.793 3.297,4.625 7.606,11.4 7.789,11.682 l 1.942,3.016 -2.388,2.754 c -1.84,2.11 -4.592,4.584 -9.326,4.584 -0.971,0 -2.043,-0.101 -3.196,-0.323 -1.011,-0.18 -1.922,-0.483 -2.812,-0.844 -0.142,0.925 -0.324,2.031 -0.507,2.975 l -3.095,16.044 c 18.512,-4.523 30.267,-18.416 30.267,-38.279 z"
     fill="#ffdd2d"
     id="path873" />
  <path
     d="m 190.242,290.173 h 124.81 c -6.232,-6.393 -6.15,-14.495 -4.552,-19.763 -1.821,-0.865 -3.318,-1.911 -4.653,-3.036 -4.876,3.578 -19.767,14.355 -23.651,17.048 l -0.829,0.564 -48.982,-8.806 h -0.991 c -1.173,0 -2.893,-0.041 -4.775,-0.262 -0.526,2.192 -2.427,3.7 -4.613,3.7 -0.243,0 -0.526,-0.02 -0.789,-0.081 -1.275,-0.221 -2.386,-0.865 -3.135,-1.93 -0.769,-1.045 -1.072,-2.292 -0.85,-3.578 l 0.182,-1.046 c -5.058,-3.538 -9.711,-11.44 -7.648,-19.763 l 0.202,-0.884 0.709,-0.503 c 0.101,-0.08 0.95,-0.643 2.205,-1.367 l -3.561,-0.543 c -1.335,-0.241 -2.225,-1.468 -2.022,-2.774 0.222,-1.327 1.476,-2.273 2.791,-2.011 l 8.477,1.327 0.769,-29.675 12.625,-13.269 7.87,16.467 -8.316,28.548 7.487,1.166 c 1.314,0.201 2.225,1.427 2.023,2.774 -0.203,1.186 -1.214,2.011 -2.408,2.011 -0.122,0 -0.263,0 -0.385,-0.02 l -6.09,-0.985 c 0.082,0.18 0.202,0.28 0.284,0.481 0.647,1.328 2.084,2.293 2.933,2.695 l 37.349,0.583 c 1.577,-1.528 5.503,-5.348 9.529,-9.389 -9.185,-3.458 -12.524,-11.339 -13.091,-16.567 -5.138,-2.171 -8.679,-5.427 -10.641,-9.67 -2.388,-5.246 -1.538,-10.494 -0.911,-13.047 -4.977,-1.81 -10.216,-5.106 -15.558,-10.374 h -56.244 c 2.408,6.432 4.45,13.41 4.45,20.346 z"
     fill="#ffdd2d"
     id="path875" />
  <path
     d="m 241.65,321.03 c -0.911,-0.081 -1.679,0.622 -1.74,1.507 -0.061,0.924 0.627,1.708 1.558,1.728 0.889,0.081 1.679,-0.603 1.759,-1.507 0,-0.885 -0.646,-1.708 -1.577,-1.728 z"
     fill="#000000"
     id="path877" />
  <path
     d="m 350.52,429.815 -9.246,-3.519 2.549,-9.489 2.812,-10.354 c 0,0 -16.388,8.827 -39.472,15.462 -6.555,1.869 -11.512,2.713 -11.512,2.713 v 7.036 c 0,0 -12.341,2.132 -24.824,2.132 h -0.143 -0.181 -0.243 -0.142 c -12.482,0 -24.824,-2.132 -24.824,-2.132 v -7.036 c 0,0 -4.978,-0.844 -11.512,-2.713 -23.085,-6.635 -39.452,-15.462 -39.452,-15.462 l 2.771,10.354 2.61,9.489 -9.266,3.519 -10.277,3.819 c 11.795,5.65 28.121,13.894 43.074,17.954 l -3.521,9.57 c 0,0 18.957,8.585 50.539,8.666 v 0.02 h 0.102 0.141 0.122 0.08 v -0.02 c 31.623,-0.081 50.559,-8.666 50.559,-8.666 l -3.541,-9.57 c 14.951,-4.06 31.32,-12.304 43.054,-17.954 z m -159.387,4.463 15.214,-5.025 -4.491,-14.577 c 6.696,3.78 21.73,9.449 30.428,12.083 l -7.343,20.044 c -13.435,-3.678 -24.623,-7.961 -33.808,-12.525 z m 79.37,30.519 c -17.663,0 -37.834,-4.041 -43.761,-6.131 l 9.022,-24.267 c 7.486,2.172 23.065,4.483 34.374,4.402 h 0.021 0.344 0.303 0.041 c 11.31,0.081 26.847,-2.23 34.374,-4.402 l 9.002,24.267 c -5.927,2.11 -26.078,6.131 -43.72,6.131 z m 45.521,-17.994 -7.323,-20.044 c 8.719,-2.634 23.71,-8.303 30.428,-12.083 l -4.471,14.577 15.194,5.025 c -9.206,4.564 -20.334,8.847 -33.828,12.525 z"
     fill="#000000"
     id="path879" />
  <path
     d="m 270.482,51.0442 c 18.816,0 33.867,6.1931 42.183,12.8079 0,0 2.468,-14.7779 10.905,-27.8251 l -15.154,1.7082 -7.93,-16.7467 -15.235,7.8009 -14.769,-14.5162 -14.729,14.5162 -15.254,-7.8009 -7.911,16.7467 -15.154,-1.7082 c 8.436,13.0472 10.905,27.8251 10.905,27.8251 8.335,-6.6148 23.347,-12.8079 42.143,-12.8079 z m -38.583,-7.4385 4.209,0.4429 1.821,-3.7999 5.3,-11.2584 9.833,5.0454 3.804,1.9304 3.035,-2.9749 10.601,-10.4544 10.622,10.4544 3.035,2.9749 3.803,-1.9304 9.773,-5.0454 5.361,11.2584 1.78,3.7999 4.208,-0.4429 4.006,-0.4826 c -1.841,4.1225 -3.197,8.0216 -4.169,11.2596 -10.601,-5.8704 -24.399,-9.2089 -38.459,-9.2089 -14,0 -27.779,3.3385 -38.421,9.2089 -0.99,-3.238 -2.326,-7.1583 -4.168,-11.2596 z"
     fill="#000000"
     id="path881" />
  <path
     d="m 491.23,247.126 c 24.34,0 32.472,-24.607 32.816,-25.653 l 2.711,-8.666 -9.125,0.282 h -0.039 c -3.217,0 -30.065,-0.704 -49.103,-24.749 l -1.801,-2.231 c -12.442,-15.722 -24.237,-30.66 -45.319,-37.476 0.607,-0.542 1.477,-1.226 2.671,-1.99 11.188,-7.318 17.702,-16.205 19.341,-26.518 2.387,-15.521 -7.566,-27.8856 -8.011,-28.3881 l -6.778,-8.3231 -4.228,9.8714 c -0.283,0.6228 -7.406,16.4258 -22.377,16.4258 h -1.113 c -1.031,-0.061 -2.003,-0.101 -2.974,-0.182 0.527,-7.056 -0.769,-17.9732 -10.722,-28.2068 -11.958,-12.324 -26.646,-14.1738 -34.333,-14.1738 -4.108,0 -6.839,0.5025 -7.123,0.5435 l -10.236,2.0097 6.312,8.2636 c 4.957,6.3729 9.448,18.1349 4.126,24.2868 -1.699,1.95 -5.198,3.538 -8.557,5.126 -6.899,3.156 -16.307,7.539 -16.307,18.718 0,7.238 5.645,14.797 15.882,21.23 30.308,18.939 49.001,38.702 57.074,60.515 12.483,33.556 -3.804,52.695 -19.625,62.768 l -7.102,4.543 6.212,5.669 c 0.829,0.725 8.437,7.379 19.665,8.345 2.124,0.14 4.167,0.26 6.07,0.26 7.202,0 13.333,-1.125 18.309,-2.634 -1.376,2.393 -3.055,4.826 -5.179,7.279 -9.043,10.413 -20.171,15.159 -36.174,15.4 l -5.949,0.101 -0.465,5.93 c -0.061,1.186 -0.505,12.184 9.974,21.533 1.599,1.446 3.541,2.634 5.564,3.619 -7.101,6.353 -14.325,17.41 -15.719,36.369 -1.174,15.822 -4.978,21.673 -5.018,21.732 l -6.575,9.972 11.876,0.162 c 19.625,0 34.656,-5.388 45.075,-16.044 6.151,-6.313 9.672,-13.43 11.756,-19.742 3.419,2.894 7.83,5.427 13.574,6.774 2.186,0.503 4.574,0.784 7.143,0.784 5.544,0 10.177,-1.166 10.703,-1.286 l 7.586,-2.011 -3.358,-7.037 c -0.243,-0.562 -6.575,-14.676 0.242,-34.821 2.934,-8.705 4.431,-16.506 5.159,-22.577 4.775,2.472 11.169,4.523 19.443,4.543 18.775,0 27.05,-13.932 27.435,-14.515 l 3.702,-6.394 -6.858,-2.814 c -22.377,-9.228 -27.333,-34.018 -28.325,-47.447 2.023,0.382 4.33,0.744 6.939,0.824 z m 17.743,52.553 c 0,0 -6.555,11.32 -21.587,11.32 h -0.182 c -18.047,-0.101 -25.33,-11.038 -25.33,-11.038 0,0 1.052,14.235 -5.462,33.434 -7.83,23.141 0.06,39.688 0.06,39.688 0,0 -4.208,1.125 -9.063,1.125 -1.862,0 -3.804,-0.181 -5.625,-0.664 -15.072,-3.558 -18.835,-17.189 -18.835,-17.189 0,0 1.395,46.06 -52.644,46.06 h -0.424 c 0,0 4.754,-6.434 6.17,-24.951 2.569,-34.177 25.857,-38.861 25.857,-38.861 0,0 -12.424,-1.548 -17.805,-6.353 -8.417,-7.58 -7.83,-16.346 -7.83,-16.346 19.018,-0.261 31.461,-6.694 40.949,-17.611 10.279,-11.822 11.978,-24.548 11.978,-24.548 0,0 -10.218,9.208 -29.983,9.208 -1.74,0 -3.602,-0.081 -5.504,-0.262 -9.347,-0.743 -15.821,-6.655 -15.821,-6.655 20.575,-13.108 35.021,-35.987 22.215,-70.447 -10.258,-27.603 -34.9,-48.23 -59.704,-63.771 -8.255,-5.127 -12.848,-10.816 -12.848,-15.722 0,-11.54 16.51,-11.902 23.288,-19.663 7.808,-9.0067 2.912,-23.6221 -3.865,-32.4079 0,0 2.286,-0.4628 5.887,-0.4628 7.142,0 19.504,1.7889 29.66,12.2434 13.495,13.8722 7.89,28.9713 7.89,28.9713 l 3.622,0.704 c 2.165,0.462 4.31,0.543 6.535,0.643 0.485,0 0.971,0.02 1.456,0.02 19.605,0 28.366,-20.3665 28.366,-20.3665 0,0 20.839,25.4735 -9.833,45.4165 -5.281,3.418 -7.608,6.574 -7,9.952 l 0.486,2.212 2.184,0.382 c 22.235,5.991 33.484,21.231 47.221,38.56 20.859,26.358 50.378,27.203 54.019,27.203 h 0.385 c 0,0 -6.738,21.129 -26.585,21.129 -0.324,0 -0.607,0 -0.951,-0.019 -9.124,-0.323 -13.798,-3.8 -13.798,-3.8 0,0 -3.581,47.989 32.451,62.866 z"
     fill="#000000"
     id="path883" />
  <path
     d="m 448.48,151.289 c 9.083,4.804 14.364,11.238 18.997,16.947 4.552,5.569 8.882,10.937 15.638,13.169 2.408,0.825 4.957,1.207 7.547,1.207 10.156,0 20.354,-6.173 24.217,-14.717 l 3.885,-8.565 -9.407,-0.563 c -0.446,-0.02 -12.544,-1.106 -26.018,-14.797 -5.544,-5.608 -12.241,-8.565 -19.464,-8.565 -8.82,0 -15.356,4.383 -16.084,4.826 l -8.659,6.052 z m 15.416,-9.409 c 4.531,0 9.812,1.527 14.81,6.654 15.678,15.823 30.266,16.707 30.266,16.707 -2.65,5.83 -10.338,10.957 -18.29,10.957 -1.84,0 -3.682,-0.281 -5.523,-0.904 -10.783,-3.619 -14.648,-19.703 -33.605,-29.716 0,0 5.302,-3.698 12.342,-3.698 z"
     fill="#000000"
     id="path885" />
  <path
     d="m 452.724,236.713 v 0.323 c -5.462,-43.788 -37.469,-75.413 -73.077,-94.653 -3.297,-1.75 -6.332,-3.237 -9.286,-4.665 10.844,1.669 28.304,1.87 41.778,-9.751 0,0 -20.616,15.079 -62.86,1.388 11.695,7.539 34.415,18.175 55.152,35.404 51.855,45.275 14.749,89.445 14.749,89.445 18.634,-19.319 19.402,-40.027 13.92,-56.935 9.812,16.224 16.084,35.926 15.112,60.213 -1.435,34.801 -20.676,64.898 -40.929,89.084 -9.731,11.741 -11.915,26.156 -11.915,26.156 0,0 3.924,-12.726 15.193,-25.815 21.709,-25.25 40.261,-51.488 42.689,-89.285 2.246,6.857 11.492,25.936 26.16,33.113 0.04,0.02 -18.391,-11.017 -26.686,-54.022 z"
     fill="#000000"
     id="path887" />
  <path
     d="m 176.381,398.735 c -0.02,-0.06 -3.783,-5.911 -4.996,-21.734 -1.416,-18.958 -8.62,-30.016 -15.741,-36.369 2.064,-0.965 3.965,-2.151 5.564,-3.618 10.46,-9.35 10.014,-20.346 9.953,-21.532 l -0.404,-5.931 -5.989,-0.101 c -15.962,-0.262 -27.111,-5.006 -36.154,-15.401 -2.104,-2.452 -3.803,-4.885 -5.179,-7.277 4.976,1.507 11.066,2.634 18.289,2.634 1.943,0 3.946,-0.122 6.07,-0.262 11.228,-0.965 18.836,-7.6 19.685,-8.343 l 6.211,-5.669 -7.101,-4.545 c -15.882,-10.092 -32.108,-29.232 -19.645,-62.766 8.072,-21.814 26.746,-41.577 57.094,-60.516 10.238,-6.434 15.841,-13.992 15.841,-21.23 0,-11.178 -9.387,-15.581 -16.286,-18.718 -3.359,-1.588 -6.858,-3.176 -8.557,-5.126 -5.342,-6.1324 -0.831,-17.913 4.106,-24.2872 l 6.353,-8.2623 -10.278,-2.011 c -0.303,-0.0397 -2.994,-0.5421 -7.121,-0.5421 -7.689,0 -22.336,1.8497 -34.314,14.1737 -9.974,10.2535 -11.288,21.1699 -10.783,28.2059 -0.971,0.081 -1.942,0.122 -2.954,0.181 h -1.092 c -15.012,0 -22.113,-15.8011 -22.396,-16.4251 l -4.23,-9.8714 -6.838,8.3231 c -0.384,0.5038 -10.3781,12.8874 -7.9506,28.3884 1.6184,10.313 8.1326,19.199 19.3206,26.518 1.214,0.764 2.064,1.447 2.671,1.991 -21.0607,6.814 -32.836,21.773 -45.279,37.494 l -1.8008,2.232 c -19.0169,24.045 -45.9258,24.75 -49.1426,24.75 l -9.164,-0.282 2.7911,8.664 c 0.3239,1.046 8.4368,25.654 32.7952,25.654 l 1.1741,-0.039 c 2.569,-0.081 4.8762,-0.423 6.9401,-0.825 -1.0128,13.409 -5.9696,38.199 -28.366,47.447 l -6.8383,2.815 3.7035,6.393 c 0.3636,0.583 8.6589,14.516 27.4734,14.516 8.2147,-0.021 14.6074,-2.072 19.403,-4.544 0.7285,6.071 2.2252,13.872 5.1591,22.577 6.8185,20.145 0.4654,34.259 0.2221,34.822 l -3.3583,7.037 7.6078,2.01 c 0.5051,0.12 5.179,1.286 10.7017,1.286 2.5901,0 4.978,-0.281 7.1229,-0.784 5.766,-1.347 10.216,-3.879 13.594,-6.775 2.064,6.312 5.605,13.43 11.736,19.743 10.438,10.655 25.45,16.043 45.075,16.043 l 11.897,-0.16 z m -5.746,3.679 c -54.039,0 -52.662,-46.06 -52.662,-46.06 0,0 -3.763,13.631 -18.8361,17.19 -1.8008,0.482 -3.7232,0.664 -5.6047,0.664 -4.855,0 -9.0436,-1.127 -9.0436,-1.127 0,0 7.8497,-16.546 0.0198,-39.686 -6.4734,-19.201 -5.4209,-33.434 -5.4209,-33.434 0,0 -7.264,10.937 -25.3302,11.037 h -0.1825 c -15.0318,0 -21.5872,-11.319 -21.5872,-11.319 36.0121,-14.857 32.4713,-62.827 32.4713,-62.827 0,0 -4.6725,3.458 -13.818,3.8 -0.3239,0.02 -0.6267,0.02 -0.9507,0.02 -19.8683,0 -26.5849,-21.13 -26.5849,-21.13 h 0.4045 c 3.6625,0 33.1404,-0.845 53.999,-27.202 13.7374,-17.33 25.0062,-32.55 47.2002,-38.56 l 2.225,-0.382 0.487,-2.212 c 0.607,-3.378 -1.7,-6.534 -6.98,-9.952 -30.6717,-19.964 -9.833,-45.417 -9.833,-45.417 0,0 8.72,20.347 28.365,20.347 0.485,0 0.931,-0.021 1.436,-0.021 2.205,-0.121 4.391,-0.201 6.535,-0.663 l 3.622,-0.704 c 0,0 -5.605,-15.0983 7.91,-28.9705 10.157,-10.4743 22.518,-12.2434 29.639,-12.2434 3.622,0 5.868,0.4615 5.868,0.4615 -6.757,8.8057 -11.653,23.4025 -3.845,32.4094 6.758,7.74 23.247,8.122 23.247,19.662 0,4.885 -4.592,10.596 -12.846,15.722 -24.826,15.541 -49.467,36.168 -59.705,63.772 -12.786,34.46 1.639,57.318 22.255,70.447 0,0 -6.474,5.91 -15.841,6.655 -1.902,0.181 -3.743,0.261 -5.524,0.261 -19.746,0 -29.963,-9.209 -29.963,-9.209 0,0 1.699,12.728 11.917,24.549 9.549,10.916 21.992,17.35 41.01,17.612 0,0 0.607,8.766 -7.81,16.344 -5.401,4.785 -17.825,6.353 -17.825,6.353 0,0 23.308,4.685 25.857,38.863 1.396,18.516 6.11,24.95 6.11,24.95 z"
     fill="#000000"
     id="path889" />
  <path
     d="m 50.2806,182.635 c 2.61,0 5.1591,-0.383 7.5655,-1.208 6.7986,-2.231 11.1076,-7.599 15.6598,-13.168 4.6541,-5.71 9.8939,-12.143 18.9772,-16.948 l 9.3479,-4.986 -8.6802,-6.052 c -0.7285,-0.462 -7.2429,-4.824 -16.0433,-4.824 -7.2428,0 -13.9595,2.935 -19.4835,8.563 -13.4743,13.672 -25.5524,14.777 -25.998,14.798 l -9.4072,0.542 3.8647,8.585 c 3.8832,8.504 14.06,14.698 24.1971,14.698 z m 11.9763,-34.078 c 5.0176,-5.128 10.2984,-6.655 14.8506,-6.655 6.9996,0 12.3002,3.698 12.3002,3.698 -18.9362,10.033 -22.8207,26.098 -33.6453,29.716 -1.7797,0.623 -3.6413,0.905 -5.4818,0.905 -7.9516,0 -15.64,-5.107 -18.2698,-10.957 0,-0.02 14.5664,-0.906 30.2461,-16.707 z"
     fill="#000000"
     id="path891" />
  <path
     d="m 92.7452,257.502 c -1.0114,-24.287 5.261,-43.99 15.0928,-60.214 -5.483,16.908 -4.734,37.616 13.92,56.937 0,0 -37.1058,-44.17 14.768,-89.446 20.759,-17.23 43.459,-27.866 55.133,-35.405 -42.224,13.691 -62.841,-1.387 -62.841,-1.387 13.474,11.621 30.935,11.42 41.78,9.732 -2.934,1.426 -6.01,2.914 -9.268,4.663 -35.647,19.24 -67.6341,50.865 -73.1172,94.653 v -0.341 c -8.2741,43.004 -26.6855,54.041 -26.6855,54.041 14.6484,-7.178 23.8746,-26.237 26.1196,-33.112 2.4487,37.797 21.0001,64.033 42.7091,89.285 11.269,13.087 15.235,25.814 15.235,25.814 0,0 -2.205,-14.416 -11.977,-26.157 C 113.402,322.42 94.1613,292.303 92.7452,257.502 Z"
     fill="#000000"
     id="path893" />
  <path
     d="m 258.281,168.901 v 8.685 c 3.015,-3.639 8.842,-2.894 8.842,-2.894 v 12.525 c 0,0 -0.203,6.152 -2.408,8.825 h 6.312 6.292 c -2.164,-2.653 -2.388,-8.825 -2.388,-8.825 v -12.525 c 0,0 5.827,-0.745 8.822,2.894 v -8.685 h -12.726 z"
     fill="#000000"
     id="path895" />
  <path
     d="m 252.858,117.392 c 4.026,3.178 6.353,3.7 6.434,3.761 l 1.578,0.723 v -8.183 l -14.809,-6.192 c 0,0.02 0.141,4.744 6.797,9.891 z"
     fill="#000000"
     id="path897" />
  <path
     d="m 288.083,117.392 c 6.697,-5.147 6.818,-9.891 6.818,-9.891 l -14.809,6.192 v 8.183 l 1.557,-0.723 c 0.102,-0.061 2.408,-0.583 6.434,-3.761 z"
     fill="#000000"
     id="path899" />
  <path
     d="m 314.763,84.0781 c 0,-12.4046 -21.021,-23.5625 -44.227,-23.5625 h -0.02 -0.06 -0.061 c -23.206,0 -44.227,11.1579 -44.227,23.5625 l 0.466,3.0556 9.265,52.8553 -9.305,5.368 -24.077,13.973 h 0.082 c 0,0 -5.422,2.754 -7.932,4.463 -9.164,6.334 -11.106,15.561 -5.786,19.381 1.316,-7.519 7.304,-15.4 18.512,-15.4 8.073,0 14.223,4.141 19.201,10.354 1.274,1.568 2.488,3.237 3.621,5.046 1.395,2.271 2.791,4.263 4.188,6.193 h -62.01 c 4.552,9.107 8.881,18.758 8.881,29.232 v 136.39 c 0,33.012 25.553,48.774 53.189,48.774 21.365,0 24.239,-0.965 36.034,10.695 11.734,-11.68 14.607,-10.695 35.992,-10.695 27.656,0 53.169,-15.762 53.169,-48.774 v -136.39 c 0,-10.474 4.33,-20.125 8.902,-29.232 h -62.031 c 1.376,-1.911 2.772,-3.922 4.167,-6.193 1.154,-1.809 2.347,-3.478 3.602,-5.046 5.017,-6.232 11.147,-10.354 19.22,-10.354 11.208,0 17.177,7.861 18.512,15.4 5.322,-3.82 3.399,-13.047 -5.827,-19.381 -2.468,-1.709 -7.891,-4.463 -7.891,-4.463 h 0.082 l -24.076,-13.973 -9.266,-5.368 9.266,-52.8553 z m -79.471,6.1521 32.574,10.9768 v 50.845 l -23.974,-12.565 z m 6.738,108.0018 c 5.342,5.287 10.582,8.565 15.558,10.374 -0.648,2.554 -1.496,7.822 0.911,13.068 1.962,4.222 5.523,7.48 10.641,9.651 0.567,5.228 3.885,13.088 13.091,16.567 -4.026,4.04 -7.952,7.84 -9.55,9.388 l -37.328,-0.583 c -0.849,-0.423 -2.286,-1.367 -2.932,-2.714 -0.082,-0.181 -0.203,-0.282 -0.263,-0.483 l 6.088,0.985 c 0.143,0.02 0.263,0.02 0.385,0.02 1.174,0 2.205,-0.804 2.408,-2.01 0.202,-1.347 -0.708,-2.574 -2.023,-2.775 l -7.486,-1.166 8.315,-28.529 -7.87,-16.465 -12.624,13.27 -0.77,29.673 -8.476,-1.326 c -1.316,-0.262 -2.57,0.704 -2.792,2.01 -0.203,1.308 0.687,2.533 2.022,2.775 l 3.561,0.542 c -1.274,0.725 -2.103,1.287 -2.205,1.367 l -0.729,0.503 -0.202,0.886 c -2.063,8.323 2.61,16.224 7.649,19.762 l -0.183,1.045 c -0.202,1.288 0.081,2.533 0.85,3.579 0.728,1.066 1.861,1.709 3.115,1.93 0.264,0.04 0.546,0.06 0.79,0.06 2.184,0 4.087,-1.508 4.633,-3.698 1.881,0.22 3.601,0.26 4.774,0.26 h 0.992 l 48.981,8.786 0.829,-0.542 c 3.904,-2.715 18.775,-13.49 23.651,-17.05 1.335,1.147 2.832,2.193 4.653,3.056 -1.578,5.267 -1.679,13.37 4.573,19.764 h -124.83 v -71.593 c 0,-6.936 -2.043,-13.912 -4.451,-20.346 h 56.244 z m 60.533,65.502 c -4.956,3.619 -17.702,12.866 -22.315,16.083 l -44.51,-7.941 c 0.102,-0.402 0.202,-0.784 0.304,-1.186 0.586,-2.293 1.173,-5.429 1.214,-9.107 l 37.408,0.603 0.708,-0.725 c 0.567,-0.562 12.423,-11.942 18.472,-18.496 1.436,1.789 3.236,3.499 5.583,5.006 -0.809,4.343 -0.465,10.535 3.136,15.763 z m -74.513,-7.661 c 1.052,2.192 2.953,3.66 4.269,4.484 -0.041,2.05 -0.243,5.247 -0.789,8.062 -0.122,0.623 -0.283,1.206 -0.466,1.789 -0.1,0.363 -0.202,0.664 -0.283,0.905 -1.962,0 -5.827,-0.241 -8.983,-1.387 -3.499,-1.287 -8.719,-7.66 -7.506,-14.676 1.518,-0.926 5.018,-2.876 8.296,-2.876 2.529,-0.02 4.248,1.166 5.462,3.699 z m -4.633,-8.825 0.748,-28.489 6.434,-6.775 4.047,8.404 -7.972,27.342 z m 78.742,147.689 c -2.428,0 -4.674,0.04 -6.697,0.121 l 5.301,-16.386 c 0.83,-2.272 -3.359,-5.187 -5.079,-7.74 2.61,1.629 9.368,5.187 12.626,6.615 -0.344,0.522 -6.151,17.39 -6.151,17.39 z m 16.63,-18.617 -3.459,17.934 c -2.205,0.301 -4.552,0.461 -6.96,0.562 l 3.642,-17.249 c 1.092,-5.128 -12.766,-6.716 -19.604,-16.788 -3.339,3.739 -9.631,4.846 -15.943,4.846 -5.766,0 -11.532,-0.926 -15.033,-1.609 -0.89,-0.14 -1.74,-0.241 -2.569,-0.241 -2.023,0 -3.865,0.623 -5.139,2.754 l -1.012,1.689 -18.875,-4.423 -4.694,7.72 c -0.668,1.247 -0.709,2.313 0.364,3.477 l 1.274,1.389 c -0.87,2.734 -4.794,6.855 -4.794,6.855 l -2.812,-3.479 c -2.227,-2.472 -1.862,-6.975 0.465,-11.157 l 7.485,-12.566 15.984,2.292 -2.489,-5.629 c -3.338,-7.439 1.74,-16.908 2.286,-22.357 -0.182,1.649 -1.7,2.011 -3.48,2.011 -1.618,0 -3.419,-0.302 -4.613,-0.302 -0.465,0 -0.87,0.04 -1.092,0.201 l -4.33,2.614 -3.419,-2.996 c -0.405,-0.583 -0.546,-1.93 0.465,-2.935 l 7.911,-8.806 -9.346,-10.836 13.089,6.534 3.985,-4.805 c 1.094,1.066 0.628,3.86 0.628,3.86 4.087,0.1 15.537,6.394 16.145,21.07 0.04,0.441 0.04,0.945 0.04,1.426 0,0 0.102,0.182 0.304,0.483 0.809,1.107 3.034,3.941 5.866,4.202 l 18.088,1.77 h 0.08 c 1.984,0 5.929,-2.312 10.986,-2.312 2.752,0 5.827,0.703 9.105,2.754 0,0 1.638,-1.287 4.309,-1.428 0.202,-0.02 0.426,-0.02 0.628,-0.02 8.113,0 11.471,7.279 15.821,13.33 3.278,4.604 7.648,11.44 7.648,11.44 -1.619,1.909 -3.117,2.955 -5.625,2.955 -0.687,0 -1.477,-0.061 -2.327,-0.221 -8.7,-1.589 -9.953,-19.361 -14.91,-20.769 -0.263,-0.08 -0.546,-0.1 -0.789,-0.1 -1.599,0 -2.306,1.408 -2.306,1.408 2.264,6.05 0.95,8.504 3.378,13.168 1.82,3.458 5.057,6.313 6.393,7.66 0,0.04 -0.364,2.654 -0.749,4.624 z m -97.132,-16.969 0.829,2.072 c -0.546,1.809 -6.817,4.382 -6.817,4.382 l -1.357,-2.936 c -1.436,-3.136 -1.133,-8.423 3.238,-11.66 l 10.156,-6.152 10.764,2.271 c -0.203,3.398 1.84,5.932 1.84,5.932 l -11.289,-2.151 -6.757,4.644 c -1.133,0.784 -1.214,2.252 -0.607,3.598 z m 98.832,33.918 3.096,-16.045 c 0.161,-0.944 0.363,-2.05 0.505,-2.975 0.87,0.363 1.801,0.664 2.812,0.845 1.153,0.221 2.225,0.321 3.197,0.321 4.735,0 7.486,-2.473 9.327,-4.584 l 2.388,-2.754 -1.943,-3.015 c -0.182,-0.302 -4.471,-7.057 -7.789,-11.682 -0.648,-0.904 -1.276,-1.809 -1.902,-2.794 -3.763,-5.59 -8.477,-12.605 -17.925,-12.605 l -0.85,0.02 c -1.558,0.1 -2.893,0.401 -3.965,0.803 -2.975,-1.387 -6.03,-2.09 -9.207,-2.09 -3.904,0 -7.202,1.066 -9.387,1.809 -0.627,0.181 -1.193,0.382 -1.638,0.463 l -17.663,-1.73 c -0.222,-0.039 -0.951,-0.461 -1.821,-1.507 v -0.081 l 3.824,-1.528 c -1.072,-12.645 -13.292,-20.426 -20.11,-23.06 -0.303,-1.267 -0.91,-2.534 -1.982,-3.558 l -3.804,-3.579 -3.339,3.981 -1.638,2.031 -24.723,-10.094 16.084,20.065 -6.353,9.55 c -2.327,2.453 0.243,4.906 0.243,4.906 l 6.554,4.483 6.799,-2.513 c 0.242,0 0.445,0.061 0.667,0.08 -0.323,1.025 -0.748,5.046 -1.032,6.172 l -11.795,-2.312 -12.402,6.957 c -6.373,4.644 -7.243,12.344 -4.875,17.612 l 1.375,2.994 1.962,4.223 4.33,-1.79 c 0.061,-0.02 0.122,-0.04 0.161,-0.079 -1.557,4.945 -0.929,9.649 1.862,12.746 l 2.63,3.297 3.501,4.403 3.844,-4.102 c 1.133,-1.126 4.795,-5.206 5.928,-8.705 l 0.829,-2.675 -1.881,-2.05 -0.304,-0.361 2.105,-3.459 15.395,3.599 3.46,0.784 1.841,-3.016 1.012,-1.649 c 0.182,-0.341 0.242,-0.402 0.951,-0.402 0.546,0 1.092,0.061 1.679,0.182 5.806,1.085 11.167,1.629 15.922,1.629 4.613,0 7.364,-0.182 10.662,-1.267 0,0 8.275,9.328 8.558,9.69 l -5.057,15.521 -0.223,0.945 c -9.59,0.763 -14.263,2.855 -19.908,8.464 -8.194,-8.083 -14.001,-8.926 -36.032,-8.926 -26.363,0 -44.227,-15.36 -44.227,-39.888 v -59.972 h 160.478 l 0.041,59.972 c 0.019,19.903 -11.735,33.775 -30.247,38.3 z m 34.697,-195.037 c -2.447,6.434 -4.491,13.411 -4.491,20.347 l 0.021,44.753 c -9.409,-1.568 -10.521,-11.642 -10.562,-12.083 l -0.182,-2.051 -2.023,-0.181 c -4.087,-0.382 -6.798,-2.112 -9.084,-4.322 -4.613,-4.584 -4.634,-12.023 -4.613,-12.084 -0.06,0.382 -5.078,7.358 0.749,14.978 2.447,3.217 5.988,5.188 10.581,5.972 1.072,5.589 5.26,13.469 15.134,14.676 v 21.914 h -27.759 c -12.807,-7.076 -7.385,-19.542 -7.122,-20.064 l 1.093,-2.373 -2.448,-0.925 c -13.859,-5.106 -10.055,-18.858 -9.853,-19.441 l 0.566,-2.011 -1.881,-0.884 c -11.452,-5.268 -9.893,-19.481 -9.751,-20.064 -3.521,2.834 -4.796,8.624 -2.368,14.294 -1.315,1.488 -3.074,3.297 -4.997,5.267 -11.856,-2.994 -12.219,-13.831 -12.219,-14.333 l -0.022,-1.67 -1.557,-0.603 c -4.633,-1.709 -7.81,-4.262 -9.368,-7.701 -1.759,-3.798 -1.133,-7.779 -0.646,-9.69 1.355,0.302 2.71,0.524 4.005,0.624 1.335,0.14 2.711,0.221 4.087,0.221 h 0.081 0.101 c 1.376,0 2.732,-0.081 4.067,-0.221 7.384,-0.724 15.659,-3.88 24.278,-12.365 h 56.183 z m -43.255,-45.236 10.965,6.334 h 0.162 l 2.752,1.588 c -6.191,1.709 -10.925,4.785 -14.89,8.826 -0.142,0.121 -0.283,0.282 -0.426,0.422 -0.91,0.965 -1.821,2.011 -2.67,3.077 -0.162,0.201 -0.324,0.422 -0.506,0.643 -0.85,1.085 -1.638,2.192 -2.408,3.357 -0.121,0.202 -0.263,0.403 -0.404,0.583 -0.911,1.347 -1.78,2.795 -2.65,4.282 -7.81,13.37 -20.273,21.352 -31.359,21.372 -11.067,-0.02 -23.53,-8.002 -31.34,-21.372 -0.85,-1.448 -1.699,-2.854 -2.61,-4.222 -0.182,-0.261 -0.344,-0.522 -0.505,-0.744 -0.769,-1.105 -1.538,-2.191 -2.327,-3.215 -0.202,-0.282 -0.385,-0.504 -0.587,-0.745 -0.85,-1.026 -1.72,-2.051 -2.59,-2.996 -0.181,-0.14 -0.303,-0.321 -0.485,-0.482 -3.985,-4.041 -8.7,-7.097 -14.911,-8.786 l 2.792,-1.588 h 0.121 l 10.966,-6.334 11.269,-6.412 30.105,16.284 0.061,-0.06 0.08,0.06 30.105,-16.284 z m -14.851,-13.49 -23.994,12.566 V 101.207 L 305.639,90.2302 Z M 270.476,95.6181 234.787,81.6056 c 3.035,-7.1371 17.035,-13.2098 35.689,-13.2297 18.674,0.0199 32.674,6.0926 35.689,13.2297 z"
     fill="#000000"
     id="path901" />
</svg>
