<svg width="21" height="19" viewBox="0 0 21 19" fill="none" xmlns="http://www.w3.org/2000/svg">
<path d="M19.493 9.53843L21.0007 11.0569L13.9682 18.1541L10.2311 14.3848L11.7389 12.8662L13.9682 15.1063L19.493 9.53843ZM7.53872 14.3848L10.7696 17.6156H0V15.4617C0 13.0816 3.85552 11.1539 8.61568 11.1539L10.6511 11.2723L7.53872 14.3848ZM8.61568 0.384277C9.75819 0.384277 10.8539 0.838137 11.6618 1.64601C12.4697 2.45389 12.9235 3.54961 12.9235 4.69212C12.9235 5.83463 12.4697 6.93034 11.6618 7.73822C10.8539 8.54609 9.75819 8.99995 8.61568 8.99995C7.47317 8.99995 6.37745 8.54609 5.56957 7.73822C4.7617 6.93034 4.30784 5.83463 4.30784 4.69212C4.30784 3.54961 4.7617 2.45389 5.56957 1.64601C6.37745 0.838137 7.47317 0.384277 8.61568 0.384277Z" fill="white"/>
</svg>
