<svg width="38" height="57" viewBox="0 0 38 57" fill="none" xmlns="http://www.w3.org/2000/svg">
<path d="M3.67333 51.355L0.076 42.425H2.82467L4.83867 48.0363L6.85267 42.425H9.55067L5.95333 51.355H3.67333ZM12.1697 51.2917V42.425H14.6397V51.2917H12.1697ZM17.9729 51.2917V42.425H21.7729C22.9045 42.425 23.7996 42.7037 24.4582 43.261C25.1254 43.8099 25.4589 44.5783 25.4589 45.5663C25.4589 46.5797 25.1085 47.365 24.4076 47.9223C23.7067 48.4797 22.7862 48.7583 21.6462 48.7583H20.4302V51.2917H17.9729ZM20.4302 46.833H21.5956C22.0347 46.833 22.3767 46.7274 22.6216 46.5163C22.8749 46.3052 23.0016 46.0181 23.0016 45.655C23.0016 45.275 22.8749 44.9879 22.6216 44.7937C22.3767 44.591 22.0305 44.4897 21.5829 44.4897H20.4302V46.833ZM34.7081 51.2917V44.6543L33.2134 44.9963L32.7447 43.0963L35.3414 42.3617H37.1274V51.2917H34.7081Z" fill="#F2923B"/>
<circle cx="17" cy="17" r="17" fill="#F2923B"/>
<path d="M12.5723 8.00813C12.5139 8.01916 12.457 8.04193 12.4067 8.07606C12.3285 8.12954 10.4782 9.41148 10.4782 11.2019V12.6769C10.4102 12.799 10.3432 12.9216 10.2846 13.0472C9.94036 11.7517 9.23818 11.1676 9.19853 11.1365C9.10201 11.0613 8.97583 11.029 8.85801 11.0499C8.73757 11.0703 8.63197 11.1401 8.56589 11.2427C8.13849 11.9048 7.74872 13.0981 7.90437 14.1511C8.02413 14.9619 8.62746 15.6448 9.62142 16.1102C9.61342 16.3045 9.60868 16.4996 9.60868 16.6961C9.60868 16.7093 9.61032 16.722 9.61038 16.7352C8.74545 16.0798 7.58924 15.8482 7.51544 15.8342C7.37979 15.8086 7.23631 15.8498 7.13501 15.9463C7.0337 16.0428 6.98467 16.1821 7.00423 16.3208C7.0138 16.3934 7.25817 18.1089 7.94513 19.1155C8.44687 19.8507 9.17417 20.0623 9.77852 20.0623C9.97624 20.0623 10.1495 20.0358 10.3076 20.0012C10.422 20.2605 10.5492 20.5114 10.6888 20.7544C10.4208 20.6678 10.1486 20.6092 9.88297 20.6092C8.9921 20.6092 8.13067 21.0775 8.09459 21.0975C7.8985 21.2057 7.81611 21.4446 7.90437 21.6503C7.93959 21.732 8.78582 23.6527 10.5071 23.6527C11.534 23.6527 12.2217 23.2427 12.5885 22.9453C12.9092 23.1941 13.2503 23.4345 13.6049 23.6646C11.9386 23.7717 11.0787 24.6113 11.0404 24.6496C10.9482 24.7418 10.903 24.8703 10.9156 25.0003C10.9282 25.1299 10.9984 25.2466 11.1066 25.3188C11.1645 25.357 12.5365 26.2614 13.9565 26.2614C14.9992 26.2614 15.604 25.5933 15.9071 25.1116C16.067 25.2172 16.2194 25.32 16.3444 25.4122C15.8277 25.9206 15.4951 26.4429 15.2897 26.9747C15.2034 27.1989 15.3152 27.4505 15.5394 27.5368C15.7636 27.6231 16.0153 27.5114 16.1016 27.2872C16.2765 26.8343 16.5366 26.419 17 25.9803C17.4633 26.419 17.7235 26.8343 17.8984 27.2872C17.9847 27.5114 18.2364 27.6231 18.4606 27.5368C18.6848 27.4505 18.7965 27.1989 18.7102 26.9747C18.5049 26.4429 18.1723 25.9206 17.6556 25.4122C17.7804 25.3201 17.9324 25.2171 18.092 25.1116C18.3959 25.5933 19.0008 26.2614 20.0435 26.2614C21.4635 26.2614 22.8355 25.357 22.8933 25.3188C23.0016 25.2466 23.0718 25.1294 23.0844 25.0003C23.097 24.8703 23.0517 24.7418 22.9596 24.6496C22.9213 24.6113 22.0614 23.7717 20.395 23.6646C20.7496 23.4345 21.0908 23.1941 21.4115 22.9453C21.7782 23.2427 22.4657 23.6527 23.4929 23.6527C25.2142 23.6527 26.0604 21.732 26.0956 21.6503C26.1839 21.4446 26.1019 21.2057 25.9054 21.0975C25.8693 21.0775 25.0079 20.6092 24.117 20.6092C23.8516 20.6092 23.5798 20.6675 23.312 20.7535C23.4514 20.5109 23.5782 20.2601 23.6924 20.0012C23.8504 20.0357 24.0242 20.0623 24.2215 20.0623C24.8258 20.0623 25.5531 19.8507 26.0548 19.1155C26.7418 18.1089 26.9862 16.3934 26.9957 16.3208C27.0153 16.1821 26.9667 16.0428 26.865 15.9463C26.7632 15.8498 26.6193 15.8086 26.4837 15.8342C26.4096 15.8482 25.2543 16.0796 24.3896 16.7344C24.3897 16.7215 24.3913 16.709 24.3913 16.6961C24.3913 16.4999 24.3874 16.3051 24.3794 16.1111C25.3657 15.6536 25.9763 14.967 26.0965 14.1511C26.2517 13.0977 25.8619 11.9044 25.4341 11.2427C25.368 11.1401 25.262 11.0708 25.1411 11.0508C25.0224 11.0299 24.8975 11.0613 24.8015 11.1365C24.7618 11.1676 24.0596 11.7519 23.7153 13.0472C23.6568 12.9216 23.5898 12.799 23.5217 12.6769V11.2019C23.5217 9.41148 21.6711 8.12954 21.5924 8.07606C21.4919 8.0078 21.3663 7.98326 21.2493 8.01153C21.1311 8.03892 21.0299 8.11477 20.9699 8.22042C20.9369 8.27825 20.1688 9.65277 20.6184 10.9489C21.035 12.1502 22.4151 12.921 22.7643 13.1015C22.8768 13.3036 22.9748 13.5134 23.0589 13.7308C22.5041 13.2604 21.903 12.9894 21.5244 12.8213C21.3897 12.7613 21.2344 12.7731 21.1109 12.8536C20.9874 12.9331 20.913 13.0709 20.913 13.2179C20.913 13.8766 20.9133 14.7787 21.5194 15.7026C22.0684 16.5401 22.9856 16.8958 23.5056 17.0384C23.4846 17.4977 23.4226 17.9438 23.3222 18.375C23.1398 17.9641 22.855 17.5814 22.4552 17.2362C22.2869 17.0906 22.0356 17.0968 21.8743 17.2481C21.8352 17.2851 20.913 18.1641 20.913 19.6997C20.913 20.381 21.298 21.0327 21.713 21.4949C21.6774 21.5346 21.6458 21.5783 21.6094 21.6172C21.3556 21.8876 21.0088 22.1675 20.6252 22.4468C20.8646 21.7524 20.9092 21.1194 20.9122 21.072C20.9204 20.9433 20.8706 20.818 20.7772 20.7289C20.6837 20.6402 20.5547 20.5987 20.4282 20.6126C20.3642 20.62 18.8548 20.8049 17.9596 21.7828C17.2306 22.5787 17.4292 23.8088 17.5825 24.3982C17.367 24.5417 17.1739 24.6839 17 24.8254C16.8259 24.6837 16.6323 24.5419 16.4166 24.3982C16.5701 23.8088 16.7694 22.5787 16.0404 21.7828C15.1452 20.8049 13.6362 20.62 13.5718 20.6126C13.4444 20.5987 13.3154 20.6402 13.222 20.7289C13.1285 20.8176 13.08 20.9433 13.0878 21.072C13.0908 21.1197 13.1362 21.7525 13.3697 22.4426C12.9883 22.1646 12.6432 21.8863 12.3906 21.6172C12.3542 21.5783 12.3226 21.5346 12.287 21.4949C12.702 21.033 13.0869 20.3814 13.0869 19.6997C13.0869 18.1641 12.1644 17.2851 12.1248 17.2481C11.9631 17.0968 11.7118 17.091 11.544 17.2362C11.1443 17.5813 10.8594 17.9634 10.677 18.3741C10.5767 17.9432 10.5154 17.4974 10.4944 17.0384C11.0144 16.8958 11.9324 16.5401 12.4815 15.7026C13.0871 14.7787 13.0869 13.8766 13.0869 13.2179C13.0869 13.0709 13.0126 12.9336 12.8891 12.8536C12.7652 12.7731 12.6099 12.7609 12.4755 12.8205C12.0973 12.9886 11.496 13.2596 10.9411 13.7299C11.0251 13.5128 11.1233 13.3033 11.2357 13.1015C11.5849 12.9207 12.965 12.1502 13.3816 10.9489C13.8312 9.65277 13.0631 8.27825 13.0301 8.22042C12.9701 8.11477 12.8685 8.03892 12.7498 8.01153C12.6909 7.99761 12.6308 7.9971 12.5723 8.00813H12.5723Z" fill="white"/>
</svg>
