<svg width="27" height="16" viewBox="0 0 27 16" fill="none" xmlns="http://www.w3.org/2000/svg">
<path d="M26.2757 1.08168C26.4636 0.457635 26.2757 0 25.3873 0H22.4442C21.6954 0 21.3531 0.395901 21.1652 0.830721C21.1652 0.830721 19.6689 4.47972 17.5485 6.84573C16.864 7.53419 16.5513 7.7516 16.1782 7.7516C15.9917 7.7516 15.7206 7.53419 15.7206 6.91014V1.08168C15.7206 0.332825 15.5045 0 14.8805 0H10.2558C9.78881 0 9.50698 0.346245 9.50698 0.676386C9.50698 1.38498 10.5672 1.54871 10.6759 3.54566V7.87775C10.6759 8.82657 10.5055 8.99969 10.1297 8.99969C9.13256 8.99969 6.70615 5.33728 5.26615 1.14476C4.98566 0.330141 4.70249 0.00134258 3.95095 0.00134258H1.00921C0.167755 0.00134258 0 0.397243 0 0.832063C0 1.61313 0.997133 5.47819 4.64479 10.59C7.07656 14.0806 10.5001 15.9729 13.619 15.9729C15.4884 15.9729 15.7193 15.5529 15.7193 14.8282V12.1897C15.7193 11.3496 15.8978 11.1805 16.4896 11.1805C16.9244 11.1805 17.6733 11.4006 19.4193 13.0822C21.4135 15.0764 21.7437 15.9716 22.8643 15.9716H25.806C26.6461 15.9716 27.0662 15.5515 26.8246 14.7221C26.5602 13.8968 25.6074 12.6957 24.3432 11.2744C23.6561 10.4639 22.6294 9.59153 22.3167 9.15537C21.8806 8.59306 22.0067 8.34478 22.3167 7.84554C22.3181 7.84688 25.9026 2.79815 26.2757 1.08168Z" fill="#3D4B71"/>
</svg>
